<?xml version="1.0" encoding="utf-8"?>
<!-- Generator: Adobe Illustrator 22.1.0, SVG Export Plug-In . SVG Version: 6.00 Build 0)  -->
<svg version="1.1"
	 id="Layer_1" text-rendering="geometricPrecision" image-rendering="optimizeQuality" shape-rendering="geometricPrecision"
	 xmlns="http://www.w3.org/2000/svg" xmlns:xlink="http://www.w3.org/1999/xlink" x="0px" y="0px" viewBox="0 0 425 476"
	 style="enable-background:new 0 0 425 476;" xml:space="preserve">
<style type="text/css">
	.st0{fill:#2782B9;}
	.st1{fill:#FFFFFF;}
	.st2{clip-path:url(#SVGID_2_);}
	.st3{fill:#FEFEFE;}
	.st4{fill:none;}
</style>
<g>
	<path class="st0" d="M167,440.7c-47.6-30.5-88-68.3-116.9-109.1C21.3,290.8,6,249.6,6,212.6c0-55.2,21.5-107,60.5-146
		c39-39,90.9-60.5,146-60.5c55.2,0,107,21.5,146,60.5c39,39,60.5,90.9,60.5,146c0,47.9-14.9,90-45.4,128.7
		c-25.8,32.6-62.4,63.3-118.7,99.4l-42.5,28L167,440.7z"/>
	<path class="st1" d="M212.5,12.1c27.1,0,53.3,5.3,78,15.8c23.9,10.1,45.3,24.6,63.7,43c18.4,18.4,32.9,39.9,43,63.7
		c10.5,24.7,15.8,51,15.8,78c0,24.3-3.8,46.5-11.6,67.8c-7.3,20-18,38.7-32.6,57.2c-25.4,32.1-61.5,62.3-117.2,98.1l-0.1,0l-0.1,0
		l-39.2,25.9l-42-26c-47-30.2-86.8-67.3-115.2-107.5c-28.2-39.8-43-79.8-43-115.5c0-27.1,5.3-53.3,15.8-78
		c10.1-23.9,24.6-45.3,43-63.7c18.4-18.4,39.9-32.9,63.7-43C159.2,17.4,185.4,12.1,212.5,12.1 M212.5,0.1
		c-58.7,0-111.8,23.8-150.3,62.2C23.8,100.8,0,154,0,212.6C0,291,66,383,163.9,445.8l48.6,30.1l45.6-30.1
		C356,383,425,317.7,425,212.6c0-58.7-23.8-111.8-62.2-150.3C324.3,23.9,271.2,0.1,212.5,0.1L212.5,0.1z"/>
</g>
<g>
	<g>
		<defs>
			<path id="SVGID_1_" d="M212.5,72L212.5,72c77,0,140,63,140,140l0,0c0,77-63,140-140,140h0c-77,0-140-63-140-140l0,0
				C72.5,135,135.5,72,212.5,72z"/>
		</defs>
		<clipPath id="SVGID_2_">
			<use xlink:href="#SVGID_1_"  style="overflow:visible;"/>
		</clipPath>
		<g class="st2">
			<g>
				<polygon class="st3" points="139.3,235.3 226.2,148.3 313.2,235.3 300.5,248 226.2,173.7 152,248 				"/>
				<polygon class="st3" points="174,224.7 174,286 278.5,286 278.5,224.7 296.4,224.7 296.4,303.9 156,303.9 156,224.7 				"/>
				<path class="st3" d="M165.9,261.6c4.7,1.5,7.3,6.5,5.8,11.3c-1.5,4.7-6.5,7.3-11.3,5.8c-66.9-21.4-59.1-59.6-53.1-89.2
					c2.1-10.4,4-19.4,0.9-22.5c-3.4-3.5-3.4-9.2,0.2-12.7c2-1.9,4.7-2.8,7.2-2.5c9.7,1.1,15.9,5.8,19.9,12.1
					c3.6,5.6,5.1,12.1,5.7,18.3c0.4,4.2,1.2,8.7,3,11.3c0.7,1.1,2.1,1.6,4.6,1l0.3-0.1l0,0c0.4-0.1,0.8-0.7,1-1.6l0.1-0.2
					c0.6-2.5,0.3-5.9-0.7-9.8l-0.5-1.6c-0.8-2.8-2.4-6.1-4-9.4c-3.2-6.7-6.4-13.6-6.9-21.6c-0.6-9.2,1.2-18.2,6.5-26.1
					c4.5-6.8,11.5-12.7,21.7-16.9c4.6-1.9,9.8,0.3,11.7,4.9c1,2.5,0.8,5.2-0.3,7.5c-4.6,9-3.2,18.3,0.5,24c1.2,1.8,2.5,3.1,3.7,3.7
					c0.3,0.2,0.6,0.3,0.6,0.3c1.6-0.6,3.2-3.8,4.5-10.5c0.9-4.9,5.7-8,10.5-7.1c1.3,0.3,2.5,0.8,3.5,1.5
					c9.2,6.3,13.9,13.8,16.2,21.7c2.1,7.5,1.9,14.8,1.4,21.9c-0.3,4.9-4.6,8.7-9.5,8.3c-4.9-0.3-8.7-4.6-8.3-9.5
					c0.4-5.5,0.6-11-0.8-15.8c-0.3-0.9-0.6-1.8-1-2.7c-2.8,4.4-6.2,7.2-9.9,8.7c-5.2,2.1-10.5,1.6-15.4-1c-4-2.1-7.7-5.5-10.5-9.9
					c-2.7-4.2-4.8-9.5-5.7-15.2c-1.3,3.4-1.7,7.2-1.5,11.1c0.3,4.5,2.8,9.9,5.2,15c1.9,4,3.7,7.8,4.9,11.9c0.1,0.3,0.3,1.1,0.6,2.3
					c1.7,6.7,2,13.1,0.8,18.4l-0.1,0.5c-1.8,7-6.1,12.1-13.2,14.3l0,0l-0.6,0.2l0,0l-0.2,0c-11.7,3-19.2-1.1-24-8.3
					c-2.2-3.2-3.6-7-4.6-10.9l-0.1,0.4C120.3,215.7,114.3,245.1,165.9,261.6z"/>
				<polygon class="st3" points="263.6,205.3 263.6,177.7 281.6,177.7 281.6,205.3 				"/>
				<path class="st3" d="M207.4,221.8H254v53.7h-55.5v-53.7H207.4z M236.1,239.7h-19.6v17.8h19.6V239.7z"/>
			</g>
		</g>
	</g>
	<path class="st4" d="M212.5,72L212.5,72c77,0,140,63,140,140l0,0c0,77-63,140-140,140h0c-77,0-140-63-140-140l0,0
		C72.5,135,135.5,72,212.5,72z"/>
</g>
</svg>
