<?xml version="1.0" encoding="utf-8"?>
<!-- Generator: Adobe Illustrator 22.1.0, SVG Export Plug-In . SVG Version: 6.00 Build 0)  -->
<svg version="1.1"
	 id="Layer_1" text-rendering="geometricPrecision" image-rendering="optimizeQuality" shape-rendering="geometricPrecision"
	 xmlns="http://www.w3.org/2000/svg" xmlns:xlink="http://www.w3.org/1999/xlink" x="0px" y="0px" viewBox="0 0 425 476"
	 style="enable-background:new 0 0 425 476;" xml:space="preserve">
<style type="text/css">
	.st0{fill:#2782B9;}
	.st1{fill:#FFFFFF;}
	.st2{clip-path:url(#SVGID_2_);}
	.st3{fill:#FEFEFE;}
	.st4{fill:none;}
</style>
<g>
	<path class="st0" d="M167,440.7c-47.6-30.5-88-68.3-116.9-109.1C21.3,290.8,6,249.6,6,212.6c0-55.2,21.5-107,60.5-146
		c39-39,90.9-60.5,146-60.5c55.2,0,107,21.5,146,60.5c39,39,60.5,90.9,60.5,146c0,47.9-14.9,90-45.4,128.7
		c-25.8,32.6-62.4,63.3-118.7,99.4l-42.5,28L167,440.7z"/>
	<path class="st1" d="M212.5,12.1c27.1,0,53.3,5.3,78,15.8c23.9,10.1,45.3,24.6,63.7,43c18.4,18.4,32.9,39.9,43,63.7
		c10.5,24.7,15.8,51,15.8,78c0,24.3-3.8,46.5-11.6,67.8c-7.3,20-18,38.7-32.6,57.2c-25.4,32.1-61.5,62.3-117.2,98.1l-0.1,0l-0.1,0
		l-39.2,25.9l-42-26c-47-30.2-86.8-67.3-115.2-107.5c-28.2-39.8-43-79.8-43-115.5c0-27.1,5.3-53.3,15.8-78
		c10.1-23.9,24.6-45.3,43-63.7c18.4-18.4,39.9-32.9,63.7-43C159.2,17.4,185.4,12.1,212.5,12.1 M212.5,0.1
		c-58.7,0-111.8,23.8-150.3,62.2C23.8,100.8,0,154,0,212.6C0,291,66,383,163.9,445.8l48.6,30.1l45.6-30.1
		C356,383,425,317.7,425,212.6c0-58.7-23.8-111.8-62.2-150.3C324.3,23.9,271.2,0.1,212.5,0.1L212.5,0.1z"/>
</g>
<g>
	<defs>
		<path id="SVGID_1_" d="M212.5,72L212.5,72c77,0,140,63,140,140v0c0,77-63,140-140,140h0c-77,0-140-63-140-140v0
			C72.5,135,135.5,72,212.5,72z"/>
	</defs>
	<clipPath id="SVGID_2_">
		<use xlink:href="#SVGID_1_"  style="overflow:visible;"/>
	</clipPath>
	<g class="st2">
		<g>
			<path class="st3" d="M228.6,301.2c2.7,4.2,1.4,9.7-2.8,12.4c-4.2,2.7-9.7,1.4-12.4-2.8c-3.4-5.4-7.1-10.6-10.4-15
				c-4.5-6.1-7.9-10.3-8.4-10.6c-6.6-5-12.6-9.7-18.7-15.3c-6-5.6-11.8-11.8-17.8-19.6c-7.2-9.3-13.9-18.6-19.9-27.6
				c-6-9-11.3-17.9-15.5-26.4c-1.7-3.3-2.4-7-2.5-10.6c0-5.3,1.6-10.6,4.3-15.2c2.8-4.7,6.8-8.6,11.6-11l0.3-0.2
				c0.3-2.2,0.9-4.3,1.9-6.4c1.2-2.7,3-5.2,5.2-7.6c2.1-2.2,4.5-4.2,7-5.8c3.7-2.3,7.9-4,12.1-4.6c1.1-3.1,3.1-6,5.5-8.7
				c2.4-2.5,5.3-4.8,8.5-6.6c3.3-1.8,6.8-3.1,10.3-3.7c3.8-0.7,7.6-0.6,11.1,0.6l0.5-0.4c3.5-3.2,7.9-5.3,12.2-6.4
				c4.5-1.1,9.2-1,13.2,0.2c3.2,0.9,6,2.6,8.2,5.1c5,5.5,7.6,9.8,10.7,14.8c1.3,2.1,2.6,4.3,4.4,6.9c2.8,4.1,1.7,9.7-2.5,12.4
				c-4.1,2.7-9.7,1.6-12.4-2.5c-1.8-2.7-3.3-5.1-4.7-7.4c-2.6-4.3-4.9-8-8.8-12.2c-0.1-0.1,0.1,0.2-0.1,0.1c-1-0.3-2.5-0.3-4,0.1
				c-1.7,0.4-3.2,1.1-4.4,2.2c-0.7,0.6-1.2,1.4-1.5,2.3c-0.6,2-1.9,3.8-3.7,5c-4.2,2.7-9.7,1.5-12.4-2.7c-0.3-0.5-1.5-0.6-2.8-0.3
				c-1.5,0.3-3.2,0.9-4.7,1.7c-1.6,0.9-3,2-4.2,3.2c-1.1,1.2-1.9,2.1-1.9,2.4c1.1,2.3,1.1,5,0,7.5c-2.1,4.5-7.4,6.4-11.9,4.4
				c-1.7-0.8-4.6,0.1-7.3,1.8c-1.4,0.8-2.6,1.8-3.5,2.9c-0.9,0.9-1.6,1.9-2,2.9c-0.3,0.5-0.6,0.7-0.5,0.8c0.9,1.4,1.4,3,1.4,4.7
				c0,4.9-4,9-8.9,9c-0.7,0-1.4,0.2-2,0.4l-0.5,0.2c-1.7,0.8-3.2,2.3-4.2,4.1c-1.1,1.9-1.8,4-1.8,5.9c0,1,0.2,1.9,0.6,2.7
				c3.8,7.6,8.7,15.8,14.5,24.5c5.8,8.7,12.3,17.7,19.1,26.5c5.5,7.1,10.5,12.6,15.7,17.4c5.2,4.8,10.8,9.2,17.3,14.1
				c1.3,1,6.4,6.8,11.9,14.2C221.1,290.1,225.1,295.8,228.6,301.2z"/>
			<path class="st3" d="M236.7,176.7c3.9-3.1,9.5-2.4,12.6,1.5s2.9,9.4-1,12.4c-16.2,8.2-25.9,31.2-16.2,48.1
				c2.9,5.1-2.3,10.7-7.2,3.7C206.2,215.6,210.5,197.3,236.7,176.7z"/>
			<path class="st3" d="M302.6,254.5c2.5,4.3,1.1,9.7-3.2,12.2c-4.3,2.5-9.7,1.1-12.2-3.2c-3.2-5.5-4.8-8.4-6.7-11.7
				c-1.8-3.3-3.9-7-6.9-12.2c-0.8-1.4-1.2-2.9-1.2-4.5h0c0-5.7,0.8-12.1,1.5-18.5c0.7-5.8,1.4-11.6,1.4-16.4l0-0.6
				c-0.3-12.3-3-21.9-7.9-29.9c-4.6-7.6-11.2-14-19.6-19.9c-6.1,0.5-14.3,5-24.3,10.4c-6.7,3.6-14,7.6-22.3,11.3
				c3.7,3.7,7.6,5.8,11.9,6.8c7.5,1.7,16.4,0.2,26.2-3.1c4.7-1.6,9.8,1,11.3,5.6c1.6,4.7-1,9.8-5.6,11.3
				c-12.8,4.3-24.8,6.1-35.9,3.6c-11.7-2.7-21.7-9.9-29.7-23.8c-0.3-0.5-0.5-0.9-0.7-1.4c-1.7-4.6,0.7-9.8,5.4-11.5
				c11.7-4.2,21.9-9.8,30.8-14.6c13.8-7.5,25-13.6,36.4-12.6v0c1.5,0.1,3,0.6,4.3,1.5c11.4,7.8,20.6,16.3,27,27
				c6.4,10.6,10,23.1,10.4,38.9c0,0.3,0.1,0.6,0.1,0.9c0,5.7-0.8,12.1-1.5,18.5c-0.6,4.9-1.2,9.8-1.3,14.1c2.9,5,4.4,7.8,5.8,10.2
				C298,246.5,299.7,249.5,302.6,254.5z"/>
			<path class="st3" d="M122.2,193.2c-1.9-4.5,0.2-9.8,4.7-11.7c4.5-1.9,9.8,0.2,11.7,4.7c2,4.6,5,8,8.2,10.4
				c5,3.8,10.3,5.4,13.1,5.7c0.7,0.1,1.6,0,2.5-0.4c0.2-0.1,0.4-0.1,0.4-0.2c0.1-0.2-0.2,0.2-0.2,0c-0.3-1.6-1.6-4-4.3-7.2
				c-3.2-3.8-2.7-9.4,1.1-12.6c3.6-3.1,9-2.8,12.3,0.7c5.4,5.3,10.5,7.6,14.5,7.8c1.4,0.1,2.5-0.2,3.3-0.6c0.5-0.3,0.8-0.6,1-0.9
				c0.4-0.9,0.3-2.2-0.3-3.9c-1.7-4.6,0.6-9.8,5.3-11.5c4.6-1.7,9.8,0.6,11.5,5.3c2.4,6.5,2.1,12.6-0.2,17.6c-1.8,4-4.9,7.2-8.8,9.3
				c-3.6,1.9-7.8,2.9-12.5,2.7c-1.8-0.1-3.7-0.3-5.6-0.8c-0.4,1.3-1,2.6-1.7,3.7c-2,3.3-5,5.6-8.3,7.1c-4,1.8-8.6,2.3-12.2,1.8
				c-4.6-0.7-13.5-3.2-21.5-9.3C130.6,206.8,125.6,201,122.2,193.2z"/>
			<polygon class="st3" points="151.3,157.9 180.1,193.2 166.2,204.5 137.4,169.3 			"/>
			<polygon class="st3" points="176.8,138.5 197.7,166.4 183.4,177.1 162.5,149.2 			"/>
			<polygon class="st3" points="203.6,120.9 223,146.3 208.8,157.1 189.3,131.8 			"/>
			<path class="st3" d="M290.1,239.4c-5.3,6.5-22.4,19-40.2,29.9c-15.4,9.3-31.7,17.7-42.1,20.2l-4.2-17.4c8.5-2.1,23-9.6,37.1-18.1
				c16.3-9.9,31.5-20.8,35.6-25.9L290.1,239.4z"/>
			<path class="st3" d="M303.5,260.8c-4.9,8.8-19.6,20.2-35.7,30.2c-18.8,11.7-40.2,22-49.9,23.6l-2.9-17.7
				c7.6-1.3,26.3-10.5,43.4-21.2c13.9-8.7,26.3-17.9,29.6-23.8L303.5,260.8z"/>
			<path class="st3" d="M233.4,178.6c4.6-1.8,9.8,0.4,11.6,5c1.8,4.6-0.4,9.8-5,11.6c-22.8,9.1-33.4,15.4-42.9,38.5
				c-3.5,8.5-10.4,7-8.1-2.2C197.4,198.8,204.2,192.1,233.4,178.6z"/>
		</g>
	</g>
</g>
<path class="st4" d="M212.5,38L212.5,38c89.3,0,162.5,73.1,162.5,162.4v0c0,89.3-73.1,162.4-162.4,162.4h0
	c-89.3,0-162.4-73.1-162.4-162.4v0C50.1,111.1,123.1,38,212.5,38z"/>
</svg>
