<?xml version="1.0" encoding="utf-8"?>
<!-- Generator: Adobe Illustrator 22.1.0, SVG Export Plug-In . SVG Version: 6.00 Build 0)  -->
<svg version="1.1"
	 id="Layer_1" text-rendering="geometricPrecision" image-rendering="optimizeQuality" shape-rendering="geometricPrecision"
	 xmlns="http://www.w3.org/2000/svg" xmlns:xlink="http://www.w3.org/1999/xlink" x="0px" y="0px" viewBox="0 0 425 476"
	 style="enable-background:new 0 0 425 476;" xml:space="preserve">
<style type="text/css">
	.st0{fill:#2782B9;}
	.st1{fill:#FFFFFF;}
	.st2{clip-path:url(#SVGID_2_);}
	.st3{fill:#FEFEFE;}
	.st4{fill:none;}
</style>
<g>
	<path class="st0" d="M167,440.7c-47.6-30.5-88-68.3-116.9-109.1C21.3,290.8,6,249.6,6,212.6c0-55.2,21.5-107,60.5-146
		c39-39,90.9-60.5,146-60.5c55.2,0,107,21.5,146,60.5c39,39,60.5,90.9,60.5,146c0,47.9-14.9,90-45.4,128.7
		c-25.8,32.6-62.4,63.3-118.7,99.4l-42.5,28L167,440.7z"/>
	<path class="st1" d="M212.5,12.1c27.1,0,53.3,5.3,78,15.8c23.9,10.1,45.3,24.6,63.7,43c18.4,18.4,32.9,39.9,43,63.7
		c10.5,24.7,15.8,51,15.8,78c0,24.3-3.8,46.5-11.6,67.8c-7.3,20-18,38.7-32.6,57.2c-25.4,32.1-61.5,62.3-117.2,98.1l-0.1,0l-0.1,0
		l-39.2,25.9l-42-26c-47-30.2-86.8-67.3-115.2-107.5c-28.2-39.8-43-79.8-43-115.5c0-27.1,5.3-53.3,15.8-78
		c10.1-23.9,24.6-45.3,43-63.7c18.4-18.4,39.9-32.9,63.7-43C159.2,17.4,185.4,12.1,212.5,12.1 M212.5,0.1
		c-58.7,0-111.8,23.8-150.3,62.2C23.8,100.8,0,154,0,212.6C0,291,66,383,163.9,445.8l48.6,30.1l45.6-30.1
		C356,383,425,317.7,425,212.6c0-58.7-23.8-111.8-62.2-150.3C324.3,23.9,271.2,0.1,212.5,0.1L212.5,0.1z"/>
</g>
<g>
	<defs>
		<path id="SVGID_1_" d="M212.5,72L212.5,72c77,0,140,63,140,140v0c0,77-63,140-140,140h0c-77,0-140-63-140-140v0
			C72.5,135,135.5,72,212.5,72z"/>
	</defs>
	<clipPath id="SVGID_2_">
		<use xlink:href="#SVGID_1_"  style="overflow:visible;"/>
	</clipPath>
	<g class="st2">
		<g>
			<path class="st3" d="M157.6,224.8l16.4,72.7l99.1-22.4l-16.4-72.7L157.6,224.8z M158.5,310.1L138.1,220
				c-1.1-4.8,1.9-9.6,6.8-10.7L261.5,183c4.8-1.1,9.6,1.9,10.7,6.8l20.3,90.1c1.1,4.8-1.9,9.6-6.8,10.7l-116.6,26.3
				C164.3,317.9,159.5,314.9,158.5,310.1z"/>
			<path class="st3" d="M244,136.8c2.3,4.4,0.6,9.8-3.8,12.1c-4.4,2.3-9.8,0.6-12.1-3.8c-8.5-16.2-23.3-21.7-37.6-19.9
				c-5.8,0.7-11.5,2.5-16.8,5.3c-5.3,2.8-10.1,6.5-14,10.8c-9.5,10.8-13.4,26-4.9,42.2l11.3,21.5c2.3,4.4,0.6,9.8-3.7,12.1
				c-4.4,2.3-9.8,0.6-12.1-3.8l-11.3-21.5c-12.5-23.9-6.8-46.4,7.3-62.4c5.3-6,11.9-11.1,19-14.8c7.2-3.8,15.1-6.3,23.1-7.3
				C209.7,104.8,231.5,112.9,244,136.8z"/>
			<polygon class="st3" points="230,201.5 222.1,229.9 238.9,234.8 209,275.8 209.7,249.8 198.2,246.7 198.5,205.1 			"/>
		</g>
	</g>
</g>
<path class="st4" d="M212.5,37.7L212.5,37.7c89.3,0,162.5,73.1,162.5,162.4v0c0,89.3-73.1,162.4-162.4,162.4h0
	c-89.3,0-162.4-73.1-162.4-162.4v0C50.1,110.8,123.1,37.7,212.5,37.7z"/>
</svg>
