<?xml version="1.0" encoding="utf-8"?>
<!-- Generator: Adobe Illustrator 22.1.0, SVG Export Plug-In . SVG Version: 6.00 Build 0)  -->
<svg version="1.1"
	 id="Layer_1" text-rendering="geometricPrecision" image-rendering="optimizeQuality" shape-rendering="geometricPrecision"
	 xmlns="http://www.w3.org/2000/svg" xmlns:xlink="http://www.w3.org/1999/xlink" x="0px" y="0px" viewBox="0 0 425 476"
	 style="enable-background:new 0 0 425 476;" xml:space="preserve">
<style type="text/css">
	.st0{fill:#2782B9;}
	.st1{fill:#FFFFFF;}
	.st2{clip-path:url(#SVGID_2_);}
	.st3{fill:#FEFEFE;}
	.st4{fill:none;}
</style>
<g>
	<path class="st0" d="M167,440.7c-47.6-30.5-88-68.3-116.9-109.1C21.3,290.8,6,249.6,6,212.6c0-55.2,21.5-107,60.5-146
		c39-39,90.9-60.5,146-60.5c55.2,0,107,21.5,146,60.5c39,39,60.5,90.9,60.5,146c0,47.9-14.9,90-45.4,128.7
		c-25.8,32.6-62.4,63.3-118.7,99.4l-42.5,28L167,440.7z"/>
	<path class="st1" d="M212.5,12.1c27.1,0,53.3,5.3,78,15.8c23.9,10.1,45.3,24.6,63.7,43c18.4,18.4,32.9,39.9,43,63.7
		c10.5,24.7,15.8,51,15.8,78c0,24.3-3.8,46.5-11.6,67.8c-7.3,20-18,38.7-32.6,57.2c-25.4,32.1-61.5,62.3-117.2,98.1l-0.1,0l-0.1,0
		l-39.2,25.9l-42-26c-47-30.2-86.8-67.3-115.2-107.5c-28.2-39.8-43-79.8-43-115.5c0-27.1,5.3-53.3,15.8-78
		c10.1-23.9,24.6-45.3,43-63.7c18.4-18.4,39.9-32.9,63.7-43C159.2,17.4,185.4,12.1,212.5,12.1 M212.5,0.1
		c-58.7,0-111.8,23.8-150.3,62.2C23.8,100.8,0,154,0,212.6C0,291,66,383,163.9,445.8l48.6,30.1l45.6-30.1
		C356,383,425,317.7,425,212.6c0-58.7-23.8-111.8-62.2-150.3C324.3,23.9,271.2,0.1,212.5,0.1L212.5,0.1z"/>
</g>
<g>
	<defs>
		<path id="SVGID_1_" d="M212.5,72L212.5,72c77,0,140,63,140,140v0c0,77-63,140-140,140h0c-77,0-140-63-140-140v0
			C72.5,135,135.5,72,212.5,72z"/>
	</defs>
	<clipPath id="SVGID_2_">
		<use xlink:href="#SVGID_1_"  style="overflow:visible;"/>
	</clipPath>
	<g class="st2">
		<g>
			<path class="st3" d="M269.4,171.9c0,0.8,0,6-0.1,12.2c0,3-0.1,5.6-0.2,6.7c-1.6,17.9-6.7,33.8-17.1,45
				c-9.4,10.2-22.6,16.3-40.7,16.3c-17.4,0-30.3-5.8-39.6-15.6c-10.3-10.7-15.7-25.9-17.9-43c-0.1-1.2-0.3-4.4-0.4-8.1
				c-0.2-6.1-0.2-12.1-0.2-13.6h18c0,2.2,0.1,8.8,0.2,13.2c0.1,2.8,0.2,5.3,0.3,6.3c1.7,13.5,5.7,25.2,13,32.8
				c6,6.3,14.7,10,26.7,10c12.6,0,21.5-3.9,27.5-10.5c7.4-8.1,11.2-20.3,12.4-34.4c0-0.5,0.1-2.7,0.1-5.4c0.1-3.3,0.1-10,0.1-12
				H269.4z"/>
			<path class="st3" d="M153.6,178.3c-1.4-5-3.3-10-5.8-14.9c-2.4-5-5.5-10.1-9.1-15.3l-7-10.1l11.8-3.6
				c10.9-3.3,21.7-7.3,32.6-11.8c10.8-4.5,21.3-9.6,31.3-15.1l4.1-2.3l4.2,2.1c10.7,5.4,21.4,10.4,32.2,14.9
				c10.7,4.5,21.4,8.5,32.3,12.2l10.9,3.8l-9.5,14.4c-5.6,8.3-11.4,16.8-13.1,24.8l-17.5-3.7c2-9.5,7-18,12.4-26.2
				c-7.4-2.7-14.9-5.6-22.4-8.8c-9.7-4.1-19.5-8.5-29.2-13.3c-9.5,5.1-19.2,9.6-28.8,13.7c-7.5,3.2-15.3,6.1-23.2,8.8
				c1.4,2.5,2.8,5.1,4.1,7.6c3,6,5.3,12,7,18L153.6,178.3z"/>
			<path class="st3" d="M269.1,174.5c-10.7,12-42.3,15.8-57.8,15.1c-15.5,0.7-48.1-2.1-58.8-14.1
				C176.1,156.3,245.7,153.6,269.1,174.5z"/>
			<polygon class="st3" points="220.6,134.2 220.6,152.3 202.7,152.3 202.7,134.2 			"/>
			<polygon class="st3" points="211.6,130.5 224.4,143.3 211.7,156 198.9,143.2 			"/>
			<path class="st3" d="M177.6,234.6c4.6-1.9,9.8,0.3,11.7,4.8c1.9,4.6-0.3,9.8-4.8,11.7c-6.6,2.7-13,5.2-18.4,7.3
				c-18.6,7.2-21.1,8.1-35.9,30.7c-0.1,0.2-0.2,0.3-0.2,0.4c0,0.1,0,0.2,0.1,0.3c0.2,0.4,0.6,0.9,1.3,1.3c0.7,0.5,1.6,0.8,2.6,1
				c22,4.8,49.9,7.4,78.1,7.5c27.7,0.2,55.9-2,79.2-6.6c1-0.2,1.8-0.5,2.5-0.9c0.7-0.4,1.1-0.8,1.3-1.3c0.1-0.1,0.1-0.3,0.1-0.4
				c0-0.1-0.1-0.3-0.2-0.4c-15-24.2-17.9-25.4-41.5-34.9c-4.3-1.7-9.2-3.7-14-5.7c-4.6-1.9-6.7-7.1-4.8-11.7s7.1-6.7,11.7-4.8
				c5.8,2.4,10,4.1,13.7,5.6c28.4,11.4,32,12.9,50,42.1c1.3,2.1,2.1,4.2,2.6,6.4c0.8,4.1,0.2,8.2-1.7,11.9c-1.7,3.4-4.4,6.3-7.9,8.5
				c-2.5,1.5-5.3,2.7-8.4,3.3c-24.4,4.8-53.7,7-82.7,6.9c-29.6-0.2-58.8-2.9-81.8-7.9c-3.2-0.7-6.2-1.9-8.6-3.6
				c-3.4-2.2-6-5.2-7.6-8.6c-1.7-3.7-2.3-7.7-1.4-11.8c0.5-2.2,1.4-4.4,2.7-6.5c17.9-27.3,21.1-28.5,44.5-37.6
				C164.1,240,169.5,237.9,177.6,234.6z"/>
			<polygon class="st3" points="220.3,246.6 220.3,307.7 202.3,307.7 202.3,246.6 			"/>
			<path class="st3" d="M236.1,294.3c-3-0.1-5.3-2.5-5.2-5.5s2.5-5.3,5.5-5.2c10.8,0.3,34.6-2.2,34.7-2.2c2.9-0.3,5.6,1.9,5.9,4.8
				c0.3,2.9-1.9,5.6-4.8,5.9C272,292.1,247.5,294.6,236.1,294.3z"/>
		</g>
	</g>
</g>
<path class="st4" d="M212.5,40.4L212.5,40.4c89.4,0,162.4,73.1,162.4,162.4v0c0,89.3-73.1,162.4-162.4,162.4h0
	c-89.3,0-162.4-73.1-162.4-162.4v0C50.1,113.5,123.2,40.4,212.5,40.4z"/>
</svg>
