<?xml version="1.0" encoding="utf-8"?>
<!-- Generator: Adobe Illustrator 22.1.0, SVG Export Plug-In . SVG Version: 6.00 Build 0)  -->
<svg version="1.1"
	 id="Layer_1" text-rendering="geometricPrecision" image-rendering="optimizeQuality" shape-rendering="geometricPrecision"
	 xmlns="http://www.w3.org/2000/svg" xmlns:xlink="http://www.w3.org/1999/xlink" x="0px" y="0px" viewBox="0 0 425 476"
	 style="enable-background:new 0 0 425 476;" xml:space="preserve">
<style type="text/css">
	.st0{fill:#2782B9;}
	.st1{fill:#FFFFFF;}
	.st2{fill:#FEFEFE;}
	.st3{fill:none;}
</style>
<g>
	<path class="st0" d="M167,440.7c-47.6-30.5-88-68.3-116.9-109.1C21.3,290.8,6,249.6,6,212.6c0-55.2,21.5-107,60.5-146
		c39-39,90.9-60.5,146-60.5c55.2,0,107,21.5,146,60.5c39,39,60.5,90.9,60.5,146c0,47.9-14.9,90-45.4,128.7
		c-25.8,32.6-62.4,63.3-118.7,99.4l-42.5,28L167,440.7z"/>
	<path class="st1" d="M212.5,12.1c27.1,0,53.3,5.3,78,15.8c23.9,10.1,45.3,24.6,63.7,43c18.4,18.4,32.9,39.9,43,63.7
		c10.5,24.7,15.8,51,15.8,78c0,24.3-3.8,46.5-11.6,67.8c-7.3,20-18,38.7-32.6,57.2c-25.4,32.1-61.5,62.3-117.2,98.1l-0.1,0l-0.1,0
		l-39.2,25.9l-42-26c-47-30.2-86.8-67.3-115.2-107.5c-28.2-39.8-43-79.8-43-115.5c0-27.1,5.3-53.3,15.8-78
		c10.1-23.9,24.6-45.3,43-63.7c18.4-18.4,39.9-32.9,63.7-43C159.2,17.4,185.4,12.1,212.5,12.1 M212.5,0.1
		c-58.7,0-111.8,23.8-150.3,62.2C23.8,100.8,0,154,0,212.6C0,291,66,383,163.9,445.8l48.6,30.1l45.6-30.1
		C356,383,425,317.7,425,212.6c0-58.7-23.8-111.8-62.2-150.3C324.3,23.9,271.2,0.1,212.5,0.1L212.5,0.1z"/>
</g>
<g>
	<g>
		<g>
			<path class="st2" d="M222.5,241.1c1.3-4.8,6.2-7.6,10.9-6.4c4.8,1.3,7.6,6.2,6.4,10.9c-2.9,11.2-9.9,23.5-18.6,34.4
				c-8.9,11.2-19.9,21.2-30.3,27.3c-2.8,1.6-6.3,3.2-9.7,4.3c-3.5,1-7,1.6-10.4,1.2c-4.8-0.5-8.9-2.7-11.5-7.2
				c-0.6-1-1.1-2.1-1.4-3.3c-0.9-2.9-1.4-5-1.7-6.6l-0.5-0.3c-7.1-4.6-7.3-9.8-3.6-15.6c1.6-2.4,3.7-4.2,6-6.1
				c1.4-1.1,3.6,0.9,3.3-0.8c-0.5-2.7-2.2-5.2-4.8-7c-2.5-1.7-5.8-2.6-9.6-2.1c-4.9,0.6-9.4-2.9-10-7.8c-0.1-1.2,0-2.4,0.3-3.5
				c0.1-0.6,0.3-1.2,0.4-1.7c-6.9-0.4-13.3-2.8-14.2-12.7c-0.5-5.3,1.9-9.4,5-14.6c1.3-2.2,2.8-4.8,4.1-7.8c0.7-1.6,1.6-3,2.5-4.5
				l0,0c-4.5-1.2-7.4-5.7-6.5-10.3c0.2-0.8,0.4-1.6,0.8-2.3c0.4-1.1,1.6-4.7,2.6-11.8c-4.1-2.2-7.7-5-6.8-11.5
				c4-27.6,21.3-47.2,42.8-58.5c9.4-4.9,19.7-8.3,29.9-10.1c10.3-1.8,20.7-2,30.4-0.5c18.9,2.7,35.3,11.5,44.3,26.3
				c7.7,4.3,13.5,10.6,17.5,18.1c6.4,12,8.4,27,7.3,42.2c-1.1,14.7-5.2,29.8-11,42.3c-4.7,10-10.7,18.5-17.4,24.1
				c0.7,2.3,1.5,4.6,2.5,7.2c1.7,4.1,3.9,8.8,6.7,14.7c3.4,1.1,7.5,2.4,11.4,3.7l0,0l0,0c4.4,1.4,6.3,2.1,7.4,2.5
				c4.7,1.5,7.3,6.5,5.8,11.2c-1.5,4.7-6.5,7.3-11.2,5.8c-5.4-1.7-6.5-2.1-7.6-2.5l0,0c-5.4-1.8-11.1-3.7-14-4.5
				c-2.6-0.6-4.9-2.2-6.1-4.8c-3.9-7.8-6.8-13.9-9-19.4c-2.3-5.6-3.8-10.5-4.8-15.8c-0.9-3.8,0.9-7.9,4.5-9.9
				c5.6-3,11.1-10.4,15.6-19.9c4.9-10.5,8.4-23.3,9.3-35.9c0.9-12.1-0.5-23.8-5.2-32.5c-2.8-5.1-6.7-9.2-12-11.7
				c-1.7-0.8-3.2-2.2-4.1-4c-5.7-10.8-18-17.3-32.5-19.4c-7.9-1.1-16.4-1-24.9,0.5c-8.5,1.5-17,4.2-24.6,8.2
				c-15.5,8.1-28.1,21.6-32.4,40.2c3.8,2.1,7.1,4.7,6.5,10.7c-0.5,5.6-1.3,10.2-2.1,13.7c5.1,3.3,9.5,9.3,4.1,19.9
				c-0.7,1.4-1.4,2.5-2.1,3.6c-0.5,0.7-0.9,1.4-1.2,2.1c-1.6,3.6-3.5,6.8-5.1,9.6c-1.4,2.4-2.6,3.6-2.6,3.9c0,0.5,0.1,0.8,0.2,0.9
				c0.3-0.5,0.6-0.9,0.9-1.3c0.6-1.3,1.3-3.1,2.1-3.2c1.6-0.1,3.2-0.1,4.7,0c0.4,0,0.7,0,1.1,0.1c4.9,0.6,8.4,5,7.9,10
				c-0.2,1.6-0.4,2.9-0.7,4c3.3,0.9,6.4,2.4,9.1,4.2c6.6,4.5,11.1,11.4,12.4,18.7c1.3,7.2-2.7,11.8-7.1,15.6
				c0.2,0.3,0.3,0.6,0.5,0.9c0.9,1.7,0.9,2.7,1.1,4.2c0.1,0.7,0.2,1.8,0.8,4.3c0.5-0.1,1.1-0.2,1.7-0.4c2-0.6,4.1-1.6,5.9-2.6
				c8.5-5,17.7-13.4,25.3-23C214.5,259.8,220.3,249.8,222.5,241.1z"/>
			<path class="st2" d="M189.3,308.8c-4.7,1.5-9.7-1.2-11.2-5.9c-1.5-4.7,1.2-9.7,5.9-11.2c9.6-3,17.4-1.8,23.5,3.4
				c5.5,4.6,8.8,12,10.2,22.1c0.7,4.9-2.8,9.4-7.7,10.1c-4.9,0.7-9.4-2.8-10.1-7.7c-0.8-5.6-2-9.2-3.9-10.8
				C194.9,307.8,192.6,307.8,189.3,308.8z"/>
			<path class="st2" d="M131.2,189.4c-4.9,0.4-9.3-3.2-9.7-8.2c-0.4-4.9,3.2-9.3,8.2-9.7c12.4-1.1,23.1-2.7,32.2-4.5
				c10.5-2.2,19.2-4.7,25.9-7.3c4.6-1.8,9.8,0.6,11.6,5.2c0.5,1.3,0.7,2.7,0.5,4.1c-0.2,7.1,3,12.6,6,17.8c2.2,3.7,4.3,7.4,5.8,11.4
				c2.3-3.2,5.1-5.3,8-6.8c3.8-1.9,7.7-2.3,11.4-2c4.7,0.4,9,2.1,11.9,3.8c7.5,4.3,11.4,13,11.7,22.5c0.1,3.6-0.2,7.4-1,11
				c-0.9,3.7-2.2,7.3-4,10.5c-0.7,1.2-1.4,2.3-2.2,3.4l0.5,0.2c5.4,2.5,10.8,5.1,15,6.3c4.8,1.4,7.5,6.3,6.2,11.1
				c-1.4,4.8-6.3,7.5-11.1,6.2c-5.3-1.5-11.5-4.4-17.6-7.3c-5.4-2.5-10.8-5.1-15-6.3l0,0c-3.6-1-6.3-4.3-6.5-8.3
				c-0.2-4.9,3.7-9.1,8.6-9.3c2.7-0.1,5-2.1,6.6-4.9c1-1.7,1.7-3.6,2.2-5.6c0.5-2.1,0.7-4.3,0.6-6.3c-0.1-3.6-1.1-6.6-2.8-7.6
				c-1.2-0.7-2.8-1.4-4.5-1.5c-0.8-0.1-1.5,0-2.1,0.3c-0.7,0.3-1.4,1-2.1,2.3l0,0c-1.4,2.5-2.5,6.5-3,12.5h0c0,0.3-0.1,0.7-0.1,1.1
				c-1,4.8-5.7,8-10.6,7l-1.5-0.3c-3.6-0.7-5.1-1-10.4-3.4c-4.5-1.7-6.8-6.7-5.3-11.2c2.7-8.1-0.5-13.7-4-19.6
				c-2.8-4.7-5.6-9.6-7.2-15.7c-5.2,1.5-11.2,3-17.8,4.4C155.4,186.6,144,188.3,131.2,189.4z"/>
			<path class="st2" d="M153.9,214.7c-3,4-8.6,4.8-12.5,1.8c-4-3-4.8-8.6-1.8-12.5c6.8-9.1,25-10.6,25.1-10.6
				c4.7-1.4,11.4-3.1,12.8,1.6c1.4,4.7-0.9,7-5.6,8.5C171.9,203.4,157.1,210.4,153.9,214.7z"/>
			<path class="st2" d="M278.2,291.8c-27.7,23.2-74.1,42.2-74.2,42.3l-6.8-16.5c0.1-0.1,43.9-18,69.5-39.5L278.2,291.8z"/>
			<path class="st2" d="M152,216.7c-3.2,1.2-6.8-0.4-8-3.6c-1.2-3.2,0.4-6.8,3.6-8c7.4-2.8,18.6,3.1,18.6,3.1
				c3.3,0.9,7.8,2.4,6.9,5.7c-0.9,3.3-3.1,3.8-6.4,2.9C166.7,216.7,155.5,215.3,152,216.7z"/>
		</g>
	</g>
	<path class="st3" d="M212.5,72L212.5,72c77,0,140,63,140,140l0,0c0,77-63,140-140,140h0c-77,0-140-63-140-140l0,0
		C72.5,135,135.5,72,212.5,72z"/>
</g>
</svg>
