<?xml version="1.0" encoding="utf-8"?>
<!-- Generator: Adobe Illustrator 22.1.0, SVG Export Plug-In . SVG Version: 6.00 Build 0)  -->
<svg version="1.1"
	 id="Layer_1" text-rendering="geometricPrecision" image-rendering="optimizeQuality" shape-rendering="geometricPrecision"
	 xmlns="http://www.w3.org/2000/svg" xmlns:xlink="http://www.w3.org/1999/xlink" x="0px" y="0px" viewBox="0 0 425 476"
	 style="enable-background:new 0 0 425 476;" xml:space="preserve">
<style type="text/css">
	.st0{fill:#2782B9;}
	.st1{fill:#FFFFFF;}
	.st2{clip-path:url(#SVGID_2_);}
	.st3{fill:#FEFEFE;}
</style>
<g>
	<path class="st0" d="M167,440.7c-47.6-30.5-88-68.3-116.9-109.1C21.3,290.8,6,249.6,6,212.6c0-55.2,21.5-107,60.5-146
		c39-39,90.9-60.5,146-60.5c55.2,0,107,21.5,146,60.5c39,39,60.5,90.9,60.5,146c0,47.9-14.9,90-45.4,128.7
		c-25.8,32.6-62.4,63.3-118.7,99.4l-42.5,28L167,440.7z"/>
	<path class="st1" d="M212.5,12.1c27.1,0,53.3,5.3,78,15.8c23.9,10.1,45.3,24.6,63.7,43c18.4,18.4,32.9,39.9,43,63.7
		c10.5,24.7,15.8,51,15.8,78c0,24.3-3.8,46.5-11.6,67.8c-7.3,20-18,38.7-32.6,57.2c-25.4,32.1-61.5,62.3-117.2,98.1l-0.1,0l-0.1,0
		l-39.2,25.9l-42-26c-47-30.2-86.8-67.3-115.2-107.5c-28.2-39.8-43-79.8-43-115.5c0-27.1,5.3-53.3,15.8-78
		c10.1-23.9,24.6-45.3,43-63.7c18.4-18.4,39.9-32.9,63.7-43C159.2,17.4,185.4,12.1,212.5,12.1 M212.5,0.1
		c-58.7,0-111.8,23.8-150.3,62.2C23.8,100.8,0,154,0,212.6C0,291,66,383,163.9,445.8l48.6,30.1l45.6-30.1
		C356,383,425,317.7,425,212.6c0-58.7-23.8-111.8-62.2-150.3C324.3,23.9,271.2,0.1,212.5,0.1L212.5,0.1z"/>
</g>
<g>
	<g>
		<defs>
			<path id="SVGID_1_" d="M212.5,72L212.5,72c77,0,140,63,140,140v0c0,77-63,140-140,140l0,0c-77,0-140-63-140-140v0
				C72.5,135,135.5,72,212.5,72z"/>
		</defs>
		<clipPath id="SVGID_2_">
			<use xlink:href="#SVGID_1_"  style="overflow:visible;"/>
		</clipPath>
		<g class="st2">
			<g>
				<path class="st3" d="M275.3,194.2c-9.8-9.8-22.7-14.7-35.6-14.7c-3.4,0-4.9,0-8.3,0.7c-1.4-6.9-6.8-13.5-9.8-17.8
					c5.9-1.6,12-2.4,18.1-2.4c17.9,0,35.8,6.8,49.4,20.5c13.6,13.6,20.5,31.5,20.5,49.4c0,17.9-6.8,35.8-20.5,49.4
					c-13.6,13.6-31.5,20.5-49.4,20.5c-17.9,0-35.8-6.8-49.4-20.5c-13.6-13.6-20.5-31.5-20.5-49.4c0-17.9,6.8-35.8,20.5-49.4
					c0.3-0.3,0.6-0.6,0.9-0.9c4.8,4.3,9.2,11.4,11.8,15.9c-9.1,9.7-13.6,22-13.6,34.4c0,12.9,4.9,25.8,14.7,35.6
					c9.8,9.8,22.7,14.7,35.6,14.7c12.9,0,25.8-4.9,35.6-14.7c9.8-9.8,14.7-22.7,14.7-35.6C290.1,216.9,285.2,204,275.3,194.2z"/>
				<path class="st3" d="M200.2,178.4c-3-3-6.5-5.5-10.1-7.3l14.3-14.3c3.4,2.2,6.6,4.8,9.6,7.8c11.3,11.3,16.9,26.1,16.9,40.8
					c0,14.8-5.6,29.6-16.9,40.9c-3.5,3.5-6.1,5.7-10.2,8.1c-4.7-5.1-7.6-13.4-7.8-18.3c9.5-6.3,15.3-19.4,15.3-30.6
					C211.4,195.7,207.7,185.9,200.2,178.4z M170.6,263.1c-13.9-0.6-27.6-6.2-38.3-16.9c-11.3-11.3-16.9-26.1-16.9-40.9
					c0-14.8,5.6-29.6,16.9-40.9c3-3,6.3-5.6,9.7-7.8l14.3,14.3c-3.7,1.8-7.1,4.2-10.2,7.3c-7.5,7.5-11.2,17.3-11.2,27
					c0,9.8,3.7,19.6,11.2,27c5.3,5.3,11.7,8.7,18.5,10.2C164.7,249.9,167.7,257.5,170.6,263.1z"/>
				<path class="st3" d="M205.7,145.5L173.2,178l-32.8-32.8l12.9-20.8h39.1L205.7,145.5z M173.2,150.4l6.5-6.5h-12.9L173.2,150.4z"
					/>
				<polygon class="st3" points="288,195.3 208.9,284.7 195.5,272.9 274.6,183.5 				"/>
			</g>
		</g>
	</g>
</g>
</svg>
