<?xml version="1.0" encoding="utf-8"?>
<!-- Generator: Adobe Illustrator 22.1.0, SVG Export Plug-In . SVG Version: 6.00 Build 0)  -->
<svg version="1.1"
	 id="Layer_1" text-rendering="geometricPrecision" image-rendering="optimizeQuality" shape-rendering="geometricPrecision"
	 xmlns="http://www.w3.org/2000/svg" xmlns:xlink="http://www.w3.org/1999/xlink" x="0px" y="0px" viewBox="0 0 425 476"
	 style="enable-background:new 0 0 425 476;" xml:space="preserve">
<style type="text/css">
	.st0{fill:#2782B9;}
	.st1{fill:#FFFFFF;}
	.st2{clip-path:url(#SVGID_2_);}
	.st3{fill:#FEFEFE;}
</style>
<g>
	<path class="st0" d="M167,440.7c-47.6-30.5-88-68.3-116.9-109.1C21.3,290.8,6,249.6,6,212.6c0-55.2,21.5-107,60.5-146
		c39-39,90.9-60.5,146-60.5c55.2,0,107,21.5,146,60.5c39,39,60.5,90.9,60.5,146c0,47.9-14.9,90-45.4,128.7
		c-25.8,32.6-62.4,63.3-118.7,99.4l-42.5,28L167,440.7z"/>
	<path class="st1" d="M212.5,12.1c27.1,0,53.3,5.3,78,15.8c23.9,10.1,45.3,24.6,63.7,43c18.4,18.4,32.9,39.9,43,63.7
		c10.5,24.7,15.8,51,15.8,78c0,24.3-3.8,46.5-11.6,67.8c-7.3,20-18,38.7-32.6,57.2c-25.4,32.1-61.5,62.3-117.2,98.1l-0.1,0l-0.1,0
		l-39.2,25.9l-42-26c-47-30.2-86.8-67.3-115.2-107.5c-28.2-39.8-43-79.8-43-115.5c0-27.1,5.3-53.3,15.8-78
		c10.1-23.9,24.6-45.3,43-63.7c18.4-18.4,39.9-32.9,63.7-43C159.2,17.4,185.4,12.1,212.5,12.1 M212.5,0.1
		c-58.7,0-111.8,23.8-150.3,62.2C23.8,100.8,0,154,0,212.6C0,291,66,383,163.9,445.8l48.6,30.1l45.6-30.1
		C356,383,425,317.7,425,212.6c0-58.7-23.8-111.8-62.2-150.3C324.3,23.9,271.2,0.1,212.5,0.1L212.5,0.1z"/>
</g>
<g>
	<g>
		<defs>
			<path id="SVGID_1_" d="M212.5,72L212.5,72c77,0,140,63,140,140v0c0,77-63,140-140,140h0c-77,0-140-63-140-140v0
				C72.5,135,135.5,72,212.5,72z"/>
		</defs>
		<clipPath id="SVGID_2_">
			<use xlink:href="#SVGID_1_"  style="overflow:visible;"/>
		</clipPath>
		<g class="st2">
			<g>
				<path class="st3" d="M219.8,297c-4.4,3.2-9.3,5.8-14.6,7.5l0,0c-5.1,1.7-10.6,2.6-16.2,2.6h-3.4c-14.4,0-27.4-5.9-36.9-15.3
					c-9.5-9.5-15.3-22.5-15.3-36.9v-85.8c0-14.4,5.9-27.4,15.3-36.9c9.5-9.5,22.5-15.3,36.9-15.3h3.4c14.4,0,27.4,5.9,36.9,15.3
					c9.5,9.5,15.3,22.5,15.3,36.9v9.4h-17.9v-9.4c0-9.4-3.9-18-10.1-24.2c-6.2-6.2-14.8-10.1-24.2-10.1h-3.4
					c-9.4,0-18,3.9-24.2,10.1s-10.1,14.8-10.1,24.2v85.8c0,9.4,3.9,18,10.1,24.2c6.2,6.2,14.8,10.1,24.2,10.1h3.4
					c3.7,0,7.3-0.6,10.6-1.7h0c3.5-1.1,6.7-2.8,9.6-5L219.8,297z"/>
				<polygon class="st3" points="142.6,203 190.4,203 190.4,221 142.6,221 				"/>
				<path class="st3" d="M247.8,168.2c19.2,0,36.5,7.8,49.1,20.3c12.6,12.6,20.3,29.9,20.3,49.1s-7.8,36.5-20.3,49.1
					c-12.6,12.6-29.9,20.3-49.1,20.3s-36.5-7.8-49.1-20.3c-12.6-12.6-20.3-29.9-20.3-49.1s7.8-36.5,20.3-49.1
					S228.6,168.2,247.8,168.2z M284.2,201.3c-9.3-9.3-22.2-15.1-36.4-15.1s-27.1,5.8-36.4,15.1c-9.3,9.3-15.1,22.2-15.1,36.4
					s5.8,27.1,15.1,36.4c9.3,9.3,22.2,15.1,36.4,15.1s27.1-5.8,36.4-15.1c9.3-9.3,15.1-22.2,15.1-36.4S293.5,210.6,284.2,201.3z"/>
				<path class="st3" d="M213,262.1c-4.5,1.9-9.8-0.2-11.7-4.8c-1.9-4.5,0.2-9.8,4.8-11.7l76.6-32.3c4.5-1.9,9.8,0.2,11.7,4.8
					c1.9,4.5-0.2,9.8-4.8,11.7L213,262.1z"/>
				<path class="st3" d="M171.9,170.2c0,3-2.4,5.4-5.4,5.4c-3,0-5.4-2.4-5.4-5.4c0-6.9,2.8-13.1,7.3-17.6l0.3-0.3
					c4.5-4.3,10.6-7,17.3-7c3,0,5.4,2.4,5.4,5.4c0,3-2.4,5.4-5.4,5.4c-3.8,0-7.2,1.5-9.8,3.9l-0.2,0.2
					C173.5,162.7,171.9,166.3,171.9,170.2z"/>
			</g>
		</g>
	</g>
</g>
</svg>
