<?xml version="1.0" encoding="utf-8"?>
<!-- Generator: Adobe Illustrator 22.1.0, SVG Export Plug-In . SVG Version: 6.00 Build 0)  -->
<svg version="1.1"
	 id="Layer_1" text-rendering="geometricPrecision" image-rendering="optimizeQuality" shape-rendering="geometricPrecision"
	 xmlns="http://www.w3.org/2000/svg" xmlns:xlink="http://www.w3.org/1999/xlink" x="0px" y="0px" viewBox="0 0 425 476"
	 style="enable-background:new 0 0 425 476;" xml:space="preserve">
<style type="text/css">
	.st0{fill:#2782B9;}
	.st1{fill:#FFFFFF;}
	.st2{clip-path:url(#SVGID_2_);}
	.st3{fill:#FEFEFE;}
</style>
<g>
	<path class="st0" d="M167,440.7c-47.6-30.5-88-68.3-116.9-109.1C21.3,290.8,6,249.6,6,212.6c0-55.2,21.5-107,60.5-146
		c39-39,90.9-60.5,146-60.5c55.2,0,107,21.5,146,60.5c39,39,60.5,90.9,60.5,146c0,47.9-14.9,90-45.4,128.7
		c-25.8,32.6-62.4,63.3-118.7,99.4l-42.5,28L167,440.7z"/>
	<path class="st1" d="M212.5,12.1c27.1,0,53.3,5.3,78,15.8c23.9,10.1,45.3,24.6,63.7,43c18.4,18.4,32.9,39.9,43,63.7
		c10.5,24.7,15.8,51,15.8,78c0,24.3-3.8,46.5-11.6,67.8c-7.3,20-18,38.7-32.6,57.2c-25.4,32.1-61.5,62.3-117.2,98.1l-0.1,0l-0.1,0
		l-39.2,25.9l-42-26c-47-30.2-86.8-67.3-115.2-107.5c-28.2-39.8-43-79.8-43-115.5c0-27.1,5.3-53.3,15.8-78
		c10.1-23.9,24.6-45.3,43-63.7c18.4-18.4,39.9-32.9,63.7-43C159.2,17.4,185.4,12.1,212.5,12.1 M212.5,0.1
		c-58.7,0-111.8,23.8-150.3,62.2C23.8,100.8,0,154,0,212.6C0,291,66,383,163.9,445.8l48.6,30.1l45.6-30.1
		C356,383,425,317.7,425,212.6c0-58.7-23.8-111.8-62.2-150.3C324.3,23.9,271.2,0.1,212.5,0.1L212.5,0.1z"/>
</g>
<g>
	<g>
		<defs>
			<path id="SVGID_1_" d="M212.5,72L212.5,72c77,0,140,63,140,140l0,0c0,77-63,140-140,140l0,0c-77,0-140-63-140-140l0,0
				C72.5,135,135.5,72,212.5,72z"/>
		</defs>
		<clipPath id="SVGID_2_">
			<use xlink:href="#SVGID_1_"  style="overflow:visible;"/>
		</clipPath>
		<g class="st2">
			<g>
				<path class="st3" d="M125.8,156c-4.9-0.2-8.8-4.4-8.6-9.3c0.2-4.9,4.4-8.8,9.3-8.6c2.1,0.1,3.9,0.2,5.8,0.3
					c7.2,0.5,17.4,1.1,27.3,0.5c12.2-0.8,23.4-1.7,33.7-2.6c29-2.5,49.9-4.2,87.9-1.1l0,0c2.7,0.2,5.2,1,7.5,2.2
					c3.9,2.1,7.1,5.6,9.1,9.8c1.9,3.9,2.8,8.5,2.3,13.4c-0.2,1.8-0.5,3.7-1.1,5.6c2.6,3.9,4.6,9.1,4.9,14.7
					c0.2,4.3-0.5,8.8-2.5,13.4c0.6,0.8,1.1,1.6,1.6,2.5c2.3,4,4,9,4.5,14c0.5,5.4-0.2,11-2.8,15.7c-0.3,0.6-0.7,1.2-1.1,1.8
					c1,2.7,1.6,5.8,1.6,8.9c0.1,2.9-0.2,6-0.9,8.8c-0.7,3-1.9,6-3.6,8.7c-3.4,5.3-8.6,8.9-15.7,9.1l-0.2,0v0
					c-6.8,0-13.2-0.4-18.8-0.7c-10.5-0.6-17.5-1-19.5,1.3c-0.5,0.5,1.1,0.9,1.7,4.2c0.9,4.8,2.9,11.1,5.9,18.5c1.7,4,3,8.4,3.5,12.9
					c0.5,4.2,0.3,8.5-1,12.5c-1.8,5.9-4.3,9.8-7.2,12.3c-3.8,3.3-8,4.1-12.4,3.1c-3.3-0.8-6.3-2.7-8.9-5.3
					c-4.5-4.5-8.4-11.9-10.4-18.5c-2.6-8.5-11.5-15.3-19.6-21.6c-5.3-4-10.3-7.9-14.3-12.5c-5.7-6.5-9-12-11.6-16.4
					c-3.2-5.4-5-8.4-12.2-8.5c-16.3-0.3-33,0.2-33.1,0.2c-4.9,0.1-9-3.8-9.1-8.8c-0.1-4.9,3.8-9,8.8-9.1c0,0,17.1-0.5,33.7-0.2
					c17.2,0.3,20.8,6.4,27.3,17.2c2.3,3.8,5.1,8.5,9.7,13.8c2.8,3.2,7.2,6.6,11.8,10.1c10.3,8,21.5,16.5,25.8,30.4
					c1,3.3,2.6,6.7,4.4,9.2l0.3-0.8c0.5-1.5,0.5-3.3,0.3-5.2c-0.3-2.6-1.2-5.4-2.2-8c-3.6-8.5-5.8-16-7-22
					c-1.7-8.8-0.8-15.7,2.3-19.2c7.8-9.1,18.3-8.5,34.1-7.5c5.1,0.3,10.8,0.6,17.7,0.6c0.4-0.1,0.7-0.5,1-0.9
					c0.5-0.8,0.9-1.8,1.2-3.1c0.3-1.4,0.5-2.9,0.4-4.2c-0.1-1.9,0-3.1,0-3.2c-1.1-0.8-2.1-1.8-2.9-3c-2.5-4.3-1-9.7,3.3-12.2
					c0.5-0.3,0.9-0.7,1.2-1.3c0.7-1.4,0.9-3.3,0.7-5.4v0c-0.2-2.5-1-4.9-2.1-6.8c-0.6-1-1.1-1.7-1.5-2c-0.5-0.3-1-0.6-1.4-0.9
					c-3.9-3.1-4.6-8.7-1.5-12.6c2.3-2.9,3.1-5.8,3-8.4c-0.2-3.1-1.5-5.6-2.8-6.8c-3.4-2.6-4.5-7.4-2.4-11.3c0.8-1.5,1.3-3.1,1.4-4.5
					c0.1-1.6-0.1-3.1-0.7-4.3c-0.4-0.8-0.9-1.4-1.4-1.7c-0.1-0.1-0.3-0.1-0.5-0.1c-36.4-3-56.8-1.3-85,1.1c-9.7,0.8-20.3,1.7-34,2.6
					c-11,0.7-21.8,0-29.5-0.5C128.9,156.1,126.8,156,125.8,156z"/>
				<path class="st3" d="M150.5,147.3c0-5,4-9,9-9c5,0,9,4,9,9v91.1c0,5-4,9-9,9c-5,0-9-4-9-9V147.3z"/>
				<path class="st3" d="M117.5,147.3c0-5,4-9,9-9s9,4,9,9v91.1c0,5-4,9-9,9s-9-4-9-9V147.3z"/>
			</g>
		</g>
	</g>
</g>
</svg>
