<?xml version="1.0" encoding="utf-8"?>
<!-- Generator: Adobe Illustrator 22.1.0, SVG Export Plug-In . SVG Version: 6.00 Build 0)  -->
<svg version="1.1"
	 id="Layer_1" text-rendering="geometricPrecision" image-rendering="optimizeQuality" shape-rendering="geometricPrecision"
	 xmlns="http://www.w3.org/2000/svg" xmlns:xlink="http://www.w3.org/1999/xlink" x="0px" y="0px" viewBox="0 0 425 476"
	 style="enable-background:new 0 0 425 476;" xml:space="preserve">
<style type="text/css">
	.st0{fill:#2782B9;}
	.st1{fill:#FFFFFF;}
	.st2{clip-path:url(#SVGID_2_);}
	.st3{fill:#FEFEFE;}
	.st4{fill:none;}
</style>
<g>
	<path class="st0" d="M167,440.7c-47.6-30.5-88-68.3-116.9-109.1C21.3,290.8,6,249.6,6,212.6c0-55.2,21.5-107,60.5-146
		c39-39,90.9-60.5,146-60.5c55.2,0,107,21.5,146,60.5c39,39,60.5,90.9,60.5,146c0,47.9-14.9,90-45.4,128.7
		c-25.8,32.6-62.4,63.3-118.7,99.4l-42.5,28L167,440.7z"/>
	<path class="st1" d="M212.5,12.1c27.1,0,53.3,5.3,78,15.8c23.9,10.1,45.3,24.6,63.7,43c18.4,18.4,32.9,39.9,43,63.7
		c10.5,24.7,15.8,51,15.8,78c0,24.3-3.8,46.5-11.6,67.8c-7.3,20-18,38.7-32.6,57.2c-25.4,32.1-61.5,62.3-117.2,98.1l-0.1,0l-0.1,0
		l-39.2,25.9l-42-26c-47-30.2-86.8-67.3-115.2-107.5c-28.2-39.8-43-79.8-43-115.5c0-27.1,5.3-53.3,15.8-78
		c10.1-23.9,24.6-45.3,43-63.7c18.4-18.4,39.9-32.9,63.7-43C159.2,17.4,185.4,12.1,212.5,12.1 M212.5,0.1
		c-58.7,0-111.8,23.8-150.3,62.2C23.8,100.8,0,154,0,212.6C0,291,66,383,163.9,445.8l48.6,30.1l45.6-30.1
		C356,383,425,317.7,425,212.6c0-58.7-23.8-111.8-62.2-150.3C324.3,23.9,271.2,0.1,212.5,0.1L212.5,0.1z"/>
</g>
<g>
	<g>
		<defs>
			<path id="SVGID_1_" d="M212.5,72L212.5,72c77,0,140,63,140,140v0c0,77-63,140-140,140l0,0c-77,0-140-63-140-140v0
				C72.5,135,135.5,72,212.5,72z"/>
		</defs>
		<clipPath id="SVGID_2_">
			<use xlink:href="#SVGID_1_"  style="overflow:visible;"/>
		</clipPath>
		<g class="st2">
			<g>
				<path class="st3" d="M158.4,176.5l23.5-13.2v-41.9c0-4.3,3.1-8,7.2-8.8c7.9-1.9,15.8-2.8,23.7-2.8c8,0,15.8,1,23.4,3
					c4,1,6.7,4.7,6.7,8.7h0v41.9l23.5,13.2c3.1,1.8,5.6,4.2,7.4,7.2c1.8,3,2.7,6.4,2.7,10v98c0,5.4-2.2,10.4-5.8,14
					c-3.5,3.5-8.3,5.7-13.6,5.8c-14.7,1.8-29.5,2.7-44.4,2.7c-15.1,0-30.1-1-45.2-2.7c-5.3-0.1-10-2.3-13.5-5.8
					c-3.6-3.6-5.8-8.5-5.8-14v-98c0-3.6,0.9-7,2.7-10C152.8,180.8,155.3,178.3,158.4,176.5z M195.3,176.4l-28.1,15.8
					c-0.4,0.2-0.6,0.4-0.7,0.6c-0.1,0.2-0.2,0.5-0.2,0.9v98c0,0.5,0.2,0.9,0.5,1.3c0.3,0.3,0.8,0.5,1.3,0.5v0c0.3,0,0.7,0,1,0.1
					c14.8,1.7,29.4,2.6,43.7,2.7c14.2,0,28.2-0.8,42.2-2.5c0.6-0.1,1.3-0.2,1.9-0.2c0.5,0,0.9-0.2,1.3-0.5c0.3-0.3,0.5-0.8,0.5-1.3
					v-98c0-0.4-0.1-0.7-0.2-0.9c-0.1-0.2-0.4-0.4-0.7-0.6l-27.7-15.5c-3-1.5-5-4.5-5-8.1v-39.9c-4-0.7-8.1-1-12.2-1
					c-4.2,0-8.5,0.4-12.9,1.1v39.8h0C199.9,171.7,198.3,174.8,195.3,176.4z"/>
				<path class="st3" d="M182.3,253.3c-4.2-2.5-5.6-8-3.1-12.3c2.5-4.2,8-5.6,12.3-3.1l21,12.6l21-12.6c4.2-2.5,9.7-1.2,12.3,3.1
					c2.5,4.2,1.2,9.7-3.1,12.3l-12.8,7.6l12.8,7.6c4.2,2.5,5.6,8,3.1,12.3c-2.5,4.2-8,5.6-12.3,3.1l-21-12.6l-21,12.6
					c-4.2,2.5-9.7,1.2-12.3-3.1c-2.5-4.2-1.2-9.7,3.1-12.3l12.8-7.6L182.3,253.3z"/>
				<path class="st3" d="M188.9,142.4c8-1.9,16-2.9,23.9-2.9c8,0,15.8,1,23.4,3l-4.5,17.3c-6.2-1.6-12.6-2.4-19-2.4
					c-6.4,0-13,0.9-19.8,2.5L188.9,142.4z"/>
				<path class="st3" d="M212.5,185.5c7.3,0,14,3,18.8,7.8l0,0c4.8,4.8,7.8,11.5,7.8,18.8c0,7.3-3,14-7.8,18.8l0,0
					c-4.8,4.8-11.5,7.8-18.8,7.8c-7.4,0-14-3-18.8-7.8c-4.8-4.8-7.8-11.5-7.8-18.8c0-7.4,3-14,7.8-18.8l0,0
					C198.5,188.5,205.2,185.5,212.5,185.5z M218.6,206c-1.5-1.5-3.7-2.5-6.1-2.5c-2.4,0-4.6,1-6.1,2.5v0c-1.6,1.6-2.5,3.7-2.5,6.1
					c0,2.4,1,4.6,2.5,6.1c1.6,1.6,3.7,2.5,6.1,2.5c2.4,0,4.6-1,6.1-2.5h0c1.5-1.5,2.5-3.7,2.5-6.1
					C221.2,209.7,220.2,207.6,218.6,206L218.6,206z"/>
			</g>
		</g>
	</g>
	<path class="st4" d="M212.5,72L212.5,72c77,0,140,63,140,140v0c0,77-63,140-140,140l0,0c-77,0-140-63-140-140v0
		C72.5,135,135.5,72,212.5,72z"/>
</g>
</svg>
