<?xml version="1.0" encoding="utf-8"?>
<!-- Generator: Adobe Illustrator 22.1.0, SVG Export Plug-In . SVG Version: 6.00 Build 0)  -->
<svg version="1.1"
	 id="Layer_1" text-rendering="geometricPrecision" image-rendering="optimizeQuality" shape-rendering="geometricPrecision"
	 xmlns="http://www.w3.org/2000/svg" xmlns:xlink="http://www.w3.org/1999/xlink" x="0px" y="0px" viewBox="0 0 425 476"
	 style="enable-background:new 0 0 425 476;" xml:space="preserve">
<style type="text/css">
	.st0{fill:#2782B9;}
	.st1{fill:#FFFFFF;}
	.st2{clip-path:url(#SVGID_2_);}
	.st3{fill:#FEFEFE;}
</style>
<g>
	<path class="st0" d="M167,440.7c-47.6-30.5-88-68.3-116.9-109.1C21.3,290.8,6,249.6,6,212.6c0-55.2,21.5-107,60.5-146
		c39-39,90.9-60.5,146-60.5c55.2,0,107,21.5,146,60.5c39,39,60.5,90.9,60.5,146c0,47.9-14.9,90-45.4,128.7
		c-25.8,32.6-62.4,63.3-118.7,99.4l-42.5,28L167,440.7z"/>
	<path class="st1" d="M212.5,12.1c27.1,0,53.3,5.3,78,15.8c23.9,10.1,45.3,24.6,63.7,43c18.4,18.4,32.9,39.9,43,63.7
		c10.5,24.7,15.8,51,15.8,78c0,24.3-3.8,46.5-11.6,67.8c-7.3,20-18,38.7-32.6,57.2c-25.4,32.1-61.5,62.3-117.2,98.1l-0.1,0l-0.1,0
		l-39.2,25.9l-42-26c-47-30.2-86.8-67.3-115.2-107.5c-28.2-39.8-43-79.8-43-115.5c0-27.1,5.3-53.3,15.8-78
		c10.1-23.9,24.6-45.3,43-63.7c18.4-18.4,39.9-32.9,63.7-43C159.2,17.4,185.4,12.1,212.5,12.1 M212.5,0.1
		c-58.7,0-111.8,23.8-150.3,62.2C23.8,100.8,0,154,0,212.6C0,291,66,383,163.9,445.8l48.6,30.1l45.6-30.1
		C356,383,425,317.7,425,212.6c0-58.7-23.8-111.8-62.2-150.3C324.3,23.9,271.2,0.1,212.5,0.1L212.5,0.1z"/>
</g>
<g>
	<g>
		<defs>
			<path id="SVGID_1_" d="M212.5,72L212.5,72c77,0,140,63,140,140v0c0,77-63,140-140,140h0c-77,0-140-63-140-140v0
				C72.5,135,135.5,72,212.5,72z"/>
		</defs>
		<clipPath id="SVGID_2_">
			<use xlink:href="#SVGID_1_"  style="overflow:visible;"/>
		</clipPath>
		<g class="st2">
			<g>
				<path class="st3" d="M151.9,290.6c0-4.8,3.9-8.7,8.7-8.7c4.8,0,8.7,3.9,8.7,8.7v14.5c0,4.8-3.9,8.7-8.7,8.7h-35.4
					c-4.8,0-8.7-3.9-8.7-8.7v-27.5c0-1.2-0.2-4-0.5-6.8c-0.3-3.2-0.5-6.4-0.5-8.2c0-8.7,0.5-18.3,1.4-28c0.9-9.7,2.3-19.4,3.9-28.2
					c0.9-4.7,5.4-7.8,10.2-7c4.7,0.9,7.8,5.4,7,10.2c-1.6,8.5-2.9,17.6-3.7,26.7c-0.8,8.8-1.3,17.7-1.3,26.3c0,1.2,0.2,4,0.5,6.8
					c0.3,3.2,0.5,6.4,0.5,8.2v18.8h18V290.6z"/>
				<path class="st3" d="M300.1,282.5c4.8,0.3,8.4,4.5,8.1,9.3c-0.3,4.8-4.5,8.4-9.3,8.1c-29.4-2.1-58.4-3.3-86.9-3.3
					c-28.5-0.1-57.1,1-85.6,3.3c-4.8,0.4-9-3.2-9.4-8s3.2-9,8-9.4c28.6-2.3,57.6-3.4,87-3.3C241.3,279.3,270.7,280.5,300.1,282.5z"
					/>
				<path class="st3" d="M287,209.6c-0.9-4.7,2.2-9.3,7-10.2c4.7-0.9,9.3,2.2,10.2,7c1.7,8.9,3,18.5,3.9,28.2
					c0.9,9.7,1.4,19.2,1.4,28c0,1.8-0.3,5-0.5,8.2c-0.2,2.8-0.5,5.6-0.5,6.8v27.5c0,4.8-3.9,8.7-8.7,8.7h-35.4
					c-4.8,0-8.7-3.9-8.7-8.7v-14.5c0-4.8,3.9-8.7,8.7-8.7s8.7,3.9,8.7,8.7v5.8h18v-18.8c0-1.8,0.3-5,0.5-8.2
					c0.2-2.8,0.5-5.6,0.5-6.8c0-8.6-0.5-17.6-1.3-26.3C289.9,227.2,288.6,218.1,287,209.6z"/>
				<path class="st3" d="M107.8,209.7c-4.7-1.1-7.5-5.8-6.4-10.5c1.1-4.7,5.8-7.5,10.5-6.4c3.2,0.8,6.5,1.8,10,3.1
					c0.8,0.3,1.6,0.6,2.4,1c3.1-7.8,6.4-15.3,9.8-22.7c4.7-10.1,9.6-19.5,14.7-27.9c1.5-2.4,3.9-3.9,6.5-4.2
					c6.3-1,12.3-1.9,18.1-2.5c6-0.7,12-1.2,18.1-1.6c4.8-0.3,8.9,3.3,9.2,8.1c0.3,4.8-3.4,8.9-8.2,9.2c-5.6,0.4-11.3,0.9-17.2,1.6
					c-4.6,0.5-9.2,1.1-13.7,1.8c-4.2,7.2-8.1,14.8-11.8,22.8c-4.3,9.3-8.6,19.5-12.7,30.4l0,0c-0.1,0.4-0.3,0.8-0.5,1.1
					c-2.3,4.2-7.6,5.7-11.8,3.4c-3.3-1.8-6.3-3.2-9.1-4.3C112.9,211.1,110.3,210.3,107.8,209.7z M233.1,155.4
					c-4.8-0.3-8.4-4.4-8.1-9.2c0.3-4.8,4.4-8.4,9.2-8.1c5.9,0.4,11.8,0.9,17.8,1.6c5.8,0.7,11.9,1.5,18.2,2.6c2.6,0.4,4.8,2,6.1,4.1
					l0,0c5.2,8.6,10.1,17.9,14.7,27.9c0.1,0.2,0.2,0.4,0.3,0.7c3.3,7.1,6.5,14.5,9.5,22c0.8-0.3,1.6-0.7,2.4-1
					c3.5-1.4,6.9-2.4,10-3.1c4.7-1.1,9.4,1.7,10.5,6.4c1.1,4.7-1.7,9.4-6.4,10.5c-2.5,0.6-5.1,1.4-7.9,2.5c-2.7,1-5.5,2.3-8.6,4
					c-0.5,0.3-1,0.6-1.6,0.8c-4.5,1.7-9.5-0.5-11.3-5c-4.1-10.7-8.2-20.6-12.4-29.8c-0.1-0.2-0.2-0.4-0.3-0.6
					c-3.8-8.1-7.7-15.8-11.8-22.8c-4.4-0.7-8.9-1.3-13.4-1.8C244.2,156.3,238.6,155.7,233.1,155.4z"/>
				<path class="st3" d="M133.1,200.7c13.4,3.7,25.9,6.1,38.7,7.5c12.8,1.4,26,1.9,40.7,1.9s28-0.5,40.7-1.9
					c12.8-1.4,25.3-3.7,38.7-7.5l4.6,16.8c-14.4,4-27.8,6.5-41.5,8c-13.7,1.5-27.4,2-42.6,2s-28.9-0.5-42.6-2
					c-13.7-1.5-27.1-4-41.5-8L133.1,200.7z"/>
				<path class="st3" d="M152.5,251.8c-4.8-0.4-8.3-4.7-7.8-9.5c0.5-4.8,4.7-8.3,9.5-7.8c2.9,0.3,5.4,0.7,8,1.2
					c3,0.5,6.1,1.1,8.1,1.2c4.8,0.2,8.5,4.3,8.3,9.1c-0.2,4.8-4.3,8.5-9.1,8.3c-3.5-0.2-7-0.8-10.4-1.4
					C156.6,252.4,154.1,251.9,152.5,251.8z M270.9,234.5c4.8-0.4,9,3.1,9.5,7.8c0.5,4.8-3.1,9-7.8,9.5c-1.6,0.1-4.1,0.6-6.6,1
					c-3.4,0.6-6.9,1.2-10.4,1.4c-4.8,0.2-8.9-3.5-9.1-8.3c-0.2-4.8,3.5-8.9,8.3-9.1c2-0.1,5.1-0.6,8.1-1.2
					C265.5,235.2,268,234.7,270.9,234.5z"/>
				<path class="st3" d="M249.6,268.7c4.8,0.3,8.4,4.5,8.1,9.3c-0.3,4.8-4.5,8.4-9.3,8.1c-12.3-0.9-24.4-1.4-36.1-1.4
					c-11.7,0-23.5,0.4-35.5,1.4c-4.8,0.4-9-3.2-9.4-8c-0.4-4.8,3.2-9,8-9.4c12-1,24.3-1.4,36.9-1.4
					C224.8,267.4,237.2,267.9,249.6,268.7z"/>
				<path class="st3" d="M203.8,118.9c0-4.8,3.9-8.7,8.7-8.7c4.8,0,8.7,3.9,8.7,8.7v53c0,4.8-3.9,8.7-8.7,8.7
					c-4.8,0-8.7-3.9-8.7-8.7V118.9z"/>
				<path class="st3" d="M203.8,193.2c0-4.8,3.9-8.7,8.7-8.7s8.7,3.9,8.7,8.7v0c0,4.8-3.9,8.7-8.7,8.7S203.8,198.1,203.8,193.2
					L203.8,193.2z"/>
			</g>
		</g>
	</g>
</g>
</svg>
