<?xml version="1.0" encoding="utf-8"?>
<!-- Generator: Adobe Illustrator 22.1.0, SVG Export Plug-In . SVG Version: 6.00 Build 0)  -->
<svg version="1.1"
	 id="Layer_1" text-rendering="geometricPrecision" image-rendering="optimizeQuality" shape-rendering="geometricPrecision"
	 xmlns="http://www.w3.org/2000/svg" xmlns:xlink="http://www.w3.org/1999/xlink" x="0px" y="0px" viewBox="0 0 425 476"
	 style="enable-background:new 0 0 425 476;" xml:space="preserve">
<style type="text/css">
	.st0{fill:#2782B9;}
	.st1{fill:#FFFFFF;}
	.st2{clip-path:url(#SVGID_2_);}
	.st3{fill:#FEFEFE;}
	.st4{fill:none;}
</style>
<g>
	<path class="st0" d="M167,440.7c-47.6-30.5-88-68.3-116.9-109.1C21.3,290.8,6,249.6,6,212.6c0-55.2,21.5-107,60.5-146
		c39-39,90.9-60.5,146-60.5c55.2,0,107,21.5,146,60.5c39,39,60.5,90.9,60.5,146c0,47.9-14.9,90-45.4,128.7
		c-25.8,32.6-62.4,63.3-118.7,99.4l-42.5,28L167,440.7z"/>
	<path class="st1" d="M212.5,12.1c27.1,0,53.3,5.3,78,15.8c23.9,10.1,45.3,24.6,63.7,43c18.4,18.4,32.9,39.9,43,63.7
		c10.5,24.7,15.8,51,15.8,78c0,24.3-3.8,46.5-11.6,67.8c-7.3,20-18,38.7-32.6,57.2c-25.4,32.1-61.5,62.3-117.2,98.1l-0.1,0l-0.1,0
		l-39.2,25.9l-42-26c-47-30.2-86.8-67.3-115.2-107.5c-28.2-39.8-43-79.8-43-115.5c0-27.1,5.3-53.3,15.8-78
		c10.1-23.9,24.6-45.3,43-63.7c18.4-18.4,39.9-32.9,63.7-43C159.2,17.4,185.4,12.1,212.5,12.1 M212.5,0.1
		c-58.7,0-111.8,23.8-150.3,62.2C23.8,100.8,0,154,0,212.6C0,291,66,383,163.9,445.8l48.6,30.1l45.6-30.1
		C356,383,425,317.7,425,212.6c0-58.7-23.8-111.8-62.2-150.3C324.3,23.9,271.2,0.1,212.5,0.1L212.5,0.1z"/>
</g>
<g>
	<g>
		<defs>
			<path id="SVGID_1_" d="M212.5,72L212.5,72c77,0,140,63,140,140l0,0c0,77-63,140-140,140l0,0c-77,0-140-63-140-140l0,0
				C72.5,135,135.5,72,212.5,72z"/>
		</defs>
		<clipPath id="SVGID_2_">
			<use xlink:href="#SVGID_1_"  style="overflow:visible;"/>
		</clipPath>
		<g class="st2">
			<g>
				<path class="st3" d="M212.5,318.3c-11.3,0-22.8-1.6-33.6-4.8c-10.4-3.1-20.2-7.7-28.7-13.9c-13.7-9.9-17.4-20.7-16.1-31.7
					c1.2-9.8,6.5-18.7,11.9-27.1c1.2-1.8-0.6-8-2.6-15.1c-2.3-8.1-4.9-17.2-4.8-27.4c0.2-16.1,0.7-31.6,4.2-45.3
					c3.8-14.9,10.9-27.5,24.5-35.9c6.1-3.8,13.3-6.6,20.9-8.5c7.9-2,16.4-2.9,24.6-2.9c8.2,0,16.5,0.9,24.2,2.9
					c7.5,1.9,14.6,4.7,20.7,8.5c13.6,8.4,20.7,21,24.5,35.9c3.4,13.6,3.9,29.1,4.2,45.3c0.1,10.2-2.5,19.3-4.8,27.4
					c-2.1,7.2-3.8,13.3-2.6,15.1c5.4,8.5,10.8,17.4,11.9,27.1c1.3,11-2.4,21.8-16.1,31.7c-8.5,6.2-18.3,10.8-28.7,13.9
					C235.3,316.8,223.8,318.3,212.5,318.3z M183.9,296.4c9.1,2.7,18.8,4,28.6,4c9.7,0,19.5-1.3,28.6-4c8.4-2.5,16.4-6.2,23.3-11.2
					c7.3-5.3,9.4-10.3,8.8-15.1c-0.7-6-4.9-12.9-9.2-19.6c-5.6-8.7-2.8-18.3,0.4-29.7c2-7,4.2-14.9,4.1-22.3
					c-0.2-14.9-0.6-29.2-3.7-41.1c-2.7-10.6-7.5-19.4-16.6-25c-4.5-2.8-9.8-4.9-15.6-6.4c-6.2-1.6-13-2.3-19.9-2.3
					c-7,0-13.9,0.8-20.4,2.4c-5.9,1.4-11.3,3.5-15.7,6.3c-9,5.6-13.9,14.4-16.6,25c-3,11.9-3.4,26.2-3.7,41.1
					c-0.1,7.4,2.1,15.3,4.1,22.3c3.3,11.4,6,21,0.4,29.7c-4.3,6.7-8.5,13.6-9.2,19.6c-0.6,4.8,1.5,9.8,8.8,15.1
					C167.5,290.1,175.5,293.9,183.9,296.4z"/>
				<path class="st3" d="M144.1,227.7c-1-4.8,2-9.6,6.9-10.7c4.8-1,9.6,2,10.7,6.9c2.5,11.6,12.2,31,12.3,31.1c2.2,4.4,0.4,9.8-4,12
					c-4.4,2.2-9.8,0.4-12-4C157.9,262.9,147.1,241.3,144.1,227.7z"/>
				<path class="st3" d="M263.5,223.9c1-4.8,5.8-7.9,10.7-6.9c4.8,1,7.9,5.8,6.9,10.7c-3,13.6-13.8,35.2-13.8,35.3
					c-2.2,4.4-7.6,6.2-12,4c-4.4-2.2-6.2-7.6-4-12C251.3,254.9,260.9,235.5,263.5,223.9z"/>
				<path class="st3" d="M220.9,193.7c6.1,4.9,15,11.4,25.3,10.5c11.7-1,16.2-10.7,13.8-24.7C254.2,169.3,225.5,185.2,220.9,193.7z"
					/>
				<path class="st3" d="M204.8,194.6c-3.8-10.4-39.2-30.3-40.1-8.2c-0.5,12.1,7.1,17.8,16.7,17.8
					C191.2,204.3,198.3,198.5,204.8,194.6z"/>
				<path class="st3" d="M193.4,251.2c0.2-8.2,4.8-14.1,10.8-17c2.6-1.3,5.5-2,8.4-2.1s5.9,0.4,8.6,1.5c6.1,2.6,11,8.2,11.8,17.4
					c0.3,3-1.9,5.6-4.9,5.8c-9.4,0.4-19.9-0.1-29.4-0.1C195.8,256.6,193.4,254.2,193.4,251.2L193.4,251.2z M209,243.8
					c-1.1,0.5-2,1.2-2.8,2.1l14.2,0.1c-0.9-1.2-2-2.1-3.2-2.6c-1.2-0.5-2.6-0.7-4-0.7C211.7,242.8,210.3,243.2,209,243.8z"/>
			</g>
		</g>
	</g>
	<path class="st4" d="M212.5,72L212.5,72c77,0,140,63,140,140l0,0c0,77-63,140-140,140l0,0c-77,0-140-63-140-140l0,0
		C72.5,135,135.5,72,212.5,72z"/>
</g>
</svg>
