<?xml version="1.0" encoding="utf-8"?>
<!-- Generator: Adobe Illustrator 22.1.0, SVG Export Plug-In . SVG Version: 6.00 Build 0)  -->
<svg version="1.1"
	 id="Layer_1" text-rendering="geometricPrecision" image-rendering="optimizeQuality" shape-rendering="geometricPrecision"
	 xmlns="http://www.w3.org/2000/svg" xmlns:xlink="http://www.w3.org/1999/xlink" x="0px" y="0px" viewBox="0 0 425 476"
	 style="enable-background:new 0 0 425 476;" xml:space="preserve">
<style type="text/css">
	.st0{fill:#2782B9;}
	.st1{fill:#FFFFFF;}
	.st2{clip-path:url(#SVGID_2_);}
	.st3{fill:#FEFEFE;}
	.st4{fill:none;}
</style>
<g>
	<path class="st0" d="M167,440.7c-47.6-30.5-88-68.3-116.9-109.1C21.3,290.8,6,249.6,6,212.6c0-55.2,21.5-107,60.5-146
		c39-39,90.9-60.5,146-60.5c55.2,0,107,21.5,146,60.5c39,39,60.5,90.9,60.5,146c0,47.9-14.9,90-45.4,128.7
		c-25.8,32.6-62.4,63.3-118.7,99.4l-42.5,28L167,440.7z"/>
	<path class="st1" d="M212.5,12.1c27.1,0,53.3,5.3,78,15.8c23.9,10.1,45.3,24.6,63.7,43c18.4,18.4,32.9,39.9,43,63.7
		c10.5,24.7,15.8,51,15.8,78c0,24.3-3.8,46.5-11.6,67.8c-7.3,20-18,38.7-32.6,57.2c-25.4,32.1-61.5,62.3-117.2,98.1l-0.1,0l-0.1,0
		l-39.2,25.9l-42-26c-47-30.2-86.8-67.3-115.2-107.5c-28.2-39.8-43-79.8-43-115.5c0-27.1,5.3-53.3,15.8-78
		c10.1-23.9,24.6-45.3,43-63.7c18.4-18.4,39.9-32.9,63.7-43C159.2,17.4,185.4,12.1,212.5,12.1 M212.5,0.1
		c-58.7,0-111.8,23.8-150.3,62.2C23.8,100.8,0,154,0,212.6C0,291,66,383,163.9,445.8l48.6,30.1l45.6-30.1
		C356,383,425,317.7,425,212.6c0-58.7-23.8-111.8-62.2-150.3C324.3,23.9,271.2,0.1,212.5,0.1L212.5,0.1z"/>
</g>
<g>
	<g>
		<defs>
			<path id="SVGID_1_" d="M212.5,72L212.5,72c77,0,140,63,140,140v0c0,77-63,140-140,140l0,0c-77,0-140-63-140-140v0
				C72.5,135,135.5,72,212.5,72z"/>
		</defs>
		<clipPath id="SVGID_2_">
			<use xlink:href="#SVGID_1_"  style="overflow:visible;"/>
		</clipPath>
		<g class="st2">
			<g>
				<path class="st3" d="M154.7,165.2c-1.2,4.8-6.1,7.7-10.9,6.5c-4.8-1.2-7.7-6.1-6.5-10.9l0.3-1.1c3.2-12.3,4.5-17.3,10.4-29.3
					c1.2-2.4,3.2-4,5.6-4.6l0,0c21.6-6.2,42.4-9.3,63.2-9.3s41.7,3.1,63.2,9.3c2.7,0.8,4.8,2.7,5.8,5.1
					c16.2,32.9,20.4,69.5,24.5,104.6c1.5,12.6,2.9,24.9,4.8,36.4c0.6,3.8-1.3,7.5-4.5,9.3c-3.5,2.1-7.5,3.9-12.1,5.6
					c-2.5,0.9-5.1,1.8-7.8,2.6c0.3,4.3-0.8,8.1-7.6,9.6l-4.9,1.1c-6.3,1.4-13.3,3-20.6,3.8c-1.1,2.4-3.1,4.4-7.9,5
					c-14.1,1.8-23.6,2.7-33.2,2.7c-9.6,0-18.9-0.9-32.5-2.7c-4.8-0.6-6.8-2.5-7.9-5c-7.3-0.8-14.3-2.4-20.7-3.8
					c-0.7-0.2-1.6-0.4-4.9-1.1c-6.9-1.5-8-5.2-7.6-9.6c-2.7-0.8-5.3-1.7-7.8-2.6c-4.6-1.7-8.8-3.6-12.3-5.8
					c-3.2-1.9-4.8-5.6-4.2-9.1c2.1-12.8,3.4-23.3,4.9-36l1.4-11.4c0.6-4.9,5.1-8.4,10-7.8c4.9,0.6,8.4,5.1,7.8,10l-1.4,11.4
					c-1.3,10.5-2.4,19.5-4.1,30.3c1.3,0.6,2.7,1.1,4.1,1.7c3.8,1.4,8.2,2.7,13.1,3.9c6.5,1.5,7.7,5.1,7.4,9.2
					c6.7,1.5,13.9,2.9,21,3.3c5.6,0.3,7.8,2.4,8.8,5.3c10,1.2,17.4,1.8,24.8,1.8c7.5,0,15.1-0.6,25.5-1.8c1-2.9,3.2-5,8.8-5.3
					c7-0.3,14.3-1.8,21-3.3c-0.2-4.1,1-7.7,7.4-9.2c5-1.2,9.4-2.5,13.1-3.9c1.5-0.5,2.8-1.1,4.2-1.7c-1.5-10.2-2.7-20.4-3.9-30.8
					c-3.8-32.4-7.7-66.1-21.3-95.6c-18.6-5-36.5-7.5-54.4-7.5c-17.9,0-35.9,2.5-54.5,7.5c-3.8,8-4.9,12.6-7.4,22.2L154.7,165.2z"/>
				<path class="st3" d="M130.7,173.2c-4.7-1.1-9.9-2.3-8.8-7c1.1-4.7,6.9-7.7,11.6-6.6l18.2,4.3c3.3-1.2,14.7-6.5,17.7-6.3
					c8.6,0,10.6,0.6,17.3-1.1c5.9,1.9,11.2,2.5,15.9,1.1c4.8-1.5,8.2-1.9,10.3,1.6c2.5,4.2-1.1,6.7-5.3,9.1
					c-12.7,7.6-22.1,1.5-36.4,5.3l-13.1,2.9c-1.7,0.7-4.2,2.3-6.1,1.8L130.7,173.2z M197.5,242.2c10.8,7.8,2.1,14.9-5.6,11l-27.7-13
					l-51.3-20.4c-4.5-1.8-4.3-10.8-2.5-15.3c1.8-4.5,4.5-2.7,8.9-1l22.4,16.2l29.1,9.1c0.2,0.1,4.6-1.8,4.9-1.7L197.5,242.2z
					 M220.3,228.2c13.4,5.2,3.7,16.1-4.8,12.8l-35.8-12.5c-4.5-1.7-1.9-5.1-0.2-9.6c1.7-4.5,2-7.2,6.5-5.5L220.3,228.2z
					 M187.6,213.5c-4.7-1.3-3.4-5.3-2.1-9.9c1-3.7,0.3-7,3.9-7.3c-3.4-1.6-2.2-4.7-1.5-8.6c0.5-3.3-11.2-10.9-24.2-12.5
					c-10-1.2,23.2-4.5,21.9-2.6c-9,4.3,7.8,7,9,7.2l22.4,2.7l22.8,5.1c4.8,0.8,8,4.8,7.2,9.6c-0.8,4.8-3.7,5.6-8.5,4.8l-20.4-3
					l-21.3-1.1l44.2,12.4c4.7,1.3,7.4,6.2,6.1,10.8c-1.3,4.7-6.2,7.4-10.8,6.1L187.6,213.5z"/>
				<path class="st3" d="M165.4,261.5l-4.7,29.1l-13.1-2.1c2.7-9.9,5.3-19.8,8-29.7C159.6,250.6,162.7,253.2,165.4,261.5z"/>
				<path class="st3" d="M197.5,265.3l-1,32.9l-13.2-1.2c1-10.9,4.8-21.1,5.8-32.1C191.1,259,198.1,257.7,197.5,265.3z"/>
				<path class="st3" d="M278.5,259.5l7.7,29l-13.1,2.1c-1.6-9.7-1.9-19.4-3.5-29.1C268.1,254.3,276.7,250.8,278.5,259.5z"/>
				<path class="st3" d="M246.9,264.2l3.7,32.7l-12.4,1.9c-1-10.9-0.2-22.5-1.2-33.4C235.9,259.9,243,252.5,246.9,264.2z"/>
			</g>
		</g>
	</g>
	<path class="st4" d="M212.5,72L212.5,72c77,0,140,63,140,140v0c0,77-63,140-140,140l0,0c-77,0-140-63-140-140v0
		C72.5,135,135.5,72,212.5,72z"/>
</g>
</svg>
