<?xml version="1.0" encoding="utf-8"?>
<!-- Generator: Adobe Illustrator 22.1.0, SVG Export Plug-In . SVG Version: 6.00 Build 0)  -->
<svg version="1.1"
	 id="Layer_1" text-rendering="geometricPrecision" image-rendering="optimizeQuality" shape-rendering="geometricPrecision"
	 xmlns="http://www.w3.org/2000/svg" xmlns:xlink="http://www.w3.org/1999/xlink" x="0px" y="0px" viewBox="0 0 425 476"
	 style="enable-background:new 0 0 425 476;" xml:space="preserve">
<style type="text/css">
	.st0{fill:#2782B9;}
	.st1{fill:#FFFFFF;}
	.st2{clip-path:url(#SVGID_2_);}
	.st3{fill:#FEFEFE;}
	.st4{fill:none;}
</style>
<g>
	<path class="st0" d="M167,440.7c-47.6-30.5-88-68.3-116.9-109.1C21.3,290.8,6,249.6,6,212.6c0-55.2,21.5-107,60.5-146
		c39-39,90.9-60.5,146-60.5c55.2,0,107,21.5,146,60.5c39,39,60.5,90.9,60.5,146c0,47.9-14.9,90-45.4,128.7
		c-25.8,32.6-62.4,63.3-118.7,99.4l-42.5,28L167,440.7z"/>
	<path class="st1" d="M212.5,12.1c27.1,0,53.3,5.3,78,15.8c23.9,10.1,45.3,24.6,63.7,43c18.4,18.4,32.9,39.9,43,63.7
		c10.5,24.7,15.8,51,15.8,78c0,24.3-3.8,46.5-11.6,67.8c-7.3,20-18,38.7-32.6,57.2c-25.4,32.1-61.5,62.3-117.2,98.1l-0.1,0l-0.1,0
		l-39.2,25.9l-42-26c-47-30.2-86.8-67.3-115.2-107.5c-28.2-39.8-43-79.8-43-115.5c0-27.1,5.3-53.3,15.8-78
		c10.1-23.9,24.6-45.3,43-63.7c18.4-18.4,39.9-32.9,63.7-43C159.2,17.4,185.4,12.1,212.5,12.1 M212.5,0.1
		c-58.7,0-111.8,23.8-150.3,62.2C23.8,100.8,0,154,0,212.6C0,291,66,383,163.9,445.8l48.6,30.1l45.6-30.1
		C356,383,425,317.7,425,212.6c0-58.7-23.8-111.8-62.2-150.3C324.3,23.9,271.2,0.1,212.5,0.1L212.5,0.1z"/>
</g>
<g>
	<g>
		<defs>
			<path id="SVGID_1_" d="M212.5,72L212.5,72c77,0,140,63,140,140v0c0,77-63,140-140,140h0c-77,0-140-63-140-140v0
				C72.5,135,135.5,72,212.5,72z"/>
		</defs>
		<clipPath id="SVGID_2_">
			<use xlink:href="#SVGID_1_"  style="overflow:visible;"/>
		</clipPath>
		<g class="st2">
			<g>
				<path class="st3" d="M167.1,217.1c11.7,0,22.3,4.7,29.9,12.4c7.7,7.7,12.4,18.2,12.4,29.9c0,11.7-4.7,22.3-12.4,29.9
					c-7.7,7.7-18.2,12.4-29.9,12.4c-11.7,0-22.3-4.7-29.9-12.4c-7.7-7.7-12.4-18.2-12.4-29.9c0-11.7,4.7-22.3,12.4-29.9
					C144.8,221.8,155.4,217.1,167.1,217.1z M184.3,242.2c-4.4-4.4-10.5-7.1-17.2-7.1c-6.7,0-12.8,2.7-17.2,7.1
					c-4.4,4.4-7.1,10.5-7.1,17.2c0,6.7,2.7,12.8,7.1,17.2c4.4,4.4,10.5,7.1,17.2,7.1c6.7,0,12.8-2.7,17.2-7.1
					c4.4-4.4,7.1-10.5,7.1-17.2C191.5,252.7,188.7,246.6,184.3,242.2z M257.9,217.1c11.7,0,22.3,4.7,29.9,12.4
					c7.7,7.7,12.4,18.2,12.4,29.9c0,11.7-4.7,22.3-12.4,29.9c-7.7,7.7-18.2,12.4-29.9,12.4c-11.7,0-22.3-4.7-29.9-12.4
					c-7.7-7.7-12.4-18.2-12.4-29.9c0-11.7,4.7-22.3,12.4-29.9C235.6,221.8,246.2,217.1,257.9,217.1z M275.2,242.2
					c-4.4-4.4-10.5-7.1-17.2-7.1c-6.7,0-12.8,2.7-17.2,7.1c-4.4,4.4-7.1,10.5-7.1,17.2c0,6.7,2.7,12.8,7.1,17.2
					c4.4,4.4,10.5,7.1,17.2,7.1c6.7,0,12.8-2.7,17.2-7.1c4.4-4.4,7.1-10.5,7.1-17.2C282.3,252.7,279.6,246.6,275.2,242.2z"/>
				<path class="st3" d="M173.9,282.8c13-4.3,25.8-6.5,38.6-6.5s25.7,2.2,38.6,6.5l-5.7,17c-11-3.7-22-5.5-33-5.5s-22,1.8-33,5.5
					L173.9,282.8z M251.1,235.7c-12.9,4.3-25.7,6.5-38.6,6.5v0c-12.8,0-25.7-2.2-38.6-6.5l5.7-17c11,3.7,22,5.5,33,5.5v0
					c10.9,0,21.9-1.8,33-5.5L251.1,235.7z"/>
				<path class="st3" d="M158.6,256.3c-1,2.8-4.1,4.3-6.9,3.3c-2.8-1-4.3-4.1-3.3-6.9c1-2.8,2.5-5.3,4.4-7.5
					c1.9-2.2,4.2-3.9,6.9-5.2c2.7-1.3,5.9-0.2,7.2,2.4c1.3,2.7,0.2,5.9-2.4,7.2c-1.4,0.7-2.6,1.6-3.6,2.8
					C159.9,253.6,159.1,254.9,158.6,256.3z"/>
				<path class="st3" d="M194.4,232.7c0-4.9,2.5-9.1,6.5-11.9c3.1-2.2,7.2-3.6,11.7-3.6c4.4,0,8.5,1.4,11.7,3.6
					c4,2.9,6.5,7.1,6.5,11.9h-14.9l-1.7,2.5c0,0.2,0,0.3-0.1,0.2c-0.2-0.1-0.6-0.2-1.3-0.2c-0.6,0-1.1,0.1-1.3,0.2
					c-0.1,0.1-0.2,0-0.1-0.2l-1.7-2.5H194.4z M211.1,235.2c0.1-0.6,0.6-1.9,1-2.5h-2.7L211.1,235.2z M215.7,232.7H213
					c0.3,0.5,0.9,1.9,1,2.5L215.7,232.7z"/>
				<path class="st3" d="M113.1,205c-4.9-0.7-8.3-5.2-7.7-10.1c0.7-4.9,5.2-8.3,10.1-7.7c7.1,1,14.9,1.8,23.1,2.5
					c3-7.2,6.1-14,9.2-20.6c4.1-9,8.1-17.7,12.1-27.9c1.7-4.4,9.9-8.3,19.5-11.2c10.3-3.2,23.7-6.4,29.2-7.4
					c0.7-0.2,1.5-0.3,2.3-0.3h0.2c2.5,0,20.6,3.7,33.8,7.5c10.1,2.9,18.7,6.8,20.5,11.4c4,10.2,8,19,12.1,27.9
					c3.1,6.7,6.2,13.4,9.2,20.6c8.2-0.7,16-1.6,23.1-2.5c4.9-0.7,9.4,2.8,10.1,7.7c0.7,4.9-2.8,9.4-7.7,10.1
					c-13.4,1.8-29,3.2-45.5,4.2c-17,1-35.4,1.4-53.9,1.5c-18.5,0-36.9-0.5-53.9-1.5C142,208.2,126.5,206.8,113.1,205z M157.4,191.1
					l2.2,0.1c17,1,35,1.4,52.9,1.5c17.9,0,35.9-0.5,52.9-1.5l2.2-0.1c-2.3-5.2-4.4-9.9-6.6-14.5c-4.2-9.3-8.4-18.3-12.5-28.9
					c-0.6-1.6-3.4,0.9-8.7-0.6c-12-3.4-26.9-6.8-28.9-6.9c-1.7,0.1-15.3,3.5-26.3,6.9c-5,1.5-7.4-1.1-8,0.6
					c-4.1,10.6-8.3,19.7-12.5,28.9C161.9,181.2,159.7,185.9,157.4,191.1z"/>
				<path class="st3" d="M248.1,256.3c-1,2.8-4.1,4.3-6.9,3.3c-2.8-1-4.3-4.1-3.3-6.9c1-2.8,2.5-5.3,4.4-7.5
					c1.9-2.2,4.2-3.9,6.9-5.2c2.7-1.3,5.9-0.2,7.2,2.4c1.3,2.7,0.2,5.9-2.4,7.2c-1.4,0.7-2.6,1.6-3.6,2.8
					C249.4,253.6,248.6,254.9,248.1,256.3z"/>
			</g>
		</g>
	</g>
	<path class="st4" d="M212.5,72L212.5,72c77,0,140,63,140,140v0c0,77-63,140-140,140h0c-77,0-140-63-140-140v0
		C72.5,135,135.5,72,212.5,72z"/>
</g>
</svg>
