<?xml version="1.0" encoding="utf-8"?>
<!-- Generator: Adobe Illustrator 22.1.0, SVG Export Plug-In . SVG Version: 6.00 Build 0)  -->
<svg version="1.1"
	 id="Layer_1" text-rendering="geometricPrecision" image-rendering="optimizeQuality" shape-rendering="geometricPrecision"
	 xmlns="http://www.w3.org/2000/svg" xmlns:xlink="http://www.w3.org/1999/xlink" x="0px" y="0px" viewBox="0 0 425 476"
	 style="enable-background:new 0 0 425 476;" xml:space="preserve">
<style type="text/css">
	.st0{fill:#2782B9;}
	.st1{fill:#FFFFFF;}
	.st2{clip-path:url(#SVGID_2_);}
	.st3{fill:#FEFEFE;}
	.st4{fill:none;}
</style>
<g>
	<path class="st0" d="M167,440.7c-47.6-30.5-88-68.3-116.9-109.1C21.3,290.8,6,249.6,6,212.6c0-55.2,21.5-107,60.5-146
		c39-39,90.9-60.5,146-60.5c55.2,0,107,21.5,146,60.5c39,39,60.5,90.9,60.5,146c0,47.9-14.9,90-45.4,128.7
		c-25.8,32.6-62.4,63.3-118.7,99.4l-42.5,28L167,440.7z"/>
	<path class="st1" d="M212.5,12.1c27.1,0,53.3,5.3,78,15.8c23.9,10.1,45.3,24.6,63.7,43c18.4,18.4,32.9,39.9,43,63.7
		c10.5,24.7,15.8,51,15.8,78c0,24.3-3.8,46.5-11.6,67.8c-7.3,20-18,38.7-32.6,57.2c-25.4,32.1-61.5,62.3-117.2,98.1l-0.1,0l-0.1,0
		l-39.2,25.9l-42-26c-47-30.2-86.8-67.3-115.2-107.5c-28.2-39.8-43-79.8-43-115.5c0-27.1,5.3-53.3,15.8-78
		c10.1-23.9,24.6-45.3,43-63.7c18.4-18.4,39.9-32.9,63.7-43C159.2,17.4,185.4,12.1,212.5,12.1 M212.5,0.1
		c-58.7,0-111.8,23.8-150.3,62.2C23.8,100.8,0,154,0,212.6C0,291,66,383,163.9,445.8l48.6,30.1l45.6-30.1
		C356,383,425,317.7,425,212.6c0-58.7-23.8-111.8-62.2-150.3C324.3,23.9,271.2,0.1,212.5,0.1L212.5,0.1z"/>
</g>
<g>
	<g>
		<defs>
			<path id="SVGID_1_" d="M212.5,72L212.5,72c77,0,140,63,140,140v0c0,77-63,140-140,140h0c-77,0-140-63-140-140v0
				C72.5,135,135.5,72,212.5,72z"/>
		</defs>
		<clipPath id="SVGID_2_">
			<use xlink:href="#SVGID_1_"  style="overflow:visible;"/>
		</clipPath>
		<g class="st2">
			<g>
				<path class="st3" d="M131.9,204.7c-1-2.7-4.2-4-6.9-5.1c-8.4-3.5-15-6.2-11.9-18.9l6.8-27.2c0.9-3.6,2.9-6.7,5.5-8.8
					c2.8-2.3,6.3-3.6,10-3.6h175.8c5,0,9,4,9,9v34.2c0,4.9-3.9,8.9-8.8,9l-29.9,2.9l-6.5,13.6c-1.5,3.2-4.7,5.1-8.1,5.1v0h-65.4
					c-5.4,8.4-12.3,23.2-17.7,38c-5,13.8-8.6,27.1-7.9,33.9c0.5,4.9-3.1,9.3-8,9.8c-0.4,0-0.9,0.1-1.3,0l-26.4,0.1v0
					c-10.6,0-21.3,0-27.9-0.1c-12.1-0.2-15.9-4.2-15.8-13.1c0.1-3,0.9-5.7,1.9-9.3l0.5-1.6c2.1-7.1,4.4-14.2,7-21.1
					c2.7-7.1,5.9-14,9.7-20.7c2.8-4.8,5.5-8.9,7.9-12.7C128.4,210.6,132,205,131.9,204.7z M131.9,183.1c5.9,2.4,12.9,5.4,16.7,15.1
					c3.4,8.8-2.4,17.8-9.8,29.3c-2.4,3.8-5.1,7.9-7.4,11.9c-3.3,5.7-6.1,11.8-8.5,18.2c-2.4,6.3-4.5,12.9-6.6,19.7l-0.3,1.1
					c6.6,0.1,15.6,0.1,24.4,0.1v0l18.2,0c1.2-9.2,4.4-20.6,8.5-32c6.6-18.2,15.7-36.9,22.3-45.7c1.6-2.5,4.4-4.2,7.6-4.2h64.5
					l6.3-13c1.3-2.7,4-4.7,7.2-5l27.5-2.7V159H137l-6.5,26C130,187.2,131.4,182.9,131.9,183.1z"/>
				<path class="st3" d="M146.7,296.5c-5,0-9-4-9-9c0-5,4-9,9-9H170c5,0,9,4,9,9c0,5-4,9-9,9H146.7z"/>
				<path class="st3" d="M182.4,247.8c-4.9-0.6-8.4-5-7.9-9.9c0.6-4.9,5-8.4,9.9-7.9c0.2,0,3.8,0,8.7,0c6.8,0,15.9,0,22.9,0l0-1
					c-0.2-4.1-0.2-8.2,0.3-12.4c0.4-4.1,1.1-8.2,2.2-12.3c1.2-4.8,6.1-7.7,10.9-6.5c4.8,1.2,7.7,6.1,6.5,10.9
					c-0.8,3.2-1.4,6.4-1.7,9.6c-0.3,3.2-0.4,6.4-0.2,9.7c0.2,4-0.1,8.1-1.9,11.7c-2.5,4.9-6.7,8.1-13.7,8.1c-7.2,0-17.5,0-25.1,0
					C187.4,247.9,183,247.9,182.4,247.8z"/>
				<path class="st3" d="M207.9,229.5c1.1,4.8-1.9,9.6-6.8,10.7c-4.8,1.1-9.6-1.9-10.7-6.8c-1.3-5.6-1.9-10.7-2-15.2
					c-0.1-5.1,0.6-9.6,1.9-13.3c1.6-4.7,6.7-7.1,11.4-5.5c4.7,1.6,7.1,6.7,5.5,11.4c-0.6,1.8-1,4.2-0.9,7.2
					C206.4,221.2,206.9,225,207.9,229.5z"/>
				<polygon class="st3" points="307.6,189.3 126.4,189.3 126.4,178.6 307.6,178.6 				"/>
				<polygon class="st3" points="137.2,136.4 143.5,136.4 159.6,136.4 159.6,152.8 137.2,152.8 				"/>
				<polygon class="st3" points="297.2,139.1 319.4,136.5 319.4,152.8 297,152.8 				"/>
				<path class="st3" d="M137.4,186.1c5.4,2.4,9.8,6.1,13.3,10c5,5.6,8.1,11.8,9.5,15.1l-16.6,6.7c-0.9-2.2-2.9-6.2-6.2-9.9
					c-2-2.2-4.4-4.2-7.2-5.5L137.4,186.1z"/>
				<path class="st3" d="M189.9,204.8c-3,0-5.4-2.4-5.4-5.4c0-3,2.4-5.4,5.4-5.4h13.8c3,0,5.4,2.4,5.4,5.4c0,3-2.4,5.4-5.4,5.4
					H189.9z"/>
			</g>
		</g>
	</g>
	<path class="st4" d="M212.5,72L212.5,72c77,0,140,63,140,140v0c0,77-63,140-140,140h0c-77,0-140-63-140-140v0
		C72.5,135,135.5,72,212.5,72z"/>
</g>
</svg>
