<?xml version="1.0" encoding="UTF-8"?>
<!DOCTYPE svg PUBLIC "-//W3C//DTD SVG 1.1//EN" "http://www.w3.org/Graphics/SVG/1.1/DTD/svg11.dtd">
<!-- Creator: CorelDRAW X8 -->
<svg xmlns="http://www.w3.org/2000/svg" xml:space="preserve" width="425px" height="476px" version="1.1" shape-rendering="geometricPrecision" text-rendering="geometricPrecision" image-rendering="optimizeQuality" fill-rule="evenodd" clip-rule="evenodd"
viewBox="0 0 101997 114173"
 xmlns:xlink="http://www.w3.org/1999/xlink">
 <defs>
   <clipPath id="id0">
    <path d="M50998 8180l1 0c21442,0 38986,17543 38986,38986l0 0c0,21443 -17544,38987 -38986,38987l-1 0c-21443,0 -38986,-17544 -38986,-38987l0 0c0,-21443 17543,-38986 38986,-38986z"/>
   </clipPath>
 </defs>
 <g id="Слой_x0020_1">
  <metadata id="CorelCorpID_0Corel-Layer"/>
  <path fill="#C0392B" d="M50998 4051c-25928,0 -46947,21019 -46947,46947 0,31399 23906,43150 46947,58343 23042,-15193 46947,-26944 46947,-58343 0,-25928 -21018,-46947 -46947,-46947z"/>
  <path fill="whitesmoke" fill-rule="nonzero" d="M50998 8103c-11846,0 -22570,4801 -30332,12563 -7762,7762 -12563,18486 -12563,30332 0,25976 18353,37752 37993,50352 1509,969 3022,1939 4902,3166 1875,-1223 3397,-2200 4903,-3166 19639,-12600 37993,-24376 37993,-50352 0,-11846 -4801,-22570 -12563,-30332 -7762,-7762 -18487,-12563 -30333,-12563zm-36061 6834c9229,-9229 21979,-14937 36061,-14937 14083,0 26833,5709 36062,14937 9228,9229 14937,21979 14937,36061 0,30385 -20158,43318 -41728,57157 -2649,1699 -5307,3405 -7055,4557l-2216 1461 -2215 -1461c-1730,-1141 -4408,-2858 -7055,-4557 -21570,-13839 -41728,-26772 -41728,-57157 0,-14082 5709,-26832 14937,-36061z"/>
  <g>
  </g>
  <g clip-path="url(#id0)">
   <g>
    <polygon fill="#FEFEFE" fill-rule="nonzero" points="30609,53652 54823,29437 79038,53652 75505,57185 54823,36504 34142,57185 "/>
    <polygon fill="#FEFEFE" fill-rule="nonzero" points="40275,50693 40275,67773 69372,67773 69372,50693 74370,50693 74369,72771 35277,72771 35277,50693 "/>
    <path fill="#FEFEFE" fill-rule="nonzero" d="M38032 60980c1310,420 2031,1823 1610,3133 -420,1310 -1823,2031 -3133,1611 -18627,-5964 -16459,-16599 -14780,-24835 593,-2907 1101,-5397 252,-6265 -959,-987 -937,-2565 49,-3524 555,-540 1297,-769 2011,-691 2689,301 4426,1603 5552,3357 993,1546 1417,3379 1597,5100 123,1177 347,2435 835,3156 201,296 587,449 1291,280l71 -23 -1 -3c123,-37 216,-197 278,-437l18 -67c155,-684 77,-1630 -202,-2720l-129 -438c-236,-792 -665,-1692 -1102,-2613 -881,-1852 -1794,-3774 -1929,-6013 -154,-2554 344,-5060 1811,-7274 1264,-1906 3216,-3536 6049,-4706 1272,-523 2728,84 3251,1357 288,702 232,1461 -90,2088 -1289,2512 -885,5087 144,6677 327,505 683,870 1023,1043 94,48 156,75 167,70 436,-175 891,-1045 1260,-2912 264,-1353 1575,-2236 2928,-1972 365,71 696,219 979,423 2572,1758 3882,3837 4516,6050 594,2075 537,4122 398,6102 -91,1375 -1280,2415 -2655,2324 -1375,-92 -2415,-1281 -2323,-2656 106,-1524 159,-3069 -223,-4404 -71,-249 -161,-497 -272,-741 -775,1218 -1726,2000 -2753,2413 -1438,578 -2921,434 -4287,-265 -1121,-574 -2144,-1537 -2936,-2761 -760,-1174 -1336,-2633 -1596,-4244 -361,957 -478,2008 -413,3095 77,1266 782,2749 1461,4178 524,1102 1036,2180 1375,3316 27,91 83,301 168,633 480,1872 568,3653 215,5135l-30 131c-505,1954 -1700,3382 -3675,3971l-2 -4 -167 47 -1 -3 -48 13c-3256,834 -5337,-306 -6688,-2299 -612,-902 -1010,-1957 -1274,-3036l-22 108c-1289,6325 -2955,14492 11422,19095z"/>
    <polygon fill="#FEFEFE" fill-rule="nonzero" points="65237,45291 65237,37612 70235,37612 70235,45291 "/>
    <path fill="#FEFEFE" fill-rule="nonzero" d="M49591 49882l12964 0 0 14956 -15463 0 0 -14956 2499 0zm7966 4998l-5467 0 0 4960 5467 0 0 -4960z"/>
   </g>
  </g>
  <path fill="none" d="M50998 8180l1 0c21442,0 38986,17543 38986,38986l0 0c0,21443 -17544,38987 -38986,38987l-1 0c-21443,0 -38986,-17544 -38986,-38987l0 0c0,-21443 17543,-38986 38986,-38986z"/>
 </g>
</svg>
