<?xml version="1.0" encoding="UTF-8"?>
<!DOCTYPE svg PUBLIC "-//W3C//DTD SVG 1.1//EN" "http://www.w3.org/Graphics/SVG/1.1/DTD/svg11.dtd">
<!-- Creator: CorelDRAW X8 -->
<svg xmlns="http://www.w3.org/2000/svg" xml:space="preserve" width="425px" height="476px" version="1.1" shape-rendering="geometricPrecision" text-rendering="geometricPrecision" image-rendering="optimizeQuality" fill-rule="evenodd" clip-rule="evenodd"
viewBox="0 0 101997 114173"
 xmlns:xlink="http://www.w3.org/1999/xlink">
 <defs>
   <clipPath id="id0">
    <path d="M50998 9088l1 0c21442,0 38986,17543 38986,38986l0 1c0,21442 -17544,38986 -38986,38986l-1 0c-21443,0 -38986,-17544 -38986,-38986l0 -1c0,-21443 17543,-38986 38986,-38986z"/>
   </clipPath>
 </defs>
 <g id="Слой_x0020_1">
  <metadata id="CorelCorpID_0Corel-Layer"/>
  <path fill="#9B59B6" d="M50998 4051c-25928,0 -46947,21019 -46947,46947 0,31399 23906,43150 46947,58343 23042,-15193 46947,-26944 46947,-58343 0,-25928 -21018,-46947 -46947,-46947z"/>
  <path fill="whitesmoke" fill-rule="nonzero" d="M50998 8103c-11846,0 -22570,4801 -30332,12563 -7762,7762 -12563,18486 -12563,30332 0,25976 18353,37752 37993,50352 1509,969 3022,1939 4902,3166 1875,-1223 3397,-2200 4903,-3166 19639,-12600 37993,-24376 37993,-50352 0,-11846 -4801,-22570 -12563,-30332 -7762,-7762 -18487,-12563 -30333,-12563zm-36061 6834c9229,-9229 21979,-14937 36061,-14937 14083,0 26833,5709 36062,14937 9228,9229 14937,21979 14937,36061 0,30385 -20158,43318 -41728,57157 -2649,1699 -5307,3405 -7055,4557l-2216 1461 -2215 -1461c-1730,-1141 -4408,-2858 -7055,-4557 -21570,-13839 -41728,-26772 -41728,-57157 0,-14082 5709,-26832 14937,-36061z"/>
  <g>
  </g>
  <g clip-path="url(#id0)">
   <g>
    <path fill="#FEFEFE" fill-rule="nonzero" d="M55476 72919c738,1164 393,2708 -772,3446 -1164,738 -2707,393 -3446,-771 -956,-1507 -1986,-2963 -2890,-4170 -1266,-1690 -2211,-2864 -2334,-2957 -1844,-1390 -3505,-2698 -5195,-4264 -1675,-1552 -3276,-3275 -4951,-5453 -1998,-2598 -3880,-5189 -5538,-7686 -1672,-2518 -3146,-4989 -4321,-7340 -465,-931 -681,-1938 -686,-2950 -7,-1468 436,-2960 1200,-4231 777,-1295 1899,-2399 3230,-3064l92 -44c75,-606 258,-1208 530,-1795 343,-739 846,-1458 1458,-2112 580,-619 1250,-1174 1962,-1621 1032,-649 2192,-1108 3364,-1277 320,-865 858,-1683 1545,-2413 665,-707 1489,-1338 2377,-1832 909,-506 1893,-875 2858,-1044 1071,-187 2129,-155 3092,156l126 -116c980,-889 2192,-1484 3403,-1772 1250,-297 2561,-285 3686,52 881,263 1671,730 2290,1412 1391,1535 2130,2732 2992,4127 353,572 732,1184 1220,1910 766,1143 460,2690 -683,3456 -1143,765 -2690,459 -3456,-684 -498,-740 -921,-1425 -1318,-2066 -736,-1192 -1368,-2216 -2445,-3404 -33,-36 21,46 -25,32 -287,-86 -683,-75 -1109,26 -463,111 -900,314 -1217,601 -193,175 -344,391 -419,644 -165,552 -521,1051 -1044,1386 -1159,744 -2703,408 -3446,-751 -93,-144 -408,-155 -788,-89 -430,76 -878,245 -1296,477 -440,245 -844,554 -1166,896 -308,326 -532,593 -540,665 295,640 319,1400 1,2091 -577,1250 -2059,1796 -3309,1220 -484,-224 -1283,40 -2038,514 -377,236 -714,511 -985,801 -240,256 -434,531 -560,804 -71,152 -155,194 -139,218 239,383 379,834 380,1318 5,1375 -1105,2494 -2479,2499 -190,1 -380,43 -562,118l-127 68c-468,234 -879,650 -1180,1151 -315,525 -499,1110 -496,1654 1,273 51,529 159,743 1052,2106 2430,4407 4028,6813 1611,2427 3419,4916 5323,7393 1519,1975 2932,3502 4385,4848 1436,1330 3019,2571 4824,3932 362,273 1769,1896 3310,3953 1037,1384 2169,2976 3125,4482z"/>
    <path fill="#FEFEFE" fill-rule="nonzero" d="M57744 38249c1083,-851 2652,-664 3504,420 852,1084 805,2606 -279,3458 -4517,2273 -7221,8683 -4521,13400 808,1411 -645,2967 -2003,1019 -5202,-7460 -4014,-12558 3299,-18297z"/>
    <path fill="#FEFEFE" fill-rule="nonzero" d="M76098 59904c695,1186 297,2712 -889,3407 -1185,695 -2711,297 -3406,-888 -902,-1535 -1348,-2335 -1868,-3265 -509,-913 -1083,-1940 -1931,-3408 -225,-392 -332,-819 -331,-1240l-11 0c0,-1584 213,-3364 425,-5144 193,-1616 386,-3232 386,-4558l6 -171c-75,-3422 -837,-6106 -2187,-8339 -1280,-2119 -3127,-3895 -5446,-5552 -1686,148 -3989,1400 -6766,2909 -1861,1011 -3907,2123 -6198,3144 1020,1024 2130,1628 3320,1902 2080,480 4554,62 7293,-852 1305,-436 2717,267 3153,1572 437,1304 -267,2716 -1571,3153 -3559,1187 -6905,1699 -9989,989 -3252,-749 -6054,-2767 -8277,-6616 -72,-126 -134,-260 -185,-401 -469,-1293 199,-2723 1493,-3192 3254,-1179 6092,-2722 8579,-4073 3848,-2091 6961,-3783 10137,-3518l0 3c417,34 831,174 1201,426 3178,2169 5729,4545 7532,7529 1787,2958 2794,6446 2889,10823 9,87 14,175 14,264 0,1583 -213,3364 -425,5143 -163,1370 -327,2741 -373,3934 807,1404 1234,2167 1616,2852 531,951 987,1768 1809,3167z"/>
    <path fill="#FEFEFE" fill-rule="nonzero" d="M25863 42836c-539,-1267 51,-2732 1318,-3271 1267,-539 2731,51 3270,1318 548,1287 1386,2229 2275,2907 1397,1066 2876,1492 3639,1600 196,28 457,-7 694,-113 69,-31 107,-39 110,-44 27,-43 -48,50 -57,0 -84,-452 -443,-1101 -1209,-2006 -889,-1052 -758,-2625 293,-3515 1015,-858 2517,-766 3420,188 1516,1473 2929,2112 4028,2159 387,16 703,-45 929,-166 135,-72 231,-163 277,-263 108,-237 91,-607 -90,-1091 -480,-1288 176,-2722 1464,-3202 1288,-480 2722,176 3202,1464 676,1807 595,3501 -47,4898 -512,1115 -1357,2003 -2444,2586 -994,534 -2184,807 -3486,752 -503,-21 -1027,-92 -1565,-218 -119,367 -281,711 -478,1030 -568,920 -1403,1567 -2316,1977 -1109,498 -2394,647 -3409,504 -1289,-183 -3754,-878 -5982,-2577 -1494,-1140 -2904,-2730 -3836,-4917z"/>
    <polygon fill="#FEFEFE" fill-rule="nonzero" points="33942,33022 41971,42834 38105,45997 30077,36185 "/>
    <polygon fill="#FEFEFE" fill-rule="nonzero" points="41056,27596 46880,35381 42897,38368 37073,30583 "/>
    <polygon fill="#FEFEFE" fill-rule="nonzero" points="48507,22711 53925,29766 49962,32792 44544,25737 "/>
    <path fill="#FEFEFE" fill-rule="nonzero" d="M72605 55703c-1466,1809 -6229,5300 -11203,8320 -4287,2602 -8839,4929 -11726,5629l-1172 -4841c2368,-575 6410,-2671 10321,-5044 4543,-2758 8767,-5792 9914,-7207l3866 3143z"/>
    <path fill="#FEFEFE" fill-rule="nonzero" d="M76331 61652c-1378,2444 -5462,5627 -9929,8410 -5227,3257 -11199,6120 -13897,6578l-820 -4920c2117,-359 7319,-2928 12081,-5894 3876,-2415 7310,-4982 8231,-6615l4334 2441z"/>
    <path fill="#FEFEFE" fill-rule="nonzero" d="M56823 38785c1277,-507 2724,118 3231,1396 506,1277 -119,2724 -1396,3230 -6343,2523 -9301,4301 -11950,10731 -972,2360 -2904,1945 -2252,-608 2334,-9145 4222,-11007 12367,-14749z"/>
   </g>
  </g>
  <path fill="none" d="M50998 9088l1 0c21442,0 38986,17543 38986,38986l0 1c0,21442 -17544,38986 -38986,38986l-1 0c-21443,0 -38986,-17544 -38986,-38986l0 -1c0,-21443 17543,-38986 38986,-38986z"/>
 </g>
</svg>
