<?xml version="1.0" encoding="UTF-8"?>
<!DOCTYPE svg PUBLIC "-//W3C//DTD SVG 1.1//EN" "http://www.w3.org/Graphics/SVG/1.1/DTD/svg11.dtd">
<!-- Creator: CorelDRAW X8 -->
<svg xmlns="http://www.w3.org/2000/svg" xml:space="preserve" width="425px" height="476px" version="1.1" shape-rendering="geometricPrecision" text-rendering="geometricPrecision" image-rendering="optimizeQuality" fill-rule="evenodd" clip-rule="evenodd"
viewBox="0 0 101997 114173"
 xmlns:xlink="http://www.w3.org/1999/xlink">
 <defs>
   <clipPath id="id0">
    <path d="M50998 9022l1 0c21442,0 38986,17543 38986,38986l0 1c0,21442 -17544,38986 -38986,38986l-1 0c-21443,0 -38986,-17544 -38986,-38986l0 -1c0,-21443 17543,-38986 38986,-38986z"/>
   </clipPath>
 </defs>
 <g id="Слой_x0020_1">
  <metadata id="CorelCorpID_0Corel-Layer"/>
  <path fill="#F39C12" d="M50998 4051c-25928,0 -46947,21019 -46947,46947 0,31399 23906,43150 46947,58343 23042,-15193 46947,-26944 46947,-58343 0,-25928 -21018,-46947 -46947,-46947z"/>
  <path fill="whitesmoke" fill-rule="nonzero" d="M50998 8103c-11846,0 -22570,4801 -30332,12563 -7762,7762 -12563,18486 -12563,30332 0,25976 18353,37752 37993,50352 1509,969 3022,1939 4902,3166 1875,-1223 3397,-2200 4903,-3166 19639,-12600 37993,-24376 37993,-50352 0,-11846 -4801,-22570 -12563,-30332 -7762,-7762 -18487,-12563 -30333,-12563zm-36061 6834c9229,-9229 21979,-14937 36061,-14937 14083,0 26833,5709 36062,14937 9228,9229 14937,21979 14937,36061 0,30385 -20158,43318 -41728,57157 -2649,1699 -5307,3405 -7055,4557l-2216 1461 -2215 -1461c-1730,-1141 -4408,-2858 -7055,-4557 -21570,-13839 -41728,-26772 -41728,-57157 0,-14082 5709,-26832 14937,-36061z"/>
  <g>
  </g>
  <g clip-path="url(#id0)">
   <g>
    <path fill="#FEFEFE" fill-rule="nonzero" d="M35699 51561l4563 20233 27610 -6227 -4563 -20233 -27610 6227zm250 23758l-5660 -25093c-301,-1342 542,-2676 1884,-2977l32471 -7324c1342,-302 2676,542 2977,1884l5660 25094c302,1342 -542,2675 -1884,2977l-32471 7324c-1342,301 -2675,-542 -2977,-1885z"/>
    <path fill="#FEFEFE" fill-rule="nonzero" d="M59773 27054c641,1219 174,2727 -1045,3368 -1218,641 -2726,174 -3368,-1045 -2367,-4508 -6476,-6031 -10457,-5548 -1617,196 -3216,709 -4682,1479 -1480,777 -2816,1805 -3890,3019 -2653,2999 -3728,7243 -1359,11754l3147 5992c642,1218 174,2726 -1044,3368 -1219,641 -2727,173 -3368,-1045l-3148 -5992c-3493,-6652 -1891,-12929 2043,-17376 1486,-1681 3304,-3087 5296,-4133 2005,-1053 4198,-1756 6420,-2025 5888,-714 11961,1532 15455,8184z"/>
    <polygon fill="#FEFEFE" fill-rule="nonzero" points="55870,45076 53660,52989 58341,54344 50019,65777 50211,58542 47003,57668 47110,46079 "/>
   </g>
  </g>
  <path fill="none" d="M50998 9022l1 0c21442,0 38986,17543 38986,38986l0 1c0,21442 -17544,38986 -38986,38986l-1 0c-21443,0 -38986,-17544 -38986,-38986l0 -1c0,-21443 17543,-38986 38986,-38986z"/>
 </g>
</svg>
