<?xml version="1.0" encoding="UTF-8"?>
<!DOCTYPE svg PUBLIC "-//W3C//DTD SVG 1.1//EN" "http://www.w3.org/Graphics/SVG/1.1/DTD/svg11.dtd">
<!-- Creator: CorelDRAW X8 -->
<svg xmlns="http://www.w3.org/2000/svg" xml:space="preserve" width="425px" height="476px" version="1.1" shape-rendering="geometricPrecision" text-rendering="geometricPrecision" image-rendering="optimizeQuality" fill-rule="evenodd" clip-rule="evenodd"
viewBox="0 0 91476 102395"
 xmlns:xlink="http://www.w3.org/1999/xlink">
 <defs>
   <clipPath id="id0">
    <path d="M45737 8676l1 0c19231,0 34964,15734 34964,34965l0 1c0,19230 -15733,34964 -34964,34964l-1 0c-19230,0 -34964,-15734 -34964,-34964l0 -1c0,-19231 15734,-34965 34964,-34965z"/>
   </clipPath>
 </defs>
 <g id="Слой_x0020_1">
  <metadata id="CorelCorpID_0Corel-Layer"/>
  <path fill="#3498DB" d="M45738 3633c-23254,0 -42105,18851 -42105,42105 0,28160 21440,38698 42105,52324 20664,-13626 42104,-24164 42104,-52324 0,-23254 -18850,-42105 -42104,-42105z"/>
  <path fill="whitesmoke" fill-rule="nonzero" d="M45738 7267c-10625,0 -20243,4306 -27204,11267 -6961,6961 -11267,16580 -11267,27204 0,23296 16460,33857 34074,45157 1353,869 2711,1740 4397,2840 1681,-1098 3046,-1973 4397,-2840 17613,-11300 34074,-21861 34074,-45157 0,-10624 -4306,-20243 -11268,-27204 -6961,-6961 -16579,-11267 -27203,-11267zm-32341 6130c8276,-8277 19711,-13397 32341,-13397 12629,0 24064,5120 32341,13397 8277,8276 13397,19711 13397,32341 0,27250 -18079,38849 -37424,51260 -2376,1524 -4760,3054 -6327,4087l-1988 1310 -1986 -1310c-1552,-1023 -3953,-2563 -6327,-4087 -19346,-12411 -37424,-24010 -37424,-51260 0,-12630 5120,-24065 13397,-32341z"/>
  <g>
  </g>
  <g clip-path="url(#id0)">
   <g>
    <path fill="#FEFEFE" fill-rule="nonzero" d="M59949 33618c0,202 -12,1508 -37,3058 -12,747 -29,1403 -52,1667 -399,4458 -1683,8433 -4261,11238 -2344,2550 -5647,4080 -10162,4080 -4340,0 -7562,-1452 -9895,-3886 -2568,-2679 -3933,-6469 -4463,-10742 -37,-303 -69,-1104 -93,-2022 -41,-1519 -62,-3018 -62,-3393l4483 0c0,561 15,2197 44,3287 19,706 44,1329 75,1585 419,3376 1415,6284 3238,8186 1503,1567 3667,2503 6673,2503 3138,0 5361,-985 6870,-2627 1851,-2013 2791,-5073 3105,-8594 12,-134 24,-685 35,-1352 13,-833 20,-2502 20,-2988l4482 0z"/>
    <path fill="#FEFEFE" fill-rule="nonzero" d="M31016 35222c-348,-1245 -830,-2490 -1442,-3733 -608,-1239 -1371,-2513 -2281,-3821l-1750 -2514 2940 -901c2716,-831 5431,-1816 8145,-2955 2704,-1136 5314,-2390 7825,-3762l1032 -564 1043 530c2671,1356 5354,2587 8046,3712 2662,1112 5352,2125 8063,3057l2726 937 -2372 3593c-1402,2079 -2838,4208 -3266,6206l-4377 -928c509,-2378 1754,-4498 3101,-6542 -1853,-679 -3716,-1407 -5591,-2191 -2427,-1014 -4861,-2119 -7304,-3330 -2385,1264 -4783,2402 -7193,3414 -1879,789 -3811,1520 -5793,2195 362,628 701,1262 1016,1903 738,1502 1320,3003 1739,4503l-4307 1191z"/>
    <path fill="#FEFEFE" fill-rule="nonzero" d="M59876 34265c-2681,2991 -10572,3944 -14439,3777 -3867,167 -12010,-534 -14691,-3524 5894,-4796 23283,-5474 29130,-253z"/>
    <polygon fill="#FEFEFE" fill-rule="nonzero" points="47763,24204 47763,28743 43280,28743 43280,24204 "/>
    <polygon fill="#FEFEFE" fill-rule="nonzero" points="45501,23285 48711,26494 45541,29663 42332,26454 "/>
    <path fill="#FEFEFE" fill-rule="nonzero" d="M37015 49275c1141,-474 2450,67 2924,1208 474,1141 -67,2450 -1208,2924 -1643,686 -3256,1307 -4596,1823 -4640,1786 -5279,2032 -8967,7666 -30,46 -48,84 -54,112 -4,20 3,48 18,81 52,108 160,219 315,321 174,114 393,204 651,260 5503,1196 12460,1838 19512,1880 6926,42 13949,-494 19786,-1647 252,-50 460,-128 618,-226 163,-100 276,-212 331,-321 17,-34 23,-71 16,-107 -7,-36 -21,-73 -42,-107 -3734,-6050 -4478,-6350 -10355,-8721 -1080,-436 -2308,-931 -3484,-1422 -1141,-474 -1682,-1783 -1208,-2924 474,-1141 1783,-1682 2924,-1208 1446,603 2502,1030 3432,1405 7086,2858 7982,3220 12490,10524 322,522 532,1059 638,1595 202,1022 42,2042 -419,2961 -424,845 -1101,1584 -1977,2125 -619,382 -1330,668 -2106,821 -6087,1202 -13421,1760 -20661,1717 -7392,-44 -14680,-716 -20440,-1968 -811,-176 -1539,-485 -2158,-890 -852,-558 -1507,-1302 -1908,-2142 -436,-915 -572,-1932 -350,-2953 120,-554 345,-1100 684,-1618 4464,-6820 5270,-7130 11121,-9381 1117,-430 2461,-948 4473,-1788z"/>
    <polygon fill="#FEFEFE" fill-rule="nonzero" points="47679,52294 47679,67546 43196,67546 43196,52294 "/>
    <path fill="#FEFEFE" fill-rule="nonzero" d="M51626 64188c-740,-17 -1325,-631 -1308,-1371 17,-740 631,-1325 1371,-1308 2685,66 8646,-538 8663,-539 736,-73 1393,466 1465,1203 73,736 -466,1393 -1202,1465 -18,2 -6127,620 -8989,550z"/>
   </g>
  </g>
  <path fill="none" d="M45737 8676l1 0c19231,0 34964,15734 34964,34965l0 1c0,19230 -15733,34964 -34964,34964l-1 0c-19230,0 -34964,-15734 -34964,-34964l0 -1c0,-19231 15734,-34965 34964,-34965z"/>
 </g>
</svg>
