<?xml version="1.0" encoding="UTF-8"?>
<!DOCTYPE svg PUBLIC "-//W3C//DTD SVG 1.1//EN" "http://www.w3.org/Graphics/SVG/1.1/DTD/svg11.dtd">
<!-- Creator: CorelDRAW X8 -->
<svg xmlns="http://www.w3.org/2000/svg" xml:space="preserve" width="425px" height="476px" version="1.1" shape-rendering="geometricPrecision" text-rendering="geometricPrecision" image-rendering="optimizeQuality" fill-rule="evenodd" clip-rule="evenodd"
viewBox="0 0 101997 114173"
 xmlns:xlink="http://www.w3.org/1999/xlink">
 <defs>
   <clipPath id="id0">
    <path d="M50998 9674l1 0c21442,0 38986,17544 38986,38987l0 0c0,21443 -17544,38986 -38986,38986l-1 0c-21443,0 -38986,-17543 -38986,-38986l0 0c0,-21443 17543,-38987 38986,-38987z"/>
   </clipPath>
 </defs>
 <g id="Слой_x0020_1">
  <metadata id="CorelCorpID_0Corel-Layer"/>
  <path fill="#3498DB" d="M50998 4051c-25928,0 -46947,21019 -46947,46947 0,31399 23906,43150 46947,58343 23042,-15193 46947,-26944 46947,-58343 0,-25928 -21018,-46947 -46947,-46947z"/>
  <path fill="whitesmoke" fill-rule="nonzero" d="M50998 8103c-11846,0 -22570,4801 -30332,12563 -7762,7762 -12563,18486 -12563,30332 0,25976 18353,37752 37993,50352 1509,969 3022,1939 4902,3166 1875,-1223 3397,-2200 4903,-3166 19639,-12600 37993,-24376 37993,-50352 0,-11846 -4801,-22570 -12563,-30332 -7762,-7762 -18487,-12563 -30333,-12563zm-36061 6834c9229,-9229 21979,-14937 36061,-14937 14083,0 26833,5709 36062,14937 9228,9229 14937,21979 14937,36061 0,30385 -20158,43318 -41728,57157 -2649,1699 -5307,3405 -7055,4557l-2216 1461 -2215 -1461c-1730,-1141 -4408,-2858 -7055,-4557 -21570,-13839 -41728,-26772 -41728,-57157 0,-14082 5709,-26832 14937,-36061z"/>
  <g>
  </g>
  <g clip-path="url(#id0)">
   <g>
    <path fill="#FEFEFE" fill-rule="nonzero" d="M53797 56761c351,-1331 1715,-2127 3046,-1776 1332,350 2127,1714 1777,3045 -820,3106 -2761,6535 -5190,9586 -2484,3121 -5531,5913 -8447,7608 -790,459 -1749,900 -2704,1188 -962,289 -1963,436 -2891,332 -1335,-149 -2470,-750 -3197,-2002 -165,-283 -299,-590 -398,-919 -240,-798 -382,-1395 -467,-1843l-137 -87c-1987,-1270 -2025,-2724 -992,-4339 434,-680 1030,-1167 1674,-1692 388,-316 997,251 915,-213 -132,-742 -613,-1454 -1332,-1941 -693,-468 -1611,-716 -2672,-585 -1370,167 -2616,-807 -2783,-2177 -40,-335 -13,-663 73,-970 37,-168 76,-325 114,-472 -1933,-119 -3712,-785 -3963,-3543 -135,-1486 532,-2621 1379,-4064 365,-622 783,-1333 1152,-2171 199,-452 452,-848 706,-1247l7 -11c-1257,-325 -2065,-1575 -1822,-2871 42,-227 115,-442 212,-640 109,-296 443,-1307 712,-3275 -1146,-620 -2151,-1383 -1886,-3208 1115,-7699 5919,-13135 11927,-16287 2627,-1377 5473,-2313 8325,-2803 2866,-493 5762,-544 8472,-151 5251,760 9842,3191 12350,7315 2157,1195 3759,2939 4886,5039 1787,3328 2349,7529 2035,11765 -304,4102 -1436,8301 -3062,11766 -1309,2789 -2972,5150 -4839,6701 187,638 420,1294 708,2008 461,1144 1073,2454 1869,4080 955,294 2093,668 3167,1021l9 3 1 -3c1224,403 1762,586 2066,683 1310,415 2036,1814 1620,3124 -415,1310 -1813,2036 -3123,1620 -1495,-476 -1818,-582 -2125,-683l1 -2c-1492,-491 -3104,-1022 -3906,-1249 -714,-157 -1353,-626 -1701,-1332 -1082,-2186 -1889,-3882 -2505,-5407 -631,-1565 -1051,-2927 -1334,-4390 -242,-1066 242,-2205 1251,-2747 1561,-839 3088,-2887 4331,-5536 1375,-2929 2333,-6501 2593,-10008 251,-3374 -145,-6625 -1448,-9052 -768,-1429 -1863,-2575 -3344,-3269 -478,-224 -889,-600 -1152,-1104 -1583,-3018 -5011,-4819 -9051,-5404 -2200,-318 -4569,-274 -6930,132 -2376,408 -4722,1175 -6860,2296 -4316,2263 -7829,6003 -9031,11190 1066,584 1967,1297 1803,2989 -150,1565 -373,2840 -593,3823 1420,911 2632,2586 1150,5551 -195,391 -391,697 -585,1001 -128,201 -255,400 -335,583 -445,1009 -968,1900 -1426,2678 -395,673 -724,993 -715,1098 13,142 32,220 57,250 75,-130 160,-253 255,-367 162,-369 369,-874 593,-883 458,-18 885,-35 1307,-13 102,0 205,5 309,17 1369,162 2348,1403 2187,2773 -52,433 -114,794 -184,1114 932,255 1785,656 2539,1166 1847,1248 3095,3163 3460,5220 357,2007 -752,3285 -1976,4344 49,76 94,155 135,237 241,484 264,738 302,1173 16,183 45,509 226,1203 140,-28 296,-69 461,-118 568,-172 1148,-439 1631,-720 2377,-1381 4920,-3732 7041,-6397 2034,-2554 3635,-5337 4272,-7751z"/>
    <path fill="#FEFEFE" fill-rule="nonzero" d="M44540 75612c-1315,404 -2709,-334 -3114,-1650 -404,-1315 335,-2709 1650,-3114 2676,-826 4847,-494 6553,934 1519,1273 2446,3343 2828,6168 183,1364 -774,2619 -2138,2802 -1364,183 -2618,-774 -2802,-2138 -210,-1555 -569,-2569 -1090,-3005 -334,-280 -957,-284 -1887,3z"/>
    <path fill="#FEFEFE" fill-rule="nonzero" d="M28366 42372c-1375,118 -2586,-900 -2704,-2275 -119,-1374 900,-2585 2274,-2704 3446,-302 6437,-746 8980,-1265 2936,-599 5346,-1308 7210,-2019 1288,-491 2731,156 3221,1444 143,374 189,761 152,1134 -64,1978 825,3497 1674,4950 609,1040 1203,2057 1615,3171 654,-880 1418,-1485 2232,-1882 1061,-517 2150,-653 3172,-567 1309,111 2503,597 3324,1066 2101,1200 3161,3634 3268,6258 41,1012 -57,2059 -288,3063 -238,1035 -616,2040 -1127,2933 -190,332 -397,651 -622,952l142 67c1503,705 3006,1411 4171,1744 1326,377 2095,1758 1718,3084 -377,1326 -1759,2096 -3085,1719 -1465,-420 -3190,-1228 -4913,-2037 -1503,-705 -3007,-1411 -4171,-1743l1 -5c-1008,-287 -1764,-1195 -1807,-2299 -54,-1375 1017,-2534 2392,-2587 765,-31 1395,-596 1840,-1374 271,-474 472,-1010 600,-1567 135,-588 193,-1188 170,-1755 -41,-1003 -293,-1847 -769,-2119 -329,-188 -790,-382 -1254,-421 -211,-17 -415,0 -575,78 -187,91 -386,290 -589,645l-4 -3c-398,702 -705,1810 -845,3480l-8 0c-8,97 -21,195 -41,293 -275,1348 -1591,2218 -2939,1943l-423 -88c-999,-204 -1415,-289 -2900,-936 -1241,-478 -1894,-1855 -1464,-3127 765,-2250 -148,-3813 -1116,-5467 -772,-1320 -1566,-2679 -2011,-4366 -1459,429 -3112,843 -4955,1219 -2802,571 -5994,1051 -9546,1363z"/>
    <path fill="#FEFEFE" fill-rule="nonzero" d="M34691 49413c-825,1100 -2386,1323 -3485,498 -1100,-825 -1323,-2386 -498,-3485 1894,-2527 6963,-2941 6979,-2946 1316,-398 3174,-874 3573,442 399,1315 -250,1955 -1566,2354 -11,3 -4114,1951 -5003,3137z"/>
    <path fill="#FEFEFE" fill-rule="nonzero" d="M69304 70877c-7707,6452 -20635,11765 -20672,11780l-1894 -4608c34,-14 12230,-5026 19364,-10999l3202 3827z"/>
    <path fill="#FEFEFE" fill-rule="nonzero" d="M34154 49956c-891,338 -1888,-110 -2226,-1001 -339,-891 110,-1888 1001,-2226 2047,-778 5169,860 5180,863 919,254 2184,665 1929,1584 -254,918 -872,1052 -1790,798 -8,-2 -3133,-383 -4094,-18z"/>
   </g>
  </g>
  <path fill="none" d="M50998 9674l1 0c21442,0 38986,17544 38986,38987l0 0c0,21443 -17544,38986 -38986,38986l-1 0c-21443,0 -38986,-17543 -38986,-38986l0 0c0,-21443 17543,-38987 38986,-38987z"/>
 </g>
</svg>
