<?xml version="1.0" encoding="UTF-8"?>
<!DOCTYPE svg PUBLIC "-//W3C//DTD SVG 1.1//EN" "http://www.w3.org/Graphics/SVG/1.1/DTD/svg11.dtd">
<!-- Creator: CorelDRAW X8 -->
<svg xmlns="http://www.w3.org/2000/svg" xml:space="preserve" width="425px" height="476px" version="1.1" shape-rendering="geometricPrecision" text-rendering="geometricPrecision" image-rendering="optimizeQuality" fill-rule="evenodd" clip-rule="evenodd"
viewBox="0 0 96450 107964"
 xmlns:xlink="http://www.w3.org/1999/xlink">
 <defs>
   <clipPath id="id0">
    <path d="M48225 9148l0 0c20277,0 36866,16590 36866,36866l0 1c0,20276 -16589,36866 -36866,36866l0 0c-20277,0 -36866,-16590 -36866,-36866l0 -1c0,-20276 16589,-36866 36866,-36866z"/>
   </clipPath>
 </defs>
 <g id="Слой_x0020_1">
  <metadata id="CorelCorpID_0Corel-Layer"/>
  <path fill="#3498DB" d="M48225 3831c-24518,0 -44394,19876 -44394,44394 0,29691 22605,40803 44394,55170 21789,-14367 44394,-25479 44394,-55170 0,-24518 -19876,-44394 -44394,-44394z"/>
  <path fill="whitesmoke" fill-rule="nonzero" d="M48225 7662c-11202,0 -21343,4540 -28683,11880 -7340,7340 -11880,17481 -11880,28683 0,24563 17355,35698 35927,47613 1427,916 2858,1834 4636,2995 1773,-1158 3212,-2081 4636,-2995 18571,-11915 35927,-23050 35927,-47613 0,-11202 -4540,-21343 -11880,-28683 -7340,-7340 -17481,-11880 -28683,-11880zm-34100 6463c8727,-8727 20784,-14125 34100,-14125 13317,0 25373,5398 34100,14125 8727,8727 14125,20783 14125,34100 0,28732 -19062,40962 -39459,54048 -2505,1607 -5018,3220 -6671,4309l-2095 1382 -2095 -1382c-1636,-1078 -4168,-2702 -6671,-4309 -20397,-13086 -39459,-25316 -39459,-54048 0,-13316 5398,-25373 14125,-34100z"/>
  <g>
  </g>
  <g clip-path="url(#id0)">
   <g>
    <path fill="#FEFEFE" fill-rule="nonzero" d="M64770 41321c-2587,-2588 -5979,-3882 -9369,-3882 -891,0 -1298,1 -2174,179 -375,-1821 -1780,-3559 -2592,-4698 1559,-417 3162,-626 4766,-626 4707,1 9416,1796 13007,5388 3592,3591 5387,8300 5388,13008 -1,4707 -1796,9416 -5388,13008 -3591,3591 -8300,5387 -13007,5387 -4708,0 -9417,-1796 -13008,-5387 -3592,-3592 -5387,-8301 -5388,-13008 1,-4708 1797,-9417 5388,-13008 77,-77 154,-152 232,-228 1256,1131 2435,3009 3104,4179 -2385,2544 -3579,5801 -3579,9057 0,3391 1294,6782 3881,9369 2588,2587 5979,3881 9370,3882 3390,-1 6782,-1295 9369,-3882 2587,-2587 3881,-5978 3881,-9369 0,-3391 -1294,-6782 -3881,-9369z"/>
    <path fill="#FEFEFE" fill-rule="nonzero" d="M44984 37167c-800,-800 -1702,-1437 -2663,-1912l3770 -3770c897,578 1747,1259 2532,2044 2970,2970 4455,6863 4455,10756 0,3894 -1485,7787 -4455,10757 -911,911 -1617,1503 -2674,2134 -1242,-1339 -2012,-3531 -2052,-4829 2509,-1655 4036,-5120 4036,-8062 0,-2575 -983,-5152 -2949,-7118zm-7797 22315c-3664,-162 -7281,-1642 -10078,-4439 -2970,-2971 -4455,-6865 -4455,-10757 0,-3894 1485,-7787 4455,-10757 791,-791 1647,-1476 2551,-2056l3772 3772c-970,475 -1879,1116 -2685,1922 -1966,1966 -2948,4543 -2948,7119 -1,2576 982,5152 2948,7118 1391,1391 3087,2289 4873,2696 19,1900 804,3890 1567,5382z"/>
    <path fill="#FEFEFE" fill-rule="nonzero" d="M46441 28495l-8573 8573 -8642 -8641 3389 -5483 10302 0 3524 5551zm-8573 1296l1703 -1703 -3406 0 1703 1703z"/>
    <polygon fill="#FEFEFE" fill-rule="nonzero" points="68114,41625 47274,65166 43747,62046 64587,38505 "/>
   </g>
  </g>
  <path fill="none" d="M48225 9148l0 0c20277,0 36866,16590 36866,36866l0 1c0,20276 -16589,36866 -36866,36866l0 0c-20277,0 -36866,-16590 -36866,-36866l0 -1c0,-20276 16589,-36866 36866,-36866z"/>
 </g>
</svg>
