<?xml version="1.0" encoding="UTF-8"?>
<!DOCTYPE svg PUBLIC "-//W3C//DTD SVG 1.1//EN" "http://www.w3.org/Graphics/SVG/1.1/DTD/svg11.dtd">
<!-- Creator: CorelDRAW X8 -->
<svg xmlns="http://www.w3.org/2000/svg" xml:space="preserve" width="425px" height="476px" version="1.1" shape-rendering="geometricPrecision" text-rendering="geometricPrecision" image-rendering="optimizeQuality" fill-rule="evenodd" clip-rule="evenodd"
viewBox="0 0 101997 114173"
 xmlns:xlink="http://www.w3.org/1999/xlink">
 <defs>
   <clipPath id="id0">
    <path d="M50998 8175l1 0c21442,0 38986,17543 38986,38986l0 1c0,21442 -17544,38986 -38986,38986l-1 0c-21443,0 -38986,-17544 -38986,-38986l0 -1c0,-21443 17543,-38986 38986,-38986z"/>
   </clipPath>
 </defs>
 <g id="Слой_x0020_1">
  <metadata id="CorelCorpID_0Corel-Layer"/>
  <path fill="#2ECC71" d="M50998 4051c-25928,0 -46947,21019 -46947,46947 0,31399 23906,43150 46947,58343 23042,-15193 46947,-26944 46947,-58343 0,-25928 -21018,-46947 -46947,-46947z"/>
  <path fill="whitesmoke" fill-rule="nonzero" d="M50998 8103c-11846,0 -22570,4801 -30332,12563 -7762,7762 -12563,18486 -12563,30332 0,25976 18353,37752 37993,50352 1509,969 3022,1939 4902,3166 1875,-1223 3397,-2200 4903,-3166 19639,-12600 37993,-24376 37993,-50352 0,-11846 -4801,-22570 -12563,-30332 -7762,-7762 -18487,-12563 -30333,-12563zm-36061 6834c9229,-9229 21979,-14937 36061,-14937 14083,0 26833,5709 36062,14937 9228,9229 14937,21979 14937,36061 0,30385 -20158,43318 -41728,57157 -2649,1699 -5307,3405 -7055,4557l-2216 1461 -2215 -1461c-1730,-1141 -4408,-2858 -7055,-4557 -21570,-13839 -41728,-26772 -41728,-57157 0,-14082 5709,-26832 14937,-36061z"/>
  <g>
  </g>
  <g clip-path="url(#id0)">
   <g>
    <path fill="#FEFEFE" fill-rule="nonzero" d="M53022 70818c-1222,899 -2593,1614 -4070,2100l1 3c-1429,470 -2951,725 -4525,725l-935 0c-4006,0 -7642,-1633 -10276,-4267 -2633,-2633 -4266,-6269 -4266,-10275l0 -23886c0,-4006 1633,-7642 4266,-10276 2633,-2633 6270,-4266 10276,-4266l935 0c4006,0 7642,1633 10275,4267 2634,2633 4267,6269 4267,10275l0 2614 -4998 0 0 -2614c0,-2626 -1073,-5012 -2802,-6742 -1729,-1729 -4115,-2802 -6742,-2802l-935 0c-2627,0 -5013,1073 -6742,2802 -1729,1729 -2802,4115 -2802,6742l0 23886c0,2627 1073,5013 2802,6742 1729,1729 4115,2802 6742,2802l935 0c1038,0 2035,-166 2963,-471l10 0c965,-317 1865,-787 2673,-1382l2948 4023z"/>
    <polygon fill="#FEFEFE" fill-rule="nonzero" points="31544,44662 44849,44662 44849,49660 31544,49660 "/>
    <path fill="#FEFEFE" fill-rule="nonzero" d="M60831 34972c5339,0 10174,2165 13673,5664 3499,3499 5664,8334 5664,13673 0,5339 -2165,10174 -5664,13673 -3499,3499 -8334,5664 -13673,5664 -5339,0 -10174,-2165 -13673,-5664 -3499,-3499 -5664,-8334 -5664,-13673 0,-5339 2165,-10174 5664,-13673 3499,-3499 8334,-5664 13673,-5664zm10139 9198c-2594,-2595 -6179,-4200 -10139,-4200 -3960,0 -7545,1605 -10140,4200 -2594,2594 -4199,6179 -4199,10139 0,3960 1605,7545 4199,10139 2595,2595 6180,4200 10140,4200 3960,0 7545,-1605 10139,-4200 2595,-2594 4200,-6179 4200,-10139 0,-3960 -1605,-7545 -4200,-10139z"/>
    <path fill="#FEFEFE" fill-rule="nonzero" d="M51138 61100c-1267,534 -2727,-61 -3261,-1328 -533,-1266 61,-2726 1328,-3260l21319 -8994c1267,-534 2727,61 3260,1328 534,1267 -61,2727 -1328,3260l-21318 8994z"/>
    <path fill="#FEFEFE" fill-rule="nonzero" d="M39690 35513c0,828 -672,1500 -1500,1500 -828,0 -1499,-672 -1499,-1500 0,-1914 780,-3652 2039,-4911l90 -83c1252,-1209 2952,-1955 4821,-1955 828,0 1499,671 1499,1499 0,828 -671,1500 -1499,1500 -1057,0 -2018,416 -2728,1093l-63 67c-716,715 -1160,1703 -1160,2790z"/>
   </g>
  </g>
  <path fill="none" d="M50998 8175l1 0c21442,0 38986,17543 38986,38986l0 1c0,21442 -17544,38986 -38986,38986l-1 0c-21443,0 -38986,-17544 -38986,-38986l0 -1c0,-21443 17543,-38986 38986,-38986z"/>
 </g>
</svg>
