<?xml version="1.0" encoding="UTF-8"?>
<!DOCTYPE svg PUBLIC "-//W3C//DTD SVG 1.1//EN" "http://www.w3.org/Graphics/SVG/1.1/DTD/svg11.dtd">
<!-- Creator: CorelDRAW X8 -->
<svg xmlns="http://www.w3.org/2000/svg" xml:space="preserve" width="425px" height="476px" version="1.1" shape-rendering="geometricPrecision" text-rendering="geometricPrecision" image-rendering="optimizeQuality" fill-rule="evenodd" clip-rule="evenodd"
viewBox="0 0 96450 107964"
 xmlns:xlink="http://www.w3.org/1999/xlink">
 <defs>
   <clipPath id="id0">
    <path d="M48225 8887l0 0c20277,0 36866,16589 36866,36866l0 0c0,20277 -16589,36866 -36866,36866l0 0c-20277,0 -36866,-16589 -36866,-36866l0 0c0,-20277 16589,-36866 36866,-36866z"/>
   </clipPath>
 </defs>
 <g id="Слой_x0020_1">
  <metadata id="CorelCorpID_0Corel-Layer"/>
  <path fill="#9B59B6" d="M48225 3831c-24518,0 -44394,19876 -44394,44394 0,29691 22605,40803 44394,55170 21789,-14367 44394,-25479 44394,-55170 0,-24518 -19876,-44394 -44394,-44394z"/>
  <path fill="whitesmoke" fill-rule="nonzero" d="M48225 7662c-11202,0 -21343,4540 -28683,11880 -7340,7340 -11880,17481 -11880,28683 0,24563 17355,35698 35927,47613 1427,916 2858,1834 4636,2995 1773,-1158 3212,-2081 4636,-2995 18571,-11915 35927,-23050 35927,-47613 0,-11202 -4540,-21343 -11880,-28683 -7340,-7340 -17481,-11880 -28683,-11880zm-34100 6463c8727,-8727 20784,-14125 34100,-14125 13317,0 25373,5398 34100,14125 8727,8727 14125,20783 14125,34100 0,28732 -19062,40962 -39459,54048 -2505,1607 -5018,3220 -6671,4309l-2095 1382 -2095 -1382c-1636,-1078 -4168,-2702 -6671,-4309 -20397,-13086 -39459,-25316 -39459,-54048 0,-13316 5398,-25373 14125,-34100z"/>
  <g>
  </g>
  <g clip-path="url(#id0)">
   <g>
    <path fill="#FEFEFE" fill-rule="nonzero" d="M25393 30995c-1300,-56 -2308,-1156 -2252,-2455 56,-1300 1155,-2309 2455,-2253 561,24 1017,53 1525,85 1909,121 4573,289 7187,120 3217,-207 6174,-458 8867,-686 7649,-648 13153,-1114 23142,-296l9 1c701,59 1363,264 1965,588 1038,559 1874,1470 2408,2592 490,1033 727,2251 618,3523 -42,485 -133,980 -280,1478 692,1038 1216,2386 1293,3867 58,1123 -124,2325 -659,3527 150,209 292,428 424,657 611,1061 1043,2376 1173,3691 141,1420 -63,2884 -745,4130 -87,159 -180,313 -281,462 262,717 409,1516 433,2332 24,776 -50,1575 -228,2320 -190,801 -508,1585 -961,2281 -900,1383 -2262,2341 -4143,2397l-65 1 0 8c-1785,0 -3467,-99 -4948,-187 -2761,-164 -4605,-272 -5129,339 -120,140 284,236 454,1110 246,1270 753,2927 1563,4861 440,1051 787,2221 922,3408 126,1105 66,2227 -268,3296 -482,1545 -1139,2590 -1898,3242 -1012,868 -2119,1088 -3253,823 -861,-202 -1646,-703 -2335,-1398 -1181,-1192 -2206,-3136 -2748,-4877 -696,-2236 -3016,-4023 -5166,-5678 -1383,-1066 -2710,-2088 -3766,-3295 -1500,-1714 -2361,-3149 -3065,-4321 -848,-1412 -1325,-2207 -3222,-2242 -4285,-81 -8702,41 -8714,41 -1300,25 -2375,-1009 -2401,-2308 -25,-1300 1008,-2375 2308,-2400 13,0 4490,-124 8881,-41 4521,84 5483,1686 7191,4532 606,1010 1349,2247 2566,3638 744,850 1899,1739 3102,2666 2720,2095 5654,4354 6791,8005 269,865 685,1769 1153,2432l71 -223c125,-398 141,-873 84,-1375 -79,-696 -303,-1429 -590,-2115 -938,-2241 -1537,-4220 -1840,-5785 -451,-2326 -198,-4132 598,-5061 2054,-2393 4829,-2228 8988,-1982 1334,79 2850,169 4661,169 94,-28 186,-121 267,-246 134,-205 239,-485 315,-805 90,-375 128,-753 117,-1101 -14,-491 4,-822 -7,-830 -302,-198 -565,-468 -757,-803 -647,-1126 -259,-2564 868,-3212 138,-79 242,-194 316,-330 196,-359 246,-870 193,-1417l0 -9c-64,-649 -272,-1289 -565,-1799 -146,-253 -284,-440 -396,-526 -131,-68 -258,-149 -378,-244 -1025,-805 -1203,-2289 -397,-3314 609,-775 812,-1540 778,-2204 -43,-819 -382,-1475 -740,-1799 -902,-691 -1195,-1954 -640,-2986 218,-405 334,-809 367,-1187 37,-433 -31,-819 -175,-1123 -102,-215 -233,-374 -377,-451 -35,-19 -76,-32 -119,-35 -9598,-786 -14945,-333 -22376,296 -2553,216 -5357,454 -8958,686 -2906,188 -5745,8 -7778,-120 -617,-39 -1159,-73 -1433,-85z"/>
    <path fill="#FEFEFE" fill-rule="nonzero" d="M31888 28723c0,-1305 1058,-2363 2363,-2363 1305,0 2363,1058 2363,2363l0 23982c0,1305 -1058,2364 -2363,2364 -1305,0 -2363,-1059 -2363,-2364l0 -23982z"/>
    <path fill="#FEFEFE" fill-rule="nonzero" d="M23212 28723c0,-1305 1058,-2363 2363,-2363 1305,0 2363,1058 2363,2363l0 23982c0,1305 -1058,2364 -2363,2364 -1305,0 -2363,-1059 -2363,-2364l0 -23982z"/>
   </g>
  </g>
  <path fill="none" d="M48225 8887l0 0c20277,0 36866,16589 36866,36866l0 0c0,20277 -16589,36866 -36866,36866l0 0c-20277,0 -36866,-16589 -36866,-36866l0 0c0,-20277 16589,-36866 36866,-36866z"/>
 </g>
</svg>
