<?xml version="1.0" encoding="UTF-8"?>
<!DOCTYPE svg PUBLIC "-//W3C//DTD SVG 1.1//EN" "http://www.w3.org/Graphics/SVG/1.1/DTD/svg11.dtd">
<!-- Creator: CorelDRAW X8 -->
<svg xmlns="http://www.w3.org/2000/svg" xml:space="preserve" width="425px" height="476px" version="1.1" shape-rendering="geometricPrecision" text-rendering="geometricPrecision" image-rendering="optimizeQuality" fill-rule="evenodd" clip-rule="evenodd"
viewBox="0 0 96450 107964"
 xmlns:xlink="http://www.w3.org/1999/xlink">
 <defs>
   <clipPath id="id0">
    <path d="M48225 7730l0 0c20277,0 36866,16590 36866,36866l0 1c0,20276 -16589,36866 -36866,36866l0 0c-20277,0 -36866,-16590 -36866,-36866l0 -1c0,-20276 16589,-36866 36866,-36866z"/>
   </clipPath>
 </defs>
 <g id="Слой_x0020_1">
  <metadata id="CorelCorpID_0Corel-Layer"/>
  <path fill="#2ECC71" d="M48225 3831c-24518,0 -44394,19876 -44394,44394 0,29691 22605,40803 44394,55170 21789,-14367 44394,-25479 44394,-55170 0,-24518 -19876,-44394 -44394,-44394z"/>
  <path fill="whitesmoke" fill-rule="nonzero" d="M48225 7662c-11202,0 -21343,4540 -28683,11880 -7340,7340 -11880,17481 -11880,28683 0,24563 17355,35698 35927,47613 1427,916 2858,1834 4636,2995 1773,-1158 3212,-2081 4636,-2995 18571,-11915 35927,-23050 35927,-47613 0,-11202 -4540,-21343 -11880,-28683 -7340,-7340 -17481,-11880 -28683,-11880zm-34100 6463c8727,-8727 20784,-14125 34100,-14125 13317,0 25373,5398 34100,14125 8727,8727 14125,20783 14125,34100 0,28732 -19062,40962 -39459,54048 -2505,1607 -5018,3220 -6671,4309l-2095 1382 -2095 -1382c-1636,-1078 -4168,-2702 -6671,-4309 -20397,-13086 -39459,-25316 -39459,-54048 0,-13316 5398,-25373 14125,-34100z"/>
  <g>
  </g>
  <g clip-path="url(#id0)">
   <g>
    <path fill="#FEFEFE" fill-rule="nonzero" d="M33989 35256l6201 -3473 0 -11026c0,-1144 814,-2099 1894,-2316 2076,-490 4152,-742 6229,-746 2094,-5 4153,252 6175,782 1061,275 1765,1232 1765,2280l7 0 0 11026 6201 3473c826,462 1487,1115 1948,1903 464,792 713,1688 713,2632l0 25806c0,1434 -584,2735 -1525,3676 -924,923 -2193,1503 -3594,1525 -3872,485 -7768,709 -11690,700 -3975,-9 -7939,-252 -11901,-701 -1387,-31 -2643,-608 -3559,-1524 -941,-941 -1525,-2242 -1525,-3676l0 -25806c0,-944 249,-1840 713,-2632 461,-788 1122,-1441 1948,-1903zm9718 -33l-7411 4149c-94,53 -160,111 -194,169 -31,53 -48,138 -48,250l0 25806c0,129 54,248 141,335 86,86 205,140 334,140l0 3c89,0 178,5 268,16 3909,448 7749,690 11516,699 3730,9 7430,-204 11104,-664 162,-35 331,-54 503,-54 130,0 249,-54 335,-140 87,-87 141,-206 141,-335l0 -25806c0,-112 -17,-197 -48,-250 -34,-58 -100,-116 -194,-169l-7296 -4085c-784,-384 -1324,-1190 -1324,-2123l0 -10504c-1064,-174 -2138,-260 -3221,-257 -1106,2 -2239,98 -3397,287l0 10474 -3 0c-1,826 -435,1627 -1206,2059z"/>
    <path fill="#FEFEFE" fill-rule="nonzero" d="M40281 55480c-1116,-667 -1480,-2114 -812,-3230 667,-1117 2114,-1480 3230,-813l5526 3308 5525 -3308c1117,-667 2563,-304 3231,813 668,1116 304,2563 -812,3230l-3358 2011 3358 2010c1116,668 1480,2115 812,3231 -668,1116 -2114,1480 -3231,812l-5525 -3308 -5526 3308c-1116,668 -2563,304 -3230,-812 -668,-1116 -304,-2563 812,-3231l3358 -2010 -3358 -2011z"/>
    <path fill="#FEFEFE" fill-rule="nonzero" d="M42008 26257c2101,-501 4203,-760 6305,-764 2094,-4 4153,253 6175,783l-1182 4560c-1639,-430 -3305,-638 -4993,-635 -1679,3 -3419,224 -5215,653l-1090 -4597z"/>
    <path fill="#FEFEFE" fill-rule="nonzero" d="M48225 37625c1926,0 3677,785 4951,2056l9 9c1270,1274 2056,3025 2056,4951 0,1928 -787,3681 -2060,4956l4 4c-1269,1270 -3023,2056 -4960,2056 -1937,0 -3691,-786 -4960,-2056 -1270,-1269 -2056,-3023 -2056,-4960 0,-1937 786,-3691 2056,-4960l4 4c1275,-1273 3028,-2060 4956,-2060zm1619 5388c-408,-408 -981,-661 -1619,-661 -638,0 -1211,253 -1619,661l0 9c-414,414 -670,987 -670,1619 0,632 256,1205 670,1619 414,414 987,670 1619,670 632,0 1205,-256 1619,-670l9 0c408,-408 661,-981 661,-1619 0,-638 -253,-1211 -661,-1619l-9 -9z"/>
   </g>
  </g>
  <path fill="none" d="M48225 7730l0 0c20277,0 36866,16590 36866,36866l0 1c0,20276 -16589,36866 -36866,36866l0 0c-20277,0 -36866,-16590 -36866,-36866l0 -1c0,-20276 16589,-36866 36866,-36866z"/>
 </g>
</svg>
