<?xml version="1.0" encoding="UTF-8"?>
<!DOCTYPE svg PUBLIC "-//W3C//DTD SVG 1.1//EN" "http://www.w3.org/Graphics/SVG/1.1/DTD/svg11.dtd">
<!-- Creator: CorelDRAW X8 -->
<svg xmlns="http://www.w3.org/2000/svg" xml:space="preserve" width="425px" height="476px" version="1.1" shape-rendering="geometricPrecision" text-rendering="geometricPrecision" image-rendering="optimizeQuality" fill-rule="evenodd" clip-rule="evenodd"
viewBox="0 0 91476 102395"
 xmlns:xlink="http://www.w3.org/1999/xlink">
 <defs>
   <clipPath id="id0">
    <path d="M45737 7668l1 0c19231,0 34964,15734 34964,34964l0 1c0,19231 -15733,34964 -34964,34964l-1 0c-19230,0 -34964,-15733 -34964,-34964l0 -1c0,-19230 15734,-34964 34964,-34964z"/>
   </clipPath>
 </defs>
 <g id="Слой_x0020_1">
  <metadata id="CorelCorpID_0Corel-Layer"/>
  <path fill="#2ECC71" d="M45738 3633c-23254,0 -42105,18851 -42105,42105 0,28160 21440,38698 42105,52324 20664,-13626 42104,-24164 42104,-52324 0,-23254 -18850,-42105 -42104,-42105z"/>
  <path fill="whitesmoke" fill-rule="nonzero" d="M45738 7267c-10625,0 -20243,4306 -27204,11267 -6961,6961 -11267,16580 -11267,27204 0,23296 16460,33857 34074,45157 1353,869 2711,1740 4397,2840 1681,-1098 3046,-1973 4397,-2840 17613,-11300 34074,-21861 34074,-45157 0,-10624 -4306,-20243 -11268,-27204 -6961,-6961 -16579,-11267 -27203,-11267zm-32341 6130c8276,-8277 19711,-13397 32341,-13397 12629,0 24064,5120 32341,13397 8277,8276 13397,19711 13397,32341 0,27250 -18079,38849 -37424,51260 -2376,1524 -4760,3054 -6327,4087l-1988 1310 -1986 -1310c-1552,-1023 -3953,-2563 -6327,-4087 -19346,-12411 -37424,-24010 -37424,-51260 0,-12630 5120,-24065 13397,-32341z"/>
  <g>
  </g>
  <g clip-path="url(#id0)">
   <g>
    <path fill="#FEFEFE" fill-rule="nonzero" d="M30607 62254c0,-1203 977,-2179 2180,-2179 1204,0 2180,976 2180,2179l0 3621c0,1204 -976,2180 -2180,2180l-8845 0c-1204,0 -2180,-976 -2180,-2180l0 -6872c0,-300 -59,-994 -118,-1689 -67,-793 -134,-1587 -134,-2045 0,-2180 125,-4562 356,-6982 231,-2426 567,-4833 985,-7055 221,-1181 1357,-1959 2537,-1738 1181,221 1959,1358 1738,2538 -401,2126 -719,4399 -935,6664 -208,2188 -322,4427 -322,6573 0,298 59,994 118,1688 67,793 135,1588 135,2046l0 4693 4485 0 0 -1442z"/>
    <path fill="#FEFEFE" fill-rule="nonzero" d="M67605 60250c1199,84 2103,1126 2018,2325 -84,1199 -1125,2102 -2324,2018 -7349,-520 -14589,-813 -21715,-829 -7127,-15 -14253,245 -21390,829 -1200,94 -2248,-802 -2342,-2001 -94,-1199 802,-2248 2001,-2342 7143,-585 14388,-845 21731,-829 7345,16 14680,309 22021,829z"/>
    <path fill="#FEFEFE" fill-rule="nonzero" d="M64350 42032c-221,-1180 556,-2317 1737,-2538 1180,-221 2316,557 2537,1738 419,2222 754,4629 986,7055 230,2420 356,4802 356,6982 0,457 -68,1252 -135,2045 -58,695 -118,1390 -118,1689l0 6872c0,1204 -976,2180 -2180,2180l-8845 0c-1204,0 -2180,-976 -2180,-2180l0 -3621c0,-1203 976,-2179 2180,-2179 1204,0 2180,976 2180,2179l0 1442 4485 0 0 -4693c0,-459 68,-1252 135,-2046 59,-694 118,-1389 118,-1688 0,-2146 -114,-4385 -322,-6573 -216,-2265 -534,-4538 -934,-6664z"/>
    <path fill="#FEFEFE" fill-rule="nonzero" d="M19588 42059c-1166,-282 -1883,-1456 -1601,-2622 282,-1167 1456,-1883 2623,-1601 794,192 1621,440 2506,782 195,76 393,156 594,241 778,-1939 1593,-3831 2450,-5669 1179,-2527 2401,-4863 3674,-6969 365,-606 979,-970 1633,-1041 1566,-255 3068,-467 4513,-634 1505,-175 3007,-311 4514,-408 1199,-75 2232,836 2308,2035 75,1199 -837,2233 -2036,2308 -1398,89 -2827,220 -4292,390 -1150,134 -2289,287 -3422,461 -1040,1789 -2023,3694 -2958,5698 -1084,2324 -2142,4870 -3179,7593l-4 -2c-37,96 -81,191 -132,283 -583,1049 -1906,1426 -2955,843 -823,-456 -1574,-804 -2275,-1075 -693,-268 -1340,-463 -1961,-613zm31286 -13567c-1199,-75 -2110,-1109 -2035,-2308 75,-1199 1108,-2110 2307,-2035 1484,98 2959,234 4434,407 1454,170 2967,385 4546,643 655,107 1194,496 1512,1024l3 -2c1299,2148 2523,4482 3682,6969 26,55 49,111 70,168 829,1785 1618,3621 2372,5501 201,-85 399,-165 595,-241 884,-342 1712,-590 2506,-782 1166,-282 2340,434 2622,1601 282,1166 -435,2340 -1601,2622 -621,150 -1268,345 -1961,613 -665,257 -1376,584 -2151,1007 -125,80 -260,149 -405,204 -1124,428 -2382,-136 -2810,-1260 -1012,-2660 -2046,-5152 -3104,-7433 -30,-52 -58,-105 -83,-160 -948,-2032 -1930,-3939 -2951,-5698 -1103,-169 -2214,-320 -3335,-451 -1441,-168 -2843,-299 -4213,-389z"/>
    <path fill="#FEFEFE" fill-rule="nonzero" d="M25912 39811c3343,934 6468,1518 9657,1868 3186,351 6488,467 10169,467 3681,0 6982,-116 10168,-467 3189,-350 6314,-934 9657,-1868l1159 4190c-3589,1002 -6940,1629 -10356,2004 -3419,376 -6854,501 -10628,501 -3774,0 -7210,-125 -10629,-501 -3416,-375 -6767,-1002 -10355,-2004l1158 -4190z"/>
    <path fill="#FEFEFE" fill-rule="nonzero" d="M30750 52571c-1194,-112 -2071,-1173 -1958,-2367 113,-1194 1173,-2071 2367,-1959 713,68 1347,180 1987,291 753,133 1518,267 2025,290 1199,51 2129,1066 2078,2265 -52,1199 -1066,2129 -2265,2078 -871,-40 -1736,-192 -2587,-341 -630,-110 -1254,-220 -1647,-257zm29566 -4326c1194,-112 2254,765 2367,1959 113,1194 -764,2255 -1958,2367 -393,37 -1016,147 -1647,257 -851,149 -1716,301 -2587,341 -1199,51 -2213,-879 -2265,-2078 -51,-1199 879,-2214 2078,-2265 507,-23 1272,-157 2025,-290 640,-111 1275,-223 1987,-291z"/>
    <path fill="#FEFEFE" fill-rule="nonzero" d="M54994 56804c1199,85 2102,1126 2018,2325 -85,1199 -1126,2103 -2325,2018 -3082,-218 -6090,-340 -9014,-347 -2925,-7 -5878,103 -8868,347 -1199,94 -2248,-802 -2342,-2001 -93,-1199 803,-2248 2002,-2342 2996,-245 6068,-354 9208,-347 3142,7 6245,130 9321,347z"/>
    <path fill="#FEFEFE" fill-rule="nonzero" d="M43558 19390c0,-1204 976,-2180 2180,-2180 1203,0 2180,976 2180,2180l0 13243c0,1204 -977,2180 -2180,2180 -1204,0 -2180,-976 -2180,-2180l0 -13243z"/>
    <path fill="#FEFEFE" fill-rule="nonzero" d="M43558 37947c0,-1204 976,-2180 2180,-2180 1204,0 2180,976 2180,2180l0 8c0,1204 -976,2180 -2180,2180 -1204,0 -2180,-976 -2180,-2180l0 -8z"/>
   </g>
  </g>
  <path fill="none" d="M45737 7668l1 0c19231,0 34964,15734 34964,34964l0 1c0,19231 -15733,34964 -34964,34964l-1 0c-19230,0 -34964,-15733 -34964,-34964l0 -1c0,-19230 15734,-34964 34964,-34964z"/>
 </g>
</svg>
