<?xml version="1.0" encoding="UTF-8"?>
<!DOCTYPE svg PUBLIC "-//W3C//DTD SVG 1.1//EN" "http://www.w3.org/Graphics/SVG/1.1/DTD/svg11.dtd">
<!-- Creator: CorelDRAW X8 -->
<svg xmlns="http://www.w3.org/2000/svg" xml:space="preserve" width="425px" height="476px" version="1.1" shape-rendering="geometricPrecision" text-rendering="geometricPrecision" image-rendering="optimizeQuality" fill-rule="evenodd" clip-rule="evenodd"
viewBox="0 0 96450 107964"
 xmlns:xlink="http://www.w3.org/1999/xlink">
 <defs>
   <clipPath id="id0">
    <path d="M48225 7735l0 0c20277,0 36866,16589 36866,36866l0 0c0,20277 -16589,36866 -36866,36866l0 0c-20277,0 -36866,-16589 -36866,-36866l0 0c0,-20277 16589,-36866 36866,-36866z"/>
   </clipPath>
 </defs>
 <g id="Слой_x0020_1">
  <metadata id="CorelCorpID_0Corel-Layer"/>
  <path fill="#C0392B" d="M48225 3831c-24518,0 -44394,19876 -44394,44394 0,29691 22605,40803 44394,55170 21789,-14367 44394,-25479 44394,-55170 0,-24518 -19876,-44394 -44394,-44394z"/>
  <path fill="whitesmoke" fill-rule="nonzero" d="M48225 7662c-11202,0 -21343,4540 -28683,11880 -7340,7340 -11880,17481 -11880,28683 0,24563 17355,35698 35927,47613 1427,916 2858,1834 4636,2995 1773,-1158 3212,-2081 4636,-2995 18571,-11915 35927,-23050 35927,-47613 0,-11202 -4540,-21343 -11880,-28683 -7340,-7340 -17481,-11880 -28683,-11880zm-34100 6463c8727,-8727 20784,-14125 34100,-14125 13317,0 25373,5398 34100,14125 8727,8727 14125,20783 14125,34100 0,28732 -19062,40962 -39459,54048 -2505,1607 -5018,3220 -6671,4309l-2095 1382 -2095 -1382c-1636,-1078 -4168,-2702 -6671,-4309 -20397,-13086 -39459,-25316 -39459,-54048 0,-13316 5398,-25373 14125,-34100z"/>
  <g>
  </g>
  <g clip-path="url(#id0)">
   <g>
    <path fill="#FEFEFE" fill-rule="nonzero" d="M48225 72598c-2982,0 -5999,-410 -8855,-1259 -2736,-812 -5315,-2025 -7565,-3660 -3596,-2613 -4578,-5449 -4236,-8342 304,-2576 1710,-4912 3141,-7145 313,-487 -146,-2095 -687,-3989 -610,-2138 -1295,-4541 -1256,-7218 62,-4247 188,-8334 1093,-11922 991,-3931 2871,-7232 6450,-9455 1609,-1000 3499,-1743 5513,-2238 2092,-514 4314,-766 6486,-766 2170,0 4337,249 6372,757 1982,495 3839,1241 5459,2247 3579,2223 5458,5524 6450,9455 904,3588 1031,7675 1093,11922 38,2677 -647,5080 -1257,7218 -541,1894 -1000,3501 -687,3989 1432,2233 2837,4570 3141,7145 343,2893 -639,5729 -4235,8342 -2251,1635 -4830,2848 -7566,3660 -2856,849 -5873,1259 -8854,1259zm-7526 -5782c2396,712 4961,1056 7526,1056 2565,0 5130,-344 7525,-1056 2223,-660 4311,-1640 6126,-2958 1917,-1394 2464,-2712 2315,-3968 -186,-1575 -1291,-3388 -2421,-5150 -1467,-2288 -742,-4832 114,-7829 527,-1846 1119,-3921 1091,-5871 -57,-3925 -171,-7689 -964,-10833 -706,-2801 -1986,-5116 -4364,-6593 -1187,-738 -2588,-1294 -4110,-1674 -1638,-409 -3417,-610 -5228,-610 -1834,0 -3672,204 -5360,619 -1545,379 -2969,933 -4147,1665 -2377,1477 -3657,3792 -4364,6593 -793,3144 -906,6908 -963,10833 -29,1950 564,4025 1090,5871 856,2997 1582,5541 115,7829 -1130,1762 -2236,3575 -2422,5150 -148,1256 398,2574 2316,3968 1814,1318 3903,2298 6125,2958z"/>
    <path fill="#FEFEFE" fill-rule="nonzero" d="M30206 48732c-275,-1275 535,-2531 1810,-2806 1274,-276 2531,534 2806,1809 671,3067 3224,8173 3231,8188 581,1162 110,2576 -1052,3157 -1162,581 -2576,109 -3157,-1053 -8,-16 -2852,-5703 -3638,-9295z"/>
    <path fill="#FEFEFE" fill-rule="nonzero" d="M61654 47735c275,-1275 1532,-2085 2806,-1809 1275,275 2085,1531 1809,2806 -785,3592 -3629,9279 -3637,9295 -581,1162 -1995,1634 -3157,1053 -1162,-581 -1633,-1995 -1052,-3157 7,-15 2560,-5121 3231,-8188z"/>
    <path fill="#FEFEFE" d="M50424 39790c1609,1288 3962,3001 6672,2763 3079,-272 4278,-2830 3628,-6492 -1510,-2693 -9066,1472 -10300,3729z"/>
    <path fill="#FEFEFE" d="M46210 40022c-1013,-2732 -10311,-7973 -10565,-2147 -139,3178 1860,4689 4393,4693 2572,5 4460,-1517 6172,-2546z"/>
    <path fill="#FEFEFE" fill-rule="nonzero" d="M43198 54921c43,-2164 1260,-3708 2855,-4485 681,-333 1441,-521 2209,-552 768,-31 1547,100 2269,404 1602,677 2887,2165 3108,4577 70,777 -503,1464 -1280,1534 -2482,105 -5242,-23 -7754,-38 -780,-3 -1410,-638 -1407,-1418l0 -22zm4095 -1938c-279,137 -533,326 -739,564l3733 22c-235,-318 -530,-541 -853,-678 -327,-138 -693,-197 -1061,-182 -368,14 -739,108 -1080,274z"/>
   </g>
  </g>
  <path fill="none" d="M48225 7735l0 0c20277,0 36866,16589 36866,36866l0 0c0,20277 -16589,36866 -36866,36866l0 0c-20277,0 -36866,-16589 -36866,-36866l0 0c0,-20277 16589,-36866 36866,-36866z"/>
 </g>
</svg>
