<?xml version="1.0" encoding="UTF-8"?>
<!DOCTYPE svg PUBLIC "-//W3C//DTD SVG 1.1//EN" "http://www.w3.org/Graphics/SVG/1.1/DTD/svg11.dtd">
<!-- Creator: CorelDRAW X8 -->
<svg xmlns="http://www.w3.org/2000/svg" xml:space="preserve" width="425px" height="476px" version="1.1" shape-rendering="geometricPrecision" text-rendering="geometricPrecision" image-rendering="optimizeQuality" fill-rule="evenodd" clip-rule="evenodd"
viewBox="0 0 96450 107964"
 xmlns:xlink="http://www.w3.org/1999/xlink">
 <defs>
   <clipPath id="id0">
    <path d="M48225 8887l0 0c20277,0 36866,16590 36866,36866l0 1c0,20276 -16589,36866 -36866,36866l0 0c-20277,0 -36866,-16590 -36866,-36866l0 -1c0,-20276 16589,-36866 36866,-36866z"/>
   </clipPath>
 </defs>
 <g id="Слой_x0020_1">
  <metadata id="CorelCorpID_0Corel-Layer"/>
  <path fill="#F39C12" d="M48225 3831c-24518,0 -44394,19876 -44394,44394 0,29691 22605,40803 44394,55170 21789,-14367 44394,-25479 44394,-55170 0,-24518 -19876,-44394 -44394,-44394z"/>
  <path fill="whitesmoke" fill-rule="nonzero" d="M48225 7662c-11202,0 -21343,4540 -28683,11880 -7340,7340 -11880,17481 -11880,28683 0,24563 17355,35698 35927,47613 1427,916 2858,1834 4636,2995 1773,-1158 3212,-2081 4636,-2995 18571,-11915 35927,-23050 35927,-47613 0,-11202 -4540,-21343 -11880,-28683 -7340,-7340 -17481,-11880 -28683,-11880zm-34100 6463c8727,-8727 20784,-14125 34100,-14125 13317,0 25373,5398 34100,14125 8727,8727 14125,20783 14125,34100 0,28732 -19062,40962 -39459,54048 -2505,1607 -5018,3220 -6671,4309l-2095 1382 -2095 -1382c-1636,-1078 -4168,-2702 -6671,-4309 -20397,-13086 -39459,-25316 -39459,-54048 0,-13316 5398,-25373 14125,-34100z"/>
  <g>
  </g>
  <g clip-path="url(#id0)">
   <g>
    <path fill="#FEFEFE" fill-rule="nonzero" d="M33013 33425c-321,1260 -1602,2020 -2861,1699 -1260,-321 -2020,-1602 -1699,-2861l78 -302c834,-3239 1176,-4563 2734,-7714 307,-621 851,-1048 1469,-1224l-1 -3c5678,-1636 11159,-2454 16647,-2454 5488,0 10969,818 16647,2454 716,203 1260,716 1529,1353 4256,8673 5377,18300 6451,27533 385,3309 764,6567 1261,9582 165,1013 -342,1979 -1193,2446 -921,545 -1987,1038 -3175,1480 -664,246 -1351,474 -2060,683 87,1144 -207,2138 -2011,2522l-1287 279c-1670,373 -3514,783 -5437,997 -279,637 -829,1146 -2081,1306 -3703,476 -6221,705 -8741,701 -2527,-4 -4978,-243 -8547,-701 -1252,-160 -1802,-669 -2081,-1306 -1924,-213 -3768,-625 -5438,-997 -197,-44 -431,-96 -1286,-277 -1804,-382 -2098,-1377 -2011,-2524 -709,-209 -1397,-437 -2060,-684 -1221,-453 -2313,-961 -3251,-1525 -853,-510 -1267,-1475 -1116,-2400 554,-3369 893,-6144 1300,-9484l369 -3008c157,-1295 1336,-2216 2630,-2058 1295,158 2217,1336 2059,2630l-369 2999c-338,2766 -628,5140 -1068,7991 343,154 707,301 1089,443 988,367 2150,707 3456,1017 1701,408 2017,1347 1953,2434 1752,386 3672,776 5523,861 1480,67 2050,644 2322,1396 2629,317 4583,481 6526,485 1963,3 3976,-156 6722,-486 273,-751 844,-1328 2320,-1395 1851,-85 3772,-476 5523,-861 -64,-1090 252,-2031 1952,-2434 1306,-310 2469,-650 3457,-1017 384,-142 749,-291 1094,-444 -402,-2687 -716,-5384 -1033,-8116 -993,-8532 -2027,-17417 -5601,-25164 -4888,-1322 -9616,-1984 -14337,-1984 -4722,0 -9452,662 -14341,1986 -988,2119 -1300,3330 -1948,5845l-78 301z"/>
    <path fill="#FEFEFE" fill-rule="nonzero" d="M26674 35530c-1244,-290 -2596,-607 -2306,-1851 289,-1243 1822,-2016 3065,-1727l4801 1124c871,-320 3876,-1701 4648,-1657 2263,10 2789,159 4546,-285 1549,492 2960,665 4175,290 1258,-387 2162,-510 2712,418 649,1093 -289,1754 -1383,2403 -3344,1991 -5829,400 -9590,1384l-3456 762c-440,191 -1115,595 -1618,478l-5594 -1339zm17601 18168c2848,2060 547,3922 -1483,2908l-7296 -3430 -13519 -5363c-1183,-470 -1125,-2852 -656,-4035 469,-1184 1173,-721 2356,-251l5890 4278 7661 2393c60,25 1220,-469 1280,-439l5767 3939zm6007 -3679c3525,1362 964,4238 -1258,3378l-9415 -3280c-1189,-460 -507,-1333 -47,-2521 459,-1189 522,-1895 1710,-1436l9010 3859zm-8609 -3867c-1229,-345 -904,-1389 -559,-2617 272,-971 84,-1854 1037,-1914 -893,-434 -568,-1243 -400,-2273 139,-857 -2947,-2869 -6371,-3294 -2645,-328 6103,-1173 5775,-687 -2372,1142 2049,1845 2377,1899l5900 710 6006 1347c1259,204 2113,1275 1908,2533 -204,1258 -986,1476 -2244,1272l-5367 -792 -5607 -295 11642 3265c1228,344 1945,1620 1600,2848 -344,1229 -1620,1946 -2848,1601l-12849 -3603z"/>
    <path fill="#FEFEFE" fill-rule="nonzero" d="M35813 58800l-1230 7650 -3462 -550c703,-2608 1407,-5217 2110,-7825 1055,-2151 1880,-1462 2582,725z"/>
    <path fill="#FEFEFE" fill-rule="nonzero" d="M44268 59782l-264 8661 -3489 -316c264,-2872 1275,-5569 1539,-8441 547,-1565 2370,-1899 2214,96z"/>
    <path fill="#FEFEFE" fill-rule="nonzero" d="M65617 58251l2022 7649 -3462 550c-410,-2550 -513,-5100 -923,-7650 -385,-1898 1868,-2828 2363,-549z"/>
    <path fill="#FEFEFE" fill-rule="nonzero" d="M57278 59510l967 8617 -3270 492c-264,-2872 -44,-5921 -308,-8793 -287,-1468 1579,-3420 2611,-316z"/>
   </g>
  </g>
  <path fill="none" d="M48225 8887l0 0c20277,0 36866,16590 36866,36866l0 1c0,20276 -16589,36866 -36866,36866l0 0c-20277,0 -36866,-16590 -36866,-36866l0 -1c0,-20276 16589,-36866 36866,-36866z"/>
 </g>
</svg>
