<?xml version="1.0" encoding="UTF-8"?>
<!DOCTYPE svg PUBLIC "-//W3C//DTD SVG 1.1//EN" "http://www.w3.org/Graphics/SVG/1.1/DTD/svg11.dtd">
<!-- Creator: CorelDRAW X8 -->
<svg xmlns="http://www.w3.org/2000/svg" xml:space="preserve" width="425px" height="476px" version="1.1" shape-rendering="geometricPrecision" text-rendering="geometricPrecision" image-rendering="optimizeQuality" fill-rule="evenodd" clip-rule="evenodd"
viewBox="0 0 91476 102395"
 xmlns:xlink="http://www.w3.org/1999/xlink">
 <defs>
   <clipPath id="id0">
    <path d="M45737 8429l1 0c19231,0 34964,15733 34964,34964l0 1c0,19230 -15733,34964 -34964,34964l-1 0c-19230,0 -34964,-15734 -34964,-34964l0 -1c0,-19231 15734,-34964 34964,-34964z"/>
   </clipPath>
 </defs>
 <g id="Слой_x0020_1">
  <metadata id="CorelCorpID_0Corel-Layer"/>
  <path fill="#F39C12" d="M45738 3633c-23254,0 -42105,18851 -42105,42105 0,28160 21440,38698 42105,52324 20664,-13626 42104,-24164 42104,-52324 0,-23254 -18850,-42105 -42104,-42105z"/>
  <path fill="whitesmoke" fill-rule="nonzero" d="M45738 7267c-10625,0 -20243,4306 -27204,11267 -6961,6961 -11267,16579 -11267,27204 0,23296 16460,33857 34074,45157 1353,869 2711,1740 4397,2840 1681,-1098 3046,-1973 4397,-2840 17613,-11300 34074,-21861 34074,-45157 0,-10624 -4306,-20243 -11268,-27204 -6961,-6961 -16579,-11267 -27203,-11267zm-32341 6130c8276,-8277 19711,-13397 32341,-13397 12629,0 24064,5120 32341,13397 8277,8276 13397,19711 13397,32341 0,27250 -18079,38849 -37424,51260 -2376,1524 -4760,3054 -6327,4087l-1988 1310 -1986 -1310c-1552,-1023 -3953,-2563 -6327,-4087 -19346,-12411 -37424,-24010 -37424,-51260 0,-12630 5120,-24065 13397,-32341z"/>
  <g>
  </g>
  <g clip-path="url(#id0)">
   <g>
    <path fill="#FEFEFE" fill-rule="nonzero" d="M34397 44667c2919,0 5563,1184 7476,3097 1913,1914 3097,4557 3097,7477 0,2919 -1183,5562 -3097,7476 -1913,1913 -4557,3097 -7476,3097 -2919,0 -5563,-1184 -7476,-3098 -1914,-1912 -3097,-4556 -3097,-7475 0,-2920 1183,-5563 3097,-7477 1913,-1913 4557,-3097 7476,-3097zm4307 6266c-1102,-1101 -2625,-1783 -4307,-1783 -1682,0 -3205,682 -4307,1783 -1102,1102 -1784,2625 -1784,4308 0,1682 682,3205 1784,4306 1102,1102 2625,1784 4307,1784 1682,0 3205,-682 4307,-1783 1102,-1102 1784,-2625 1784,-4307 0,-1683 -682,-3206 -1784,-4308zm18374 -6266c2920,0 5563,1184 7476,3097 1914,1914 3098,4557 3098,7477 0,2919 -1184,5563 -3098,7475 -1913,1914 -4556,3098 -7476,3098 -2919,0 -5563,-1184 -7476,-3097 -1913,-1914 -3097,-4557 -3097,-7476 0,-2920 1184,-5563 3097,-7477 1913,-1913 4557,-3097 7476,-3097zm4307 6266c-1101,-1101 -2625,-1783 -4307,-1783 -1682,0 -3205,682 -4307,1783 -1101,1102 -1783,2625 -1783,4308 0,1682 681,3205 1783,4307 1102,1101 2625,1783 4307,1783 1682,0 3206,-682 4307,-1784 1102,-1101 1784,-2624 1784,-4306 0,-1683 -682,-3206 -1784,-4308z"/>
    <path fill="#FEFEFE" fill-rule="nonzero" d="M36089 61080c3236,-1082 6446,-1623 9649,-1623 3203,0 6413,541 9648,1623l-1418 4237c-2747,-918 -5485,-1378 -8230,-1378 -2745,0 -5484,460 -8231,1378l-1418 -4237zm19297 -11776c-3214,1074 -6427,1612 -9649,1611l0 9c-3205,0 -6418,-540 -9648,-1620l1418 -4237c2742,916 5482,1375 8230,1375l0 8c2730,0 5471,-461 8231,-1383l1418 4237z"/>
    <path fill="#FEFEFE" fill-rule="nonzero" d="M32264 54467c-246,699 -1013,1066 -1712,819 -699,-246 -1066,-1013 -820,-1712 247,-695 624,-1326 1101,-1862 477,-537 1061,-984 1719,-1310 664,-328 1468,-55 1796,609 328,665 55,1469 -609,1797 -339,168 -645,404 -900,690 -250,282 -448,611 -575,969z"/>
    <path fill="#FEFEFE" fill-rule="nonzero" d="M41211 48572c0,-1215 618,-2263 1615,-2977 777,-555 1809,-899 2912,-899 1103,0 2135,344 2911,899 998,714 1615,1762 1615,2977l-3732 0 -437 613c7,52 -3,76 -37,52 -50,-36 -161,-58 -320,-58 -160,0 -271,22 -321,58 -34,24 -43,0 -37,-52l-436 -613 -3733 0zm4169 613c18,-139 153,-479 239,-613l-675 0 436 613zm1152 -613l-676 0c87,134 221,474 239,613l437 -613z"/>
    <path fill="#FEFEFE" fill-rule="nonzero" d="M20907 41633c-1223,-164 -2082,-1290 -1918,-2513 164,-1223 1290,-2081 2513,-1917 1775,243 3709,454 5762,633 759,-1794 1534,-3485 2295,-5146 1026,-2240 2027,-4426 3015,-6980 425,-1100 2463,-2061 4864,-2804 2573,-796 5914,-1595 7295,-1844 183,-51 374,-78 572,-80l40 0c631,5 5137,923 8437,1871 2532,728 4670,1694 5120,2857 987,2553 1988,4739 3014,6979 762,1662 1536,3353 2295,5147 2053,-179 3988,-390 5762,-633 1223,-164 2349,694 2513,1917 164,1223 -694,2349 -1917,2513 -3358,460 -7235,808 -11373,1042 -4250,240 -8834,362 -13458,364 -4625,-2 -9209,-124 -13459,-364 -4137,-234 -8015,-582 -11372,-1042zm11079 -3455l538 32c4252,240 8750,362 13214,364 4463,-2 8962,-124 13213,-364l539 -32c-564,-1292 -1103,-2470 -1636,-3633 -1059,-2312 -2093,-4569 -3120,-7224 -151,-391 -843,223 -2177,-160 -2990,-859 -6724,-1687 -7228,-1713 -420,25 -3823,878 -6578,1731 -1241,384 -1853,-264 -2010,142 -1027,2655 -2061,4912 -3120,7225 -532,1163 -1072,2340 -1635,3632z"/>
    <path fill="#FEFEFE" fill-rule="nonzero" d="M54632 54467c-246,699 -1013,1066 -1712,819 -699,-246 -1066,-1013 -819,-1712 246,-695 624,-1326 1100,-1862 477,-537 1061,-984 1719,-1310 664,-328 1468,-55 1796,609 328,665 55,1469 -609,1797 -339,168 -645,404 -899,690 -251,282 -449,611 -576,969z"/>
   </g>
  </g>
  <path fill="none" d="M45737 8429l1 0c19231,0 34964,15733 34964,34964l0 1c0,19230 -15733,34964 -34964,34964l-1 0c-19230,0 -34964,-15734 -34964,-34964l0 -1c0,-19231 15734,-34964 34964,-34964z"/>
 </g>
</svg>
