<?xml version="1.0" encoding="UTF-8"?>
<!DOCTYPE svg PUBLIC "-//W3C//DTD SVG 1.1//EN" "http://www.w3.org/Graphics/SVG/1.1/DTD/svg11.dtd">
<!-- Creator: CorelDRAW X8 -->
<svg xmlns="http://www.w3.org/2000/svg" xml:space="preserve" width="425px" height="476px" version="1.1" shape-rendering="geometricPrecision" text-rendering="geometricPrecision" image-rendering="optimizeQuality" fill-rule="evenodd" clip-rule="evenodd"
viewBox="0 0 91476 102395"
 xmlns:xlink="http://www.w3.org/1999/xlink">
 <defs>
   <clipPath id="id0">
    <path d="M45737 7336l1 0c19231,0 34964,15734 34964,34964l0 1c0,19231 -15733,34965 -34964,34965l-1 0c-19230,0 -34964,-15734 -34964,-34965l0 -1c0,-19230 15734,-34964 34964,-34964z"/>
   </clipPath>
 </defs>
 <g id="Слой_x0020_1">
  <metadata id="CorelCorpID_0Corel-Layer"/>
  <path fill="#C0392B" d="M45738 3633c-23254,0 -42105,18851 -42105,42105 0,28160 21440,38698 42105,52324 20664,-13626 42104,-24164 42104,-52324 0,-23254 -18850,-42105 -42104,-42105z"/>
  <path fill="whitesmoke" fill-rule="nonzero" d="M45738 7267c-10625,0 -20243,4306 -27204,11267 -6961,6961 -11267,16579 -11267,27204 0,23296 16460,33857 34074,45157 1353,869 2711,1740 4397,2840 1681,-1098 3046,-1973 4397,-2840 17613,-11300 34074,-21861 34074,-45157 0,-10624 -4306,-20243 -11268,-27204 -6961,-6961 -16579,-11267 -27203,-11267zm-32341 6130c8276,-8277 19711,-13397 32341,-13397 12629,0 24064,5120 32341,13397 8277,8276 13397,19711 13397,32341 0,27250 -18079,38849 -37424,51260 -2376,1524 -4760,3054 -6327,4087l-1988 1310 -1986 -1310c-1552,-1023 -3953,-2563 -6327,-4087 -19346,-12411 -37424,-24010 -37424,-51260 0,-12630 5120,-24065 13397,-32341z"/>
  <g>
  </g>
  <g clip-path="url(#id0)">
   <g>
    <path fill="#FEFEFE" fill-rule="nonzero" d="M25615 40487c-261,-669 -1061,-1001 -1728,-1278 -2092,-867 -3755,-1556 -2967,-4721l1694 -6795c223,-897 716,-1662 1381,-2210 697,-572 1564,-903 2499,-903l43895 0c1238,0 2241,1003 2241,2241l0 8532c0,1222 -978,2215 -2194,2240l-7459 734 -1634 3389c-385,799 -1183,1264 -2013,1265l0 5 -16337 0c-1339,2100 -3068,5798 -4409,9481 -1255,3446 -2139,6757 -1964,8464 126,1228 -768,2326 -1996,2451 -111,12 -221,15 -329,10l-6582 22 0 -9c-2638,0 -5316,-9 -6977,-37 -3029,-52 -3975,-1038 -3937,-3282 13,-750 218,-1435 483,-2322l124 -405c529,-1784 1093,-3537 1759,-5265 683,-1770 1470,-3494 2432,-5162 691,-1197 1362,-2232 1979,-3182 1160,-1789 2068,-3189 2039,-3263zm-12 -5410c1467,608 3227,1338 4179,3781 861,2207 -596,4454 -2459,7326 -611,941 -1276,1965 -1856,2972 -829,1436 -1522,2959 -2135,4548 -604,1569 -1134,3222 -1640,4928l-82 282c1644,20 3891,26 6103,26l0 -8 4537 -2c289,-2287 1096,-5144 2132,-7986 1652,-4538 3931,-9208 5559,-11404 398,-623 1096,-1037 1890,-1037l16097 0 1567 -3249c328,-677 990,-1173 1794,-1252l6859 -674 0 -4266 -41267 0 -1619 6494c-140,561 229,-525 341,-479z"/>
    <path fill="#FEFEFE" fill-rule="nonzero" d="M29295 63415c-1237,0 -2241,-1004 -2241,-2242 0,-1237 1004,-2241 2241,-2241l5837 0c1238,0 2242,1004 2242,2241 0,1238 -1004,2242 -2242,2242l-5837 0z"/>
    <path fill="#FEFEFE" fill-rule="nonzero" d="M38215 51243c-1228,-140 -2110,-1250 -1970,-2478 140,-1228 1249,-2110 2477,-1970 58,7 951,11 2182,12 1699,2 3963,-3 5712,-8l-12 -241c-59,-1025 -38,-2060 65,-3103 100,-1015 282,-2040 547,-3071 305,-1194 1520,-1915 2714,-1611 1194,304 1916,1520 1611,2714 -203,791 -345,1594 -425,2406 -78,798 -94,1605 -47,2420 58,1000 -36,2023 -484,2916 -614,1225 -1672,2028 -3423,2034 -1800,5 -4376,11 -6258,9 -1440,-1 -2523,-10 -2689,-29z"/>
    <path fill="#FEFEFE" fill-rule="nonzero" d="M44595 46662c271,1204 -486,2399 -1689,2670 -1204,271 -2400,-486 -2671,-1690 -317,-1397 -478,-2667 -497,-3799 -21,-1275 142,-2389 471,-3328 406,-1165 1680,-1780 2845,-1374 1166,406 1781,1680 1375,2845 -160,456 -238,1052 -226,1787 13,817 141,1782 392,2889z"/>
    <polygon fill="#FEFEFE" fill-rule="nonzero" points="69484,36640 24244,36640 24244,33950 69484,33950 "/>
    <polygon fill="#FEFEFE" fill-rule="nonzero" points="26934,23428 28498,23428 32526,23428 32526,27513 26934,27513 "/>
    <polygon fill="#FEFEFE" fill-rule="nonzero" points="66890,24088 72444,23437 72444,27522 66852,27522 "/>
    <path fill="#FEFEFE" fill-rule="nonzero" d="M26986 35821c1354,597 2458,1513 3331,2490 1254,1403 2028,2947 2362,3783l-4149 1663c-220,-548 -725,-1559 -1539,-2470 -490,-547 -1093,-1053 -1808,-1369l1803 -4097z"/>
    <path fill="#FEFEFE" fill-rule="nonzero" d="M40096 40494c-742,0 -1345,-603 -1345,-1345 0,-743 603,-1345 1345,-1345l3448 0c743,0 1345,602 1345,1345 0,742 -602,1345 -1345,1345l-3448 0z"/>
   </g>
  </g>
  <path fill="none" d="M45737 7336l1 0c19231,0 34964,15734 34964,34964l0 1c0,19231 -15733,34965 -34964,34965l-1 0c-19230,0 -34964,-15734 -34964,-34965l0 -1c0,-19230 15734,-34964 34964,-34964z"/>
 </g>
</svg>
